<svg width="78px" height="92px" viewBox="0 0 78 92" version="1.1" xmlns="http://www.w3.org/2000/svg" xmlns:xlink="http://www.w3.org/1999/xlink">
    <!-- Generator: Sketch 47.1 (45422) - http://www.bohemiancoding.com/sketch -->
    <desc>Created with Sketch.</desc>
    <defs>
        <linearGradient x1="15.989403%" y1="0%" x2="100%" y2="100%" id="linearGradient-1">
            <stop stop-color="#555555" offset="0%"></stop>
            <stop stop-color="#333333" offset="100%"></stop>
        </linearGradient>
        <path d="M4,0 L71.605042,0 L71.605042,80 L4,80 L4,80 C1.790861,80 2.705415e-16,78.209139 0,76 L0,4 L0,4 C-2.705415e-16,1.790861 1.790861,4.05812251e-16 4,0 Z" id="path-2"></path>
        <filter x="-14.7%" y="-9.4%" width="129.3%" height="126.2%" filterUnits="objectBoundingBox" id="filter-3">
            <feOffset dx="0" dy="3" in="SourceAlpha" result="shadowOffsetOuter1"></feOffset>
            <feGaussianBlur stdDeviation="3" in="shadowOffsetOuter1" result="shadowBlurOuter1"></feGaussianBlur>
            <feColorMatrix values="0 0 0 0 0   0 0 0 0 0   0 0 0 0 0  0 0 0 1 0" type="matrix" in="shadowBlurOuter1"></feColorMatrix>
        </filter>
    </defs>
    <g id="Page-1" stroke="none" stroke-width="1" fill="none" fill-rule="evenodd">
        <g id="H5-1" transform="translate(-672.000000, -764.000000)">
            <g id="Group-4" transform="translate(678.000000, 767.000000)">
                <g id="Rectangle-11">
                    <use fill="black" fill-opacity="1" filter="url(#filter-3)" xlink:href="#path-2"></use>
                    <use fill="url(#linearGradient-1)" fill-rule="evenodd" xlink:href="#path-2"></use>
                </g>
                <path d="M25.596,54.796 L25.596,41.244 L23,41.244 L23,39.132 L30.436,39.132 L30.436,41.244 L27.84,41.244 L27.84,54.796 L25.596,54.796 Z M30.81,42.828 C30.81,42.1973302 30.9199989,41.6400024 31.14,41.156 C31.3600011,40.6719976 31.6533315,40.2686683 32.02,39.946 C32.3720018,39.6379985 32.7716644,39.4033341 33.219,39.242 C33.6663356,39.0806659 34.1173311,39 34.572,39 C35.0266689,39 35.4776644,39.0806659 35.925,39.242 C36.3723356,39.4033341 36.7793315,39.6379985 37.146,39.946 C37.4980018,40.2686683 37.7839989,40.6719976 38.004,41.156 C38.2240011,41.6400024 38.334,42.1973302 38.334,42.828 L38.334,51.1 C38.334,51.7600033 38.2240011,52.3246643 38.004,52.794 C37.7839989,53.2633357 37.4980018,53.6519985 37.146,53.96 C36.7793315,54.2826683 36.3723356,54.5246659 35.925,54.686 C35.4776644,54.8473341 35.0266689,54.928 34.572,54.928 C34.1173311,54.928 33.6663356,54.8473341 33.219,54.686 C32.7716644,54.5246659 32.3720018,54.2826683 32.02,53.96 C31.6533315,53.6519985 31.3600011,53.2633357 31.14,52.794 C30.9199989,52.3246643 30.81,51.7600033 30.81,51.1 L30.81,42.828 Z M33.054,51.1 C33.054,51.6426694 33.2043318,52.0423321 33.505,52.299 C33.8056682,52.555668 34.1613313,52.684 34.572,52.684 C34.9826687,52.684 35.3383318,52.555668 35.639,52.299 C35.9396682,52.0423321 36.09,51.6426694 36.09,51.1 L36.09,42.828 C36.09,42.2853306 35.9396682,41.885668 35.639,41.629 C35.3383318,41.3723321 34.9826687,41.244 34.572,41.244 C34.1613313,41.244 33.8056682,41.3723321 33.505,41.629 C33.2043318,41.885668 33.054,42.2853306 33.054,42.828 L33.054,51.1 Z M40.094,54.796 L40.094,39.132 L43.46,39.132 C44.0760031,39.132 44.6186643,39.2126659 45.088,39.374 C45.5573357,39.5353341 45.9826648,39.8213313 46.364,40.232 C46.7453352,40.6426687 47.0093326,41.1229973 47.156,41.673 C47.3026674,42.2230028 47.376,42.9673286 47.376,43.906 C47.376,44.6100035 47.3356671,45.2039976 47.255,45.688 C47.1743329,46.1720024 47.0020013,46.6266645 46.738,47.052 C46.4299985,47.5653359 46.0193359,47.9649986 45.506,48.251 C44.9926641,48.5370014 44.3180042,48.68 43.482,48.68 L42.338,48.68 L42.338,54.796 L40.094,54.796 Z M42.338,41.244 L42.338,46.568 L43.416,46.568 C43.8706689,46.568 44.2226654,46.5020007 44.472,46.37 C44.7213346,46.2379993 44.9046661,46.0546678 45.022,45.82 C45.1393339,45.5999989 45.2089999,45.3286683 45.231,45.006 C45.2530001,44.6833317 45.264,44.324002 45.264,43.928 C45.264,43.5613315 45.2566667,43.2130017 45.242,42.883 C45.2273333,42.5529984 45.1613339,42.2633346 45.044,42.014 C44.9266661,41.7646654 44.7506678,41.5740007 44.516,41.442 C44.2813322,41.3099993 43.9440022,41.244 43.504,41.244 L42.338,41.244 Z" id="TOP" fill="#FFFFFF"></path>
                <polyline id="Path-8" stroke="#979797" stroke-width="3" points="25 28.2697889 35.7493404 20 46 28.2697889"></polyline>
            </g>
        </g>
    </g>
</svg>