<svg width="176px" height="444px" viewBox="0 0 176 444" version="1.1" xmlns="http://www.w3.org/2000/svg" xmlns:xlink="http://www.w3.org/1999/xlink">
    <!-- Generator: Sketch 47.1 (45422) - http://www.bohemiancoding.com/sketch -->
    <desc>Created with Sketch.</desc>
    <defs>
        <circle id="path-1" cx="3.5" cy="13.5" r="3.5"></circle>
        <filter x="-192.9%" y="-192.9%" width="485.7%" height="485.7%" filterUnits="objectBoundingBox" id="filter-2">
            <feOffset dx="0" dy="0" in="SourceAlpha" result="shadowOffsetOuter1"></feOffset>
            <feGaussianBlur stdDeviation="4.5" in="shadowOffsetOuter1" result="shadowBlurOuter1"></feGaussianBlur>
            <feColorMatrix values="0 0 0 0 0.219607843   0 0 0 0 0.690196078   0 0 0 0 0.894117647  0 0 0 1 0" type="matrix" in="shadowBlurOuter1"></feColorMatrix>
        </filter>
    </defs>
    <g id="Page-1" stroke="none" stroke-width="1" fill="none" fill-rule="evenodd">
        <g id="H5-1" transform="translate(-286.000000, -1916.000000)">
            <g id="Group-7" transform="translate(295.000000, 1915.000000)">
                <g id="Group-6">
                    <circle id="Oval" fill="#999999" cx="3.5" cy="115.5" r="3.5"></circle>
                    <circle id="Oval" fill="#999999" cx="3.5" cy="213.5" r="3.5"></circle>
                    <circle id="Oval" fill="#999999" cx="3.5" cy="311.5" r="3.5"></circle>
                    <circle id="Oval" fill="#999999" cx="3.5" cy="409.5" r="3.5"></circle>
                    <g id="Group-4" transform="translate(2.000000, 0.000000)">
                        <text id="报名评选" font-family="PingFangSC-Semibold, PingFang SC" font-size="24" font-weight="500" fill="#FFFFFF">
                            <tspan x="47" y="25">报名评选</tspan>
                        </text>
                        <path d="M2,409.500316 L2,14" id="Path-3" stroke="#4D4D4D"></path>
                        <path d="M26,52.36 L26,50.44 L29.68,43.5 C29.8666676,43.1533316 29.9733332,42.8500013 30,42.59 C30.0266668,42.3299987 30.04,42.0066686 30.04,41.62 C30.04,41.4466658 30.0366667,41.2633343 30.03,41.07 C30.0233333,40.8766657 29.986667,40.7066674 29.92,40.56 C29.853333,40.4133326 29.753334,40.2900005 29.62,40.19 C29.486666,40.0899995 29.2933346,40.04 29.04,40.04 C28.7333318,40.04 28.4900009,40.1266658 28.31,40.3 C28.1299991,40.4733342 28.04,40.726665 28.04,41.06 L28.04,42.22 L26,42.22 L26,41.1 C26,40.6733312 26.0799992,40.2733352 26.24,39.9 C26.4000008,39.5266648 26.6199986,39.2000014 26.9,38.92 C27.166668,38.6399986 27.4866648,38.4166675 27.86,38.25 C28.2333352,38.0833325 28.6333312,38 29.06,38 C29.593336,38 30.0499981,38.0966657 30.43,38.29 C30.8100019,38.4833343 31.1266654,38.746665 31.38,39.08 C31.6200012,39.413335 31.7966661,39.7933312 31.91,40.22 C32.0233339,40.6466688 32.08,41.0999976 32.08,41.58 C32.08,41.9266684 32.0733334,42.2166655 32.06,42.45 C32.0466666,42.6833345 32.0200002,42.9066656 31.98,43.12 C31.9399998,43.3333344 31.8733338,43.5466656 31.78,43.76 C31.6866662,43.9733344 31.5600008,44.2333318 31.4,44.54 L28.4,50.32 L32.08,50.32 L32.08,52.36 L26,52.36 Z M33.44,41.06 C33.44,40.5799976 33.5233325,40.1533352 33.69,39.78 C33.8566675,39.4066648 34.0799986,39.086668 34.36,38.82 C34.6400014,38.553332 34.9633315,38.3500007 35.33,38.21 C35.6966685,38.0699993 36.079998,38 36.48,38 C36.880002,38 37.2633315,38.0699993 37.63,38.21 C37.9966685,38.3500007 38.3199986,38.553332 38.6,38.82 C38.8800014,39.086668 39.1033325,39.4066648 39.27,39.78 C39.4366675,40.1533352 39.52,40.5799976 39.52,41.06 L39.52,49.42 C39.52,49.9000024 39.4366675,50.3266648 39.27,50.7 C39.1033325,51.0733352 38.8800014,51.393332 38.6,51.66 C38.3199986,51.926668 37.9966685,52.1299993 37.63,52.27 C37.2633315,52.4100007 36.880002,52.48 36.48,52.48 C36.079998,52.48 35.6966685,52.4100007 35.33,52.27 C34.9633315,52.1299993 34.6400014,51.926668 34.36,51.66 C34.0799986,51.393332 33.8566675,51.0733352 33.69,50.7 C33.5233325,50.3266648 33.44,49.9000024 33.44,49.42 L33.44,41.06 Z M35.48,49.42 C35.48,49.7133348 35.5733324,49.9566657 35.76,50.15 C35.9466676,50.3433343 36.1866652,50.44 36.48,50.44 C36.7733348,50.44 37.0133324,50.3433343 37.2,50.15 C37.3866676,49.9566657 37.48,49.7133348 37.48,49.42 L37.48,41.06 C37.48,40.7666652 37.3866676,40.5233343 37.2,40.33 C37.0133324,40.1366657 36.7733348,40.04 36.48,40.04 C36.1866652,40.04 35.9466676,40.1366657 35.76,40.33 C35.5733324,40.5233343 35.48,40.7666652 35.48,41.06 L35.48,49.42 Z M43.3,52.36 L43.3,40.28 L41.26,41.78 L41.26,39.62 L43.3,38.12 L45.34,38.12 L45.34,52.36 L43.3,52.36 Z M48.78,52.36 L52.36,40.04 L50.12,40.04 L50.12,41.68 L48.32,41.68 L48.32,38.12 L54.4,38.12 L54.4,40.16 L50.94,52.36 L48.78,52.36 Z M55.92,52.36 L55.92,50.32 L57.96,50.32 L57.96,52.36 L55.92,52.36 Z M61.9,52.36 L61.9,40.28 L59.86,41.78 L59.86,39.62 L61.9,38.12 L63.94,38.12 L63.94,52.36 L61.9,52.36 Z M69.34,52.36 L69.34,40.28 L67.3,41.78 L67.3,39.62 L69.34,38.12 L71.38,38.12 L71.38,52.36 L69.34,52.36 Z M74.52,52.36 L74.52,50.32 L76.56,50.32 L76.56,52.36 L74.52,52.36 Z M80.5,44.12 C81.1133364,44.12 81.5366655,44.0466674 81.77,43.9 C82.0033345,43.7533326 82.12,43.413336 82.12,42.88 L82.12,41.04 C82.12,40.7466652 82.0300009,40.5066676 81.85,40.32 C81.6699991,40.1333324 81.4266682,40.04 81.12,40.04 C80.7599982,40.04 80.5033341,40.1533322 80.35,40.38 C80.1966659,40.6066678 80.12,40.8266656 80.12,41.04 L80.12,42.2 L78.08,42.2 L78.08,41.02 C78.08,40.6066646 78.1599992,40.2133352 78.32,39.84 C78.4800008,39.4666648 78.6999986,39.146668 78.98,38.88 C79.2600014,38.613332 79.5866648,38.4000008 79.96,38.24 C80.3333352,38.0799992 80.7333312,38 81.16,38 C81.7200028,38 82.1833315,38.1099989 82.55,38.33 C82.9166685,38.5500011 83.1933324,38.7733322 83.38,39 C83.513334,39.1600008 83.6299995,39.3199992 83.73,39.48 C83.8300005,39.6400008 83.913333,39.8333322 83.98,40.06 C84.1000006,40.5000022 84.16,41.153329 84.16,42.02 C84.16,42.5133358 84.1500001,42.9133318 84.13,43.22 C84.1099999,43.5266682 84.0600004,43.779999 83.98,43.98 C83.8866662,44.1933344 83.7566675,44.3733326 83.59,44.52 C83.4233325,44.6666674 83.1933348,44.8266658 82.9,45 C83.2200016,45.200001 83.4633325,45.3866658 83.63,45.56 C83.7966675,45.7333342 83.9199996,45.9333322 84,46.16 C84.0800004,46.4000012 84.1266666,46.6833317 84.14,47.01 C84.1533334,47.3366683 84.16,47.7533308 84.16,48.26 C84.16,48.726669 84.1500001,49.1133318 84.13,49.42 C84.1099999,49.7266682 84.0800002,49.979999 84.04,50.18 C83.9999998,50.3933344 83.946667,50.5733326 83.88,50.72 C83.813333,50.8666674 83.7266672,51.0199992 83.62,51.18 C83.3666654,51.5533352 83.0433353,51.8633321 82.65,52.11 C82.2566647,52.3566679 81.7400032,52.48 81.1,52.48 C80.7799984,52.48 80.4400018,52.4266672 80.08,52.32 C79.7199982,52.2133328 79.3933348,52.0400012 79.1,51.8 C78.8066652,51.5599988 78.5633343,51.2466686 78.37,50.86 C78.1766657,50.4733314 78.08,50.0000028 78.08,49.44 L78.08,48.28 L80.12,48.28 L80.12,49.34 C80.12,49.6600016 80.2099991,49.9233323 80.39,50.13 C80.5700009,50.3366677 80.8133318,50.44 81.12,50.44 C81.4266682,50.44 81.6699991,50.3366677 81.85,50.13 C82.0300009,49.9233323 82.12,49.6466684 82.12,49.3 L82.12,47.26 C82.12,46.6999972 82.0133344,46.3333342 81.8,46.16 C81.6799994,46.0533328 81.5166677,45.9866668 81.31,45.96 C81.1033323,45.9333332 80.833335,45.92 80.5,45.92 L80.5,44.12 Z M85.52,41.06 C85.52,40.5799976 85.6033325,40.1533352 85.77,39.78 C85.9366675,39.4066648 86.1599986,39.086668 86.44,38.82 C86.7200014,38.553332 87.0433315,38.3500007 87.41,38.21 C87.7766685,38.0699993 88.159998,38 88.56,38 C88.960002,38 89.3433315,38.0699993 89.71,38.21 C90.0766685,38.3500007 90.3999986,38.553332 90.68,38.82 C90.9600014,39.086668 91.1833325,39.4066648 91.35,39.78 C91.5166675,40.1533352 91.6,40.5799976 91.6,41.06 L91.6,49.42 C91.6,49.9000024 91.5166675,50.3266648 91.35,50.7 C91.1833325,51.0733352 90.9600014,51.393332 90.68,51.66 C90.3999986,51.926668 90.0766685,52.1299993 89.71,52.27 C89.3433315,52.4100007 88.960002,52.48 88.56,52.48 C88.159998,52.48 87.7766685,52.4100007 87.41,52.27 C87.0433315,52.1299993 86.7200014,51.926668 86.44,51.66 C86.1599986,51.393332 85.9366675,51.0733352 85.77,50.7 C85.6033325,50.3266648 85.52,49.9000024 85.52,49.42 L85.52,41.06 Z M87.56,49.42 C87.56,49.7133348 87.6533324,49.9566657 87.84,50.15 C88.0266676,50.3433343 88.2666652,50.44 88.56,50.44 C88.8533348,50.44 89.0933324,50.3433343 89.28,50.15 C89.4666676,49.9566657 89.56,49.7133348 89.56,49.42 L89.56,41.06 C89.56,40.7666652 89.4666676,40.5233343 89.28,40.33 C89.0933324,40.1366657 88.8533348,40.04 88.56,40.04 C88.2666652,40.04 88.0266676,40.1366657 87.84,40.33 C87.6533324,40.5233343 87.56,40.7666652 87.56,41.06 L87.56,49.42 Z M93.16,47.84 L93.16,45.8 L99.18,45.8 L99.18,47.84 L93.16,47.84 Z M100.74,52.36 L100.74,50.44 L104.42,43.5 C104.606668,43.1533316 104.713333,42.8500013 104.74,42.59 C104.766667,42.3299987 104.78,42.0066686 104.78,41.62 C104.78,41.4466658 104.776667,41.2633343 104.77,41.07 C104.763333,40.8766657 104.726667,40.7066674 104.66,40.56 C104.593333,40.4133326 104.493334,40.2900005 104.36,40.19 C104.226666,40.0899995 104.033335,40.04 103.78,40.04 C103.473332,40.04 103.230001,40.1266658 103.05,40.3 C102.869999,40.4733342 102.78,40.726665 102.78,41.06 L102.78,42.22 L100.74,42.22 L100.74,41.1 C100.74,40.6733312 100.819999,40.2733352 100.98,39.9 C101.140001,39.5266648 101.359999,39.2000014 101.64,38.92 C101.906668,38.6399986 102.226665,38.4166675 102.6,38.25 C102.973335,38.0833325 103.373331,38 103.8,38 C104.333336,38 104.789998,38.0966657 105.17,38.29 C105.550002,38.4833343 105.866665,38.746665 106.12,39.08 C106.360001,39.413335 106.536666,39.7933312 106.65,40.22 C106.763334,40.6466688 106.82,41.0999976 106.82,41.58 C106.82,41.9266684 106.813333,42.2166655 106.8,42.45 C106.786667,42.6833345 106.76,42.9066656 106.72,43.12 C106.68,43.3333344 106.613334,43.5466656 106.52,43.76 C106.426666,43.9733344 106.300001,44.2333318 106.14,44.54 L103.14,50.32 L106.82,50.32 L106.82,52.36 L100.74,52.36 Z M108.18,41.06 C108.18,40.5799976 108.263332,40.1533352 108.43,39.78 C108.596668,39.4066648 108.819999,39.086668 109.1,38.82 C109.380001,38.553332 109.703331,38.3500007 110.07,38.21 C110.436668,38.0699993 110.819998,38 111.22,38 C111.620002,38 112.003332,38.0699993 112.37,38.21 C112.736669,38.3500007 113.059999,38.553332 113.34,38.82 C113.620001,39.086668 113.843332,39.4066648 114.01,39.78 C114.176668,40.1533352 114.26,40.5799976 114.26,41.06 L114.26,49.42 C114.26,49.9000024 114.176668,50.3266648 114.01,50.7 C113.843332,51.0733352 113.620001,51.393332 113.34,51.66 C113.059999,51.926668 112.736669,52.1299993 112.37,52.27 C112.003332,52.4100007 111.620002,52.48 111.22,52.48 C110.819998,52.48 110.436668,52.4100007 110.07,52.27 C109.703331,52.1299993 109.380001,51.926668 109.1,51.66 C108.819999,51.393332 108.596668,51.0733352 108.43,50.7 C108.263332,50.3266648 108.18,49.9000024 108.18,49.42 L108.18,41.06 Z M110.22,49.42 C110.22,49.7133348 110.313332,49.9566657 110.5,50.15 C110.686668,50.3433343 110.926665,50.44 111.22,50.44 C111.513335,50.44 111.753332,50.3433343 111.94,50.15 C112.126668,49.9566657 112.22,49.7133348 112.22,49.42 L112.22,41.06 C112.22,40.7666652 112.126668,40.5233343 111.94,40.33 C111.753332,40.1366657 111.513335,40.04 111.22,40.04 C110.926665,40.04 110.686668,40.1366657 110.5,40.33 C110.313332,40.5233343 110.22,40.7666652 110.22,41.06 L110.22,49.42 Z M118.04,52.36 L118.04,40.28 L116,41.78 L116,39.62 L118.04,38.12 L120.08,38.12 L120.08,52.36 L118.04,52.36 Z M123.52,52.36 L127.1,40.04 L124.86,40.04 L124.86,41.68 L123.06,41.68 L123.06,38.12 L129.14,38.12 L129.14,40.16 L125.68,52.36 L123.52,52.36 Z M130.66,52.36 L130.66,50.32 L132.7,50.32 L132.7,52.36 L130.66,52.36 Z M136.64,52.36 L136.64,40.28 L134.6,41.78 L134.6,39.62 L136.64,38.12 L138.68,38.12 L138.68,52.36 L136.64,52.36 Z M141.66,52.36 L141.66,50.44 L145.34,43.5 C145.526668,43.1533316 145.633333,42.8500013 145.66,42.59 C145.686667,42.3299987 145.7,42.0066686 145.7,41.62 C145.7,41.4466658 145.696667,41.2633343 145.69,41.07 C145.683333,40.8766657 145.646667,40.7066674 145.58,40.56 C145.513333,40.4133326 145.413334,40.2900005 145.28,40.19 C145.146666,40.0899995 144.953335,40.04 144.7,40.04 C144.393332,40.04 144.150001,40.1266658 143.97,40.3 C143.789999,40.4733342 143.7,40.726665 143.7,41.06 L143.7,42.22 L141.66,42.22 L141.66,41.1 C141.66,40.6733312 141.739999,40.2733352 141.9,39.9 C142.060001,39.5266648 142.279999,39.2000014 142.56,38.92 C142.826668,38.6399986 143.146665,38.4166675 143.52,38.25 C143.893335,38.0833325 144.293331,38 144.72,38 C145.253336,38 145.709998,38.0966657 146.09,38.29 C146.470002,38.4833343 146.786665,38.746665 147.04,39.08 C147.280001,39.413335 147.456666,39.7933312 147.57,40.22 C147.683334,40.6466688 147.74,41.0999976 147.74,41.58 C147.74,41.9266684 147.733333,42.2166655 147.72,42.45 C147.706667,42.6833345 147.68,42.9066656 147.64,43.12 C147.6,43.3333344 147.533334,43.5466656 147.44,43.76 C147.346666,43.9733344 147.220001,44.2333318 147.06,44.54 L144.06,50.32 L147.74,50.32 L147.74,52.36 L141.66,52.36 Z M149.26,52.36 L149.26,50.32 L151.3,50.32 L151.3,52.36 L149.26,52.36 Z M155.24,44.12 C155.853336,44.12 156.276665,44.0466674 156.51,43.9 C156.743335,43.7533326 156.86,43.413336 156.86,42.88 L156.86,41.04 C156.86,40.7466652 156.770001,40.5066676 156.59,40.32 C156.409999,40.1333324 156.166668,40.04 155.86,40.04 C155.499998,40.04 155.243334,40.1533322 155.09,40.38 C154.936666,40.6066678 154.86,40.8266656 154.86,41.04 L154.86,42.2 L152.82,42.2 L152.82,41.02 C152.82,40.6066646 152.899999,40.2133352 153.06,39.84 C153.220001,39.4666648 153.439999,39.146668 153.72,38.88 C154.000001,38.613332 154.326665,38.4000008 154.7,38.24 C155.073335,38.0799992 155.473331,38 155.9,38 C156.460003,38 156.923331,38.1099989 157.29,38.33 C157.656668,38.5500011 157.933332,38.7733322 158.12,39 C158.253334,39.1600008 158.37,39.3199992 158.47,39.48 C158.57,39.6400008 158.653333,39.8333322 158.72,40.06 C158.840001,40.5000022 158.9,41.153329 158.9,42.02 C158.9,42.5133358 158.89,42.9133318 158.87,43.22 C158.85,43.5266682 158.8,43.779999 158.72,43.98 C158.626666,44.1933344 158.496668,44.3733326 158.33,44.52 C158.163332,44.6666674 157.933335,44.8266658 157.64,45 C157.960002,45.200001 158.203332,45.3866658 158.37,45.56 C158.536667,45.7333342 158.66,45.9333322 158.74,46.16 C158.82,46.4000012 158.866667,46.6833317 158.88,47.01 C158.893333,47.3366683 158.9,47.7533308 158.9,48.26 C158.9,48.726669 158.89,49.1133318 158.87,49.42 C158.85,49.7266682 158.82,49.979999 158.78,50.18 C158.74,50.3933344 158.686667,50.5733326 158.62,50.72 C158.553333,50.8666674 158.466667,51.0199992 158.36,51.18 C158.106665,51.5533352 157.783335,51.8633321 157.39,52.11 C156.996665,52.3566679 156.480003,52.48 155.84,52.48 C155.519998,52.48 155.180002,52.4266672 154.82,52.32 C154.459998,52.2133328 154.133335,52.0400012 153.84,51.8 C153.546665,51.5599988 153.303334,51.2466686 153.11,50.86 C152.916666,50.4733314 152.82,50.0000028 152.82,49.44 L152.82,48.28 L154.86,48.28 L154.86,49.34 C154.86,49.6600016 154.949999,49.9233323 155.13,50.13 C155.310001,50.3366677 155.553332,50.44 155.86,50.44 C156.166668,50.44 156.409999,50.3366677 156.59,50.13 C156.770001,49.9233323 156.86,49.6466684 156.86,49.3 L156.86,47.26 C156.86,46.6999972 156.753334,46.3333342 156.54,46.16 C156.419999,46.0533328 156.256668,45.9866668 156.05,45.96 C155.843332,45.9333332 155.573335,45.92 155.24,45.92 L155.24,44.12 Z M162.68,52.36 L162.68,40.28 L160.64,41.78 L160.64,39.62 L162.68,38.12 L164.72,38.12 L164.72,52.36 L162.68,52.36 Z" id="2017.11.30-2017.12.3" fill="#FFFFFF"></path>
                        <text id="资料审核" font-family="PingFangSC-Semibold, PingFang SC" font-size="24" font-weight="500" fill="#999999">
                            <tspan x="47" y="123">资料审核</tspan>
                        </text>
                        <path d="M40,150.36 L40,148.44 L43.68,141.5 C43.8666676,141.153332 43.9733332,140.850001 44,140.59 C44.0266668,140.329999 44.04,140.006669 44.04,139.62 C44.04,139.446666 44.0366667,139.263334 44.03,139.07 C44.0233333,138.876666 43.986667,138.706667 43.92,138.56 C43.853333,138.413333 43.753334,138.29 43.62,138.19 C43.486666,138.089999 43.2933346,138.04 43.04,138.04 C42.7333318,138.04 42.4900009,138.126666 42.31,138.3 C42.1299991,138.473334 42.04,138.726665 42.04,139.06 L42.04,140.22 L40,140.22 L40,139.1 C40,138.673331 40.0799992,138.273335 40.24,137.9 C40.4000008,137.526665 40.6199986,137.200001 40.9,136.92 C41.166668,136.639999 41.4866648,136.416667 41.86,136.25 C42.2333352,136.083332 42.6333312,136 43.06,136 C43.593336,136 44.0499981,136.096666 44.43,136.29 C44.8100019,136.483334 45.1266654,136.746665 45.38,137.08 C45.6200012,137.413335 45.7966661,137.793331 45.91,138.22 C46.0233339,138.646669 46.08,139.099998 46.08,139.58 C46.08,139.926668 46.0733334,140.216665 46.06,140.45 C46.0466666,140.683335 46.0200002,140.906666 45.98,141.12 C45.9399998,141.333334 45.8733338,141.546666 45.78,141.76 C45.6866662,141.973334 45.5600008,142.233332 45.4,142.54 L42.4,148.32 L46.08,148.32 L46.08,150.36 L40,150.36 Z M47.44,139.06 C47.44,138.579998 47.5233325,138.153335 47.69,137.78 C47.8566675,137.406665 48.0799986,137.086668 48.36,136.82 C48.6400014,136.553332 48.9633315,136.350001 49.33,136.21 C49.6966685,136.069999 50.079998,136 50.48,136 C50.880002,136 51.2633315,136.069999 51.63,136.21 C51.9966685,136.350001 52.3199986,136.553332 52.6,136.82 C52.8800014,137.086668 53.1033325,137.406665 53.27,137.78 C53.4366675,138.153335 53.52,138.579998 53.52,139.06 L53.52,147.42 C53.52,147.900002 53.4366675,148.326665 53.27,148.7 C53.1033325,149.073335 52.8800014,149.393332 52.6,149.66 C52.3199986,149.926668 51.9966685,150.129999 51.63,150.27 C51.2633315,150.410001 50.880002,150.48 50.48,150.48 C50.079998,150.48 49.6966685,150.410001 49.33,150.27 C48.9633315,150.129999 48.6400014,149.926668 48.36,149.66 C48.0799986,149.393332 47.8566675,149.073335 47.69,148.7 C47.5233325,148.326665 47.44,147.900002 47.44,147.42 L47.44,139.06 Z M49.48,147.42 C49.48,147.713335 49.5733324,147.956666 49.76,148.15 C49.9466676,148.343334 50.1866652,148.44 50.48,148.44 C50.7733348,148.44 51.0133324,148.343334 51.2,148.15 C51.3866676,147.956666 51.48,147.713335 51.48,147.42 L51.48,139.06 C51.48,138.766665 51.3866676,138.523334 51.2,138.33 C51.0133324,138.136666 50.7733348,138.04 50.48,138.04 C50.1866652,138.04 49.9466676,138.136666 49.76,138.33 C49.5733324,138.523334 49.48,138.766665 49.48,139.06 L49.48,147.42 Z M57.3,150.36 L57.3,138.28 L55.26,139.78 L55.26,137.62 L57.3,136.12 L59.34,136.12 L59.34,150.36 L57.3,150.36 Z M66.36,139.04 C66.36,138.759999 66.260001,138.523334 66.06,138.33 C65.859999,138.136666 65.626668,138.04 65.36,138.04 C65.093332,138.04 64.860001,138.136666 64.66,138.33 C64.459999,138.523334 64.36,138.759999 64.36,139.04 L64.36,141.12 C64.36,141.400001 64.459999,141.636666 64.66,141.83 C64.860001,142.023334 65.093332,142.12 65.36,142.12 C65.626668,142.12 65.859999,142.023334 66.06,141.83 C66.260001,141.636666 66.36,141.400001 66.36,141.12 L66.36,139.04 Z M62.32,139.84 C62.32,139.453331 62.3333332,139.123335 62.36,138.85 C62.3866668,138.576665 62.433333,138.340001 62.5,138.14 C62.566667,137.939999 62.6433329,137.760001 62.73,137.6 C62.8166671,137.439999 62.926666,137.273334 63.06,137.1 C63.326668,136.753332 63.659998,136.483334 64.06,136.29 C64.460002,136.096666 64.893331,136 65.36,136 C65.826669,136 66.259998,136.096666 66.66,136.29 C67.060002,136.483334 67.393332,136.753332 67.66,137.1 C67.793334,137.273334 67.9066662,137.439999 68,137.6 C68.0933338,137.760001 68.173333,137.939999 68.24,138.14 C68.306667,138.340001 68.3499999,138.576665 68.37,138.85 C68.3900001,139.123335 68.4,139.453331 68.4,139.84 C68.4,140.266669 68.3933334,140.626665 68.38,140.92 C68.3666666,141.213335 68.326667,141.473332 68.26,141.7 C68.193333,141.926668 68.0900007,142.129999 67.95,142.31 C67.8099993,142.490001 67.6200012,142.679999 67.38,142.88 C67.6200012,143.066668 67.8099993,143.253332 67.95,143.44 C68.0900007,143.626668 68.193333,143.846665 68.26,144.1 C68.326667,144.353335 68.3666666,144.663331 68.38,145.03 C68.3933334,145.396668 68.4,145.846664 68.4,146.38 C68.4,146.820002 68.3900001,147.183332 68.37,147.47 C68.3499999,147.756668 68.3200002,148.006666 68.28,148.22 C68.2399998,148.433334 68.1833337,148.613333 68.11,148.76 C68.0366663,148.906667 67.9466672,149.059999 67.84,149.22 C67.6133322,149.566668 67.2933354,149.863332 66.88,150.11 C66.4666646,150.356668 65.960003,150.48 65.36,150.48 C64.759997,150.48 64.2533354,150.356668 63.84,150.11 C63.4266646,149.863332 63.1066678,149.566668 62.88,149.22 C62.7733328,149.059999 62.6833337,148.906667 62.61,148.76 C62.5366663,148.613333 62.4800002,148.433334 62.44,148.22 C62.3999998,148.006666 62.3700001,147.756668 62.35,147.47 C62.3299999,147.183332 62.32,146.820002 62.32,146.38 C62.32,145.846664 62.3266666,145.396668 62.34,145.03 C62.3533334,144.663331 62.393333,144.353335 62.46,144.1 C62.526667,143.846665 62.6299993,143.626668 62.77,143.44 C62.9100007,143.253332 63.0999988,143.066668 63.34,142.88 C63.0999988,142.679999 62.9100007,142.490001 62.77,142.31 C62.6299993,142.129999 62.526667,141.926668 62.46,141.7 C62.393333,141.473332 62.3533334,141.213335 62.34,140.92 C62.3266666,140.626665 62.32,140.266669 62.32,139.84 Z M66.36,144.64 C66.36,144.359999 66.260001,144.123334 66.06,143.93 C65.859999,143.736666 65.626668,143.64 65.36,143.64 C65.093332,143.64 64.860001,143.736666 64.66,143.93 C64.459999,144.123334 64.36,144.359999 64.36,144.64 L64.36,147.44 C64.36,147.720001 64.459999,147.956666 64.66,148.15 C64.860001,148.343334 65.093332,148.44 65.36,148.44 C65.626668,148.44 65.859999,148.343334 66.06,148.15 C66.260001,147.956666 66.36,147.720001 66.36,147.44 L66.36,144.64 Z M69.92,150.36 L69.92,148.32 L71.96,148.32 L71.96,150.36 L69.92,150.36 Z M75.9,150.36 L75.9,138.28 L73.86,139.78 L73.86,137.62 L75.9,136.12 L77.94,136.12 L77.94,150.36 L75.9,150.36 Z M81.08,150.36 L81.08,148.32 L83.12,148.32 L83.12,150.36 L81.08,150.36 Z M87.06,150.36 L87.06,138.28 L85.02,139.78 L85.02,137.62 L87.06,136.12 L89.1,136.12 L89.1,150.36 L87.06,150.36 Z M92.28,145.84 L92.28,143.8 L98.3,143.8 L98.3,145.84 L92.28,145.84 Z M99.86,150.36 L99.86,148.44 L103.54,141.5 C103.726668,141.153332 103.833333,140.850001 103.86,140.59 C103.886667,140.329999 103.9,140.006669 103.9,139.62 C103.9,139.446666 103.896667,139.263334 103.89,139.07 C103.883333,138.876666 103.846667,138.706667 103.78,138.56 C103.713333,138.413333 103.613334,138.29 103.48,138.19 C103.346666,138.089999 103.153335,138.04 102.9,138.04 C102.593332,138.04 102.350001,138.126666 102.17,138.3 C101.989999,138.473334 101.9,138.726665 101.9,139.06 L101.9,140.22 L99.86,140.22 L99.86,139.1 C99.86,138.673331 99.9399992,138.273335 100.1,137.9 C100.260001,137.526665 100.479999,137.200001 100.76,136.92 C101.026668,136.639999 101.346665,136.416667 101.72,136.25 C102.093335,136.083332 102.493331,136 102.92,136 C103.453336,136 103.909998,136.096666 104.29,136.29 C104.670002,136.483334 104.986665,136.746665 105.24,137.08 C105.480001,137.413335 105.656666,137.793331 105.77,138.22 C105.883334,138.646669 105.94,139.099998 105.94,139.58 C105.94,139.926668 105.933333,140.216665 105.92,140.45 C105.906667,140.683335 105.88,140.906666 105.84,141.12 C105.8,141.333334 105.733334,141.546666 105.64,141.76 C105.546666,141.973334 105.420001,142.233332 105.26,142.54 L102.26,148.32 L105.94,148.32 L105.94,150.36 L99.86,150.36 Z M107.3,139.06 C107.3,138.579998 107.383332,138.153335 107.55,137.78 C107.716668,137.406665 107.939999,137.086668 108.22,136.82 C108.500001,136.553332 108.823332,136.350001 109.19,136.21 C109.556668,136.069999 109.939998,136 110.34,136 C110.740002,136 111.123332,136.069999 111.49,136.21 C111.856669,136.350001 112.179999,136.553332 112.46,136.82 C112.740001,137.086668 112.963333,137.406665 113.13,137.78 C113.296667,138.153335 113.38,138.579998 113.38,139.06 L113.38,147.42 C113.38,147.900002 113.296667,148.326665 113.13,148.7 C112.963333,149.073335 112.740001,149.393332 112.46,149.66 C112.179999,149.926668 111.856669,150.129999 111.49,150.27 C111.123332,150.410001 110.740002,150.48 110.34,150.48 C109.939998,150.48 109.556668,150.410001 109.19,150.27 C108.823332,150.129999 108.500001,149.926668 108.22,149.66 C107.939999,149.393332 107.716668,149.073335 107.55,148.7 C107.383332,148.326665 107.3,147.900002 107.3,147.42 L107.3,139.06 Z M109.34,147.42 C109.34,147.713335 109.433332,147.956666 109.62,148.15 C109.806668,148.343334 110.046665,148.44 110.34,148.44 C110.633335,148.44 110.873332,148.343334 111.06,148.15 C111.246668,147.956666 111.34,147.713335 111.34,147.42 L111.34,139.06 C111.34,138.766665 111.246668,138.523334 111.06,138.33 C110.873332,138.136666 110.633335,138.04 110.34,138.04 C110.046665,138.04 109.806668,138.136666 109.62,138.33 C109.433332,138.523334 109.34,138.766665 109.34,139.06 L109.34,147.42 Z M117.16,150.36 L117.16,138.28 L115.12,139.78 L115.12,137.62 L117.16,136.12 L119.2,136.12 L119.2,150.36 L117.16,150.36 Z M126.22,139.04 C126.22,138.759999 126.120001,138.523334 125.92,138.33 C125.719999,138.136666 125.486668,138.04 125.22,138.04 C124.953332,138.04 124.720001,138.136666 124.52,138.33 C124.319999,138.523334 124.22,138.759999 124.22,139.04 L124.22,141.12 C124.22,141.400001 124.319999,141.636666 124.52,141.83 C124.720001,142.023334 124.953332,142.12 125.22,142.12 C125.486668,142.12 125.719999,142.023334 125.92,141.83 C126.120001,141.636666 126.22,141.400001 126.22,141.12 L126.22,139.04 Z M122.18,139.84 C122.18,139.453331 122.193333,139.123335 122.22,138.85 C122.246667,138.576665 122.293333,138.340001 122.36,138.14 C122.426667,137.939999 122.503333,137.760001 122.59,137.6 C122.676667,137.439999 122.786666,137.273334 122.92,137.1 C123.186668,136.753332 123.519998,136.483334 123.92,136.29 C124.320002,136.096666 124.753331,136 125.22,136 C125.686669,136 126.119998,136.096666 126.52,136.29 C126.920002,136.483334 127.253332,136.753332 127.52,137.1 C127.653334,137.273334 127.766666,137.439999 127.86,137.6 C127.953334,137.760001 128.033333,137.939999 128.1,138.14 C128.166667,138.340001 128.21,138.576665 128.23,138.85 C128.25,139.123335 128.26,139.453331 128.26,139.84 C128.26,140.266669 128.253333,140.626665 128.24,140.92 C128.226667,141.213335 128.186667,141.473332 128.12,141.7 C128.053333,141.926668 127.950001,142.129999 127.81,142.31 C127.669999,142.490001 127.480001,142.679999 127.24,142.88 C127.480001,143.066668 127.669999,143.253332 127.81,143.44 C127.950001,143.626668 128.053333,143.846665 128.12,144.1 C128.186667,144.353335 128.226667,144.663331 128.24,145.03 C128.253333,145.396668 128.26,145.846664 128.26,146.38 C128.26,146.820002 128.25,147.183332 128.23,147.47 C128.21,147.756668 128.18,148.006666 128.14,148.22 C128.1,148.433334 128.043334,148.613333 127.97,148.76 C127.896666,148.906667 127.806667,149.059999 127.7,149.22 C127.473332,149.566668 127.153335,149.863332 126.74,150.11 C126.326665,150.356668 125.820003,150.48 125.22,150.48 C124.619997,150.48 124.113335,150.356668 123.7,150.11 C123.286665,149.863332 122.966668,149.566668 122.74,149.22 C122.633333,149.059999 122.543334,148.906667 122.47,148.76 C122.396666,148.613333 122.34,148.433334 122.3,148.22 C122.26,148.006666 122.23,147.756668 122.21,147.47 C122.19,147.183332 122.18,146.820002 122.18,146.38 C122.18,145.846664 122.186667,145.396668 122.2,145.03 C122.213333,144.663331 122.253333,144.353335 122.32,144.1 C122.386667,143.846665 122.489999,143.626668 122.63,143.44 C122.770001,143.253332 122.959999,143.066668 123.2,142.88 C122.959999,142.679999 122.770001,142.490001 122.63,142.31 C122.489999,142.129999 122.386667,141.926668 122.32,141.7 C122.253333,141.473332 122.213333,141.213335 122.2,140.92 C122.186667,140.626665 122.18,140.266669 122.18,139.84 Z M126.22,144.64 C126.22,144.359999 126.120001,144.123334 125.92,143.93 C125.719999,143.736666 125.486668,143.64 125.22,143.64 C124.953332,143.64 124.720001,143.736666 124.52,143.93 C124.319999,144.123334 124.22,144.359999 124.22,144.64 L124.22,147.44 C124.22,147.720001 124.319999,147.956666 124.52,148.15 C124.720001,148.343334 124.953332,148.44 125.22,148.44 C125.486668,148.44 125.719999,148.343334 125.92,148.15 C126.120001,147.956666 126.22,147.720001 126.22,147.44 L126.22,144.64 Z M129.78,150.36 L129.78,148.32 L131.82,148.32 L131.82,150.36 L129.78,150.36 Z M135.76,150.36 L135.76,138.28 L133.72,139.78 L133.72,137.62 L135.76,136.12 L137.8,136.12 L137.8,150.36 L135.76,150.36 Z M140.94,150.36 L140.94,148.32 L142.98,148.32 L142.98,150.36 L140.94,150.36 Z M146.92,142.12 C147.533336,142.12 147.956665,142.046667 148.19,141.9 C148.423334,141.753333 148.54,141.413336 148.54,140.88 L148.54,139.04 C148.54,138.746665 148.450001,138.506668 148.27,138.32 C148.089999,138.133332 147.846668,138.04 147.54,138.04 C147.179998,138.04 146.923334,138.153332 146.77,138.38 C146.616666,138.606668 146.54,138.826666 146.54,139.04 L146.54,140.2 L144.5,140.2 L144.5,139.02 C144.5,138.606665 144.579999,138.213335 144.74,137.84 C144.900001,137.466665 145.119999,137.146668 145.4,136.88 C145.680001,136.613332 146.006665,136.400001 146.38,136.24 C146.753335,136.079999 147.153331,136 147.58,136 C148.140003,136 148.603331,136.109999 148.97,136.33 C149.336668,136.550001 149.613332,136.773332 149.8,137 C149.933334,137.160001 150.049999,137.319999 150.15,137.48 C150.25,137.640001 150.333333,137.833332 150.4,138.06 C150.520001,138.500002 150.58,139.153329 150.58,140.02 C150.58,140.513336 150.57,140.913332 150.55,141.22 C150.53,141.526668 150.48,141.779999 150.4,141.98 C150.306666,142.193334 150.176667,142.373333 150.01,142.52 C149.843332,142.666667 149.613335,142.826666 149.32,143 C149.640002,143.200001 149.883332,143.386666 150.05,143.56 C150.216667,143.733334 150.34,143.933332 150.42,144.16 C150.5,144.400001 150.546667,144.683332 150.56,145.01 C150.573333,145.336668 150.58,145.753331 150.58,146.26 C150.58,146.726669 150.57,147.113332 150.55,147.42 C150.53,147.726668 150.5,147.979999 150.46,148.18 C150.42,148.393334 150.366667,148.573333 150.3,148.72 C150.233333,148.866667 150.146667,149.019999 150.04,149.18 C149.786665,149.553335 149.463335,149.863332 149.07,150.11 C148.676665,150.356668 148.160003,150.48 147.52,150.48 C147.199998,150.48 146.860002,150.426667 146.5,150.32 C146.139998,150.213333 145.813335,150.040001 145.52,149.8 C145.226665,149.559999 144.983334,149.246669 144.79,148.86 C144.596666,148.473331 144.5,148.000003 144.5,147.44 L144.5,146.28 L146.54,146.28 L146.54,147.34 C146.54,147.660002 146.629999,147.923332 146.81,148.13 C146.990001,148.336668 147.233332,148.44 147.54,148.44 C147.846668,148.44 148.089999,148.336668 148.27,148.13 C148.450001,147.923332 148.54,147.646668 148.54,147.3 L148.54,145.26 C148.54,144.699997 148.433334,144.333334 148.22,144.16 C148.099999,144.053333 147.936668,143.986667 147.73,143.96 C147.523332,143.933333 147.253335,143.92 146.92,143.92 L146.92,142.12 Z" id="2018.1.1-2018.1.3" fill="#999999"></path>
                        <text id="大众投票" font-family="PingFangSC-Semibold, PingFang SC" font-size="24" font-weight="500" fill="#999999">
                            <tspan x="47" y="221">大众投票</tspan>
                        </text>
                        <path d="M36,248.36 L36,246.44 L39.68,239.5 C39.8666676,239.153332 39.9733332,238.850001 40,238.59 C40.0266668,238.329999 40.04,238.006669 40.04,237.62 C40.04,237.446666 40.0366667,237.263334 40.03,237.07 C40.0233333,236.876666 39.986667,236.706667 39.92,236.56 C39.853333,236.413333 39.753334,236.29 39.62,236.19 C39.486666,236.089999 39.2933346,236.04 39.04,236.04 C38.7333318,236.04 38.4900009,236.126666 38.31,236.3 C38.1299991,236.473334 38.04,236.726665 38.04,237.06 L38.04,238.22 L36,238.22 L36,237.1 C36,236.673331 36.0799992,236.273335 36.24,235.9 C36.4000008,235.526665 36.6199986,235.200001 36.9,234.92 C37.166668,234.639999 37.4866648,234.416667 37.86,234.25 C38.2333352,234.083332 38.6333312,234 39.06,234 C39.593336,234 40.0499981,234.096666 40.43,234.29 C40.8100019,234.483334 41.1266654,234.746665 41.38,235.08 C41.6200012,235.413335 41.7966661,235.793331 41.91,236.22 C42.0233339,236.646669 42.08,237.099998 42.08,237.58 C42.08,237.926668 42.0733334,238.216665 42.06,238.45 C42.0466666,238.683335 42.0200002,238.906666 41.98,239.12 C41.9399998,239.333334 41.8733338,239.546666 41.78,239.76 C41.6866662,239.973334 41.5600008,240.233332 41.4,240.54 L38.4,246.32 L42.08,246.32 L42.08,248.36 L36,248.36 Z M43.44,237.06 C43.44,236.579998 43.5233325,236.153335 43.69,235.78 C43.8566675,235.406665 44.0799986,235.086668 44.36,234.82 C44.6400014,234.553332 44.9633315,234.350001 45.33,234.21 C45.6966685,234.069999 46.079998,234 46.48,234 C46.880002,234 47.2633315,234.069999 47.63,234.21 C47.9966685,234.350001 48.3199986,234.553332 48.6,234.82 C48.8800014,235.086668 49.1033325,235.406665 49.27,235.78 C49.4366675,236.153335 49.52,236.579998 49.52,237.06 L49.52,245.42 C49.52,245.900002 49.4366675,246.326665 49.27,246.7 C49.1033325,247.073335 48.8800014,247.393332 48.6,247.66 C48.3199986,247.926668 47.9966685,248.129999 47.63,248.27 C47.2633315,248.410001 46.880002,248.48 46.48,248.48 C46.079998,248.48 45.6966685,248.410001 45.33,248.27 C44.9633315,248.129999 44.6400014,247.926668 44.36,247.66 C44.0799986,247.393332 43.8566675,247.073335 43.69,246.7 C43.5233325,246.326665 43.44,245.900002 43.44,245.42 L43.44,237.06 Z M45.48,245.42 C45.48,245.713335 45.5733324,245.956666 45.76,246.15 C45.9466676,246.343334 46.1866652,246.44 46.48,246.44 C46.7733348,246.44 47.0133324,246.343334 47.2,246.15 C47.3866676,245.956666 47.48,245.713335 47.48,245.42 L47.48,237.06 C47.48,236.766665 47.3866676,236.523334 47.2,236.33 C47.0133324,236.136666 46.7733348,236.04 46.48,236.04 C46.1866652,236.04 45.9466676,236.136666 45.76,236.33 C45.5733324,236.523334 45.48,236.766665 45.48,237.06 L45.48,245.42 Z M53.3,248.36 L53.3,236.28 L51.26,237.78 L51.26,235.62 L53.3,234.12 L55.34,234.12 L55.34,248.36 L53.3,248.36 Z M62.36,237.04 C62.36,236.759999 62.260001,236.523334 62.06,236.33 C61.859999,236.136666 61.626668,236.04 61.36,236.04 C61.093332,236.04 60.860001,236.136666 60.66,236.33 C60.459999,236.523334 60.36,236.759999 60.36,237.04 L60.36,239.12 C60.36,239.400001 60.459999,239.636666 60.66,239.83 C60.860001,240.023334 61.093332,240.12 61.36,240.12 C61.626668,240.12 61.859999,240.023334 62.06,239.83 C62.260001,239.636666 62.36,239.400001 62.36,239.12 L62.36,237.04 Z M58.32,237.84 C58.32,237.453331 58.3333332,237.123335 58.36,236.85 C58.3866668,236.576665 58.433333,236.340001 58.5,236.14 C58.566667,235.939999 58.6433329,235.760001 58.73,235.6 C58.8166671,235.439999 58.926666,235.273334 59.06,235.1 C59.326668,234.753332 59.659998,234.483334 60.06,234.29 C60.460002,234.096666 60.893331,234 61.36,234 C61.826669,234 62.259998,234.096666 62.66,234.29 C63.060002,234.483334 63.393332,234.753332 63.66,235.1 C63.793334,235.273334 63.9066662,235.439999 64,235.6 C64.0933338,235.760001 64.173333,235.939999 64.24,236.14 C64.306667,236.340001 64.3499999,236.576665 64.37,236.85 C64.3900001,237.123335 64.4,237.453331 64.4,237.84 C64.4,238.266669 64.3933334,238.626665 64.38,238.92 C64.3666666,239.213335 64.326667,239.473332 64.26,239.7 C64.193333,239.926668 64.0900007,240.129999 63.95,240.31 C63.8099993,240.490001 63.6200012,240.679999 63.38,240.88 C63.6200012,241.066668 63.8099993,241.253332 63.95,241.44 C64.0900007,241.626668 64.193333,241.846665 64.26,242.1 C64.326667,242.353335 64.3666666,242.663331 64.38,243.03 C64.3933334,243.396668 64.4,243.846664 64.4,244.38 C64.4,244.820002 64.3900001,245.183332 64.37,245.47 C64.3499999,245.756668 64.3200002,246.006666 64.28,246.22 C64.2399998,246.433334 64.1833337,246.613333 64.11,246.76 C64.0366663,246.906667 63.9466672,247.059999 63.84,247.22 C63.6133322,247.566668 63.2933354,247.863332 62.88,248.11 C62.4666646,248.356668 61.960003,248.48 61.36,248.48 C60.759997,248.48 60.2533354,248.356668 59.84,248.11 C59.4266646,247.863332 59.1066678,247.566668 58.88,247.22 C58.7733328,247.059999 58.6833337,246.906667 58.61,246.76 C58.5366663,246.613333 58.4800002,246.433334 58.44,246.22 C58.3999998,246.006666 58.3700001,245.756668 58.35,245.47 C58.3299999,245.183332 58.32,244.820002 58.32,244.38 C58.32,243.846664 58.3266666,243.396668 58.34,243.03 C58.3533334,242.663331 58.393333,242.353335 58.46,242.1 C58.526667,241.846665 58.6299993,241.626668 58.77,241.44 C58.9100007,241.253332 59.0999988,241.066668 59.34,240.88 C59.0999988,240.679999 58.9100007,240.490001 58.77,240.31 C58.6299993,240.129999 58.526667,239.926668 58.46,239.7 C58.393333,239.473332 58.3533334,239.213335 58.34,238.92 C58.3266666,238.626665 58.32,238.266669 58.32,237.84 Z M62.36,242.64 C62.36,242.359999 62.260001,242.123334 62.06,241.93 C61.859999,241.736666 61.626668,241.64 61.36,241.64 C61.093332,241.64 60.860001,241.736666 60.66,241.93 C60.459999,242.123334 60.36,242.359999 60.36,242.64 L60.36,245.44 C60.36,245.720001 60.459999,245.956666 60.66,246.15 C60.860001,246.343334 61.093332,246.44 61.36,246.44 C61.626668,246.44 61.859999,246.343334 62.06,246.15 C62.260001,245.956666 62.36,245.720001 62.36,245.44 L62.36,242.64 Z M65.92,248.36 L65.92,246.32 L67.96,246.32 L67.96,248.36 L65.92,248.36 Z M71.9,248.36 L71.9,236.28 L69.86,237.78 L69.86,235.62 L71.9,234.12 L73.94,234.12 L73.94,248.36 L71.9,248.36 Z M77.08,248.36 L77.08,246.32 L79.12,246.32 L79.12,248.36 L77.08,248.36 Z M84.2,248.36 L84.2,246.24 L80.14,246.24 L80.14,244.32 L83.08,234.12 L85.24,234.12 L82.18,244.32 L84.2,244.32 L84.2,240.26 L86.24,240.26 L86.24,244.32 L87.22,244.32 L87.22,246.24 L86.24,246.24 L86.24,248.36 L84.2,248.36 Z M88.28,243.84 L88.28,241.8 L94.3,241.8 L94.3,243.84 L88.28,243.84 Z M95.86,248.36 L95.86,246.44 L99.54,239.5 C99.7266676,239.153332 99.8333332,238.850001 99.86,238.59 C99.8866668,238.329999 99.9,238.006669 99.9,237.62 C99.9,237.446666 99.8966667,237.263334 99.89,237.07 C99.8833333,236.876666 99.846667,236.706667 99.78,236.56 C99.713333,236.413333 99.613334,236.29 99.48,236.19 C99.346666,236.089999 99.1533346,236.04 98.9,236.04 C98.5933318,236.04 98.3500009,236.126666 98.17,236.3 C97.9899991,236.473334 97.9,236.726665 97.9,237.06 L97.9,238.22 L95.86,238.22 L95.86,237.1 C95.86,236.673331 95.9399992,236.273335 96.1,235.9 C96.2600008,235.526665 96.4799986,235.200001 96.76,234.92 C97.026668,234.639999 97.3466648,234.416667 97.72,234.25 C98.0933352,234.083332 98.4933312,234 98.92,234 C99.453336,234 99.9099981,234.096666 100.29,234.29 C100.670002,234.483334 100.986665,234.746665 101.24,235.08 C101.480001,235.413335 101.656666,235.793331 101.77,236.22 C101.883334,236.646669 101.94,237.099998 101.94,237.58 C101.94,237.926668 101.933333,238.216665 101.92,238.45 C101.906667,238.683335 101.88,238.906666 101.84,239.12 C101.8,239.333334 101.733334,239.546666 101.64,239.76 C101.546666,239.973334 101.420001,240.233332 101.26,240.54 L98.26,246.32 L101.94,246.32 L101.94,248.36 L95.86,248.36 Z M103.3,237.06 C103.3,236.579998 103.383333,236.153335 103.55,235.78 C103.716668,235.406665 103.939999,235.086668 104.22,234.82 C104.500001,234.553332 104.823332,234.350001 105.19,234.21 C105.556669,234.069999 105.939998,234 106.34,234 C106.740002,234 107.123332,234.069999 107.49,234.21 C107.856669,234.350001 108.179999,234.553332 108.46,234.82 C108.740001,235.086668 108.963333,235.406665 109.13,235.78 C109.296668,236.153335 109.38,236.579998 109.38,237.06 L109.38,245.42 C109.38,245.900002 109.296668,246.326665 109.13,246.7 C108.963333,247.073335 108.740001,247.393332 108.46,247.66 C108.179999,247.926668 107.856669,248.129999 107.49,248.27 C107.123332,248.410001 106.740002,248.48 106.34,248.48 C105.939998,248.48 105.556669,248.410001 105.19,248.27 C104.823332,248.129999 104.500001,247.926668 104.22,247.66 C103.939999,247.393332 103.716668,247.073335 103.55,246.7 C103.383333,246.326665 103.3,245.900002 103.3,245.42 L103.3,237.06 Z M105.34,245.42 C105.34,245.713335 105.433332,245.956666 105.62,246.15 C105.806668,246.343334 106.046665,246.44 106.34,246.44 C106.633335,246.44 106.873332,246.343334 107.06,246.15 C107.246668,245.956666 107.34,245.713335 107.34,245.42 L107.34,237.06 C107.34,236.766665 107.246668,236.523334 107.06,236.33 C106.873332,236.136666 106.633335,236.04 106.34,236.04 C106.046665,236.04 105.806668,236.136666 105.62,236.33 C105.433332,236.523334 105.34,236.766665 105.34,237.06 L105.34,245.42 Z M113.16,248.36 L113.16,236.28 L111.12,237.78 L111.12,235.62 L113.16,234.12 L115.2,234.12 L115.2,248.36 L113.16,248.36 Z M122.22,237.04 C122.22,236.759999 122.120001,236.523334 121.92,236.33 C121.719999,236.136666 121.486668,236.04 121.22,236.04 C120.953332,236.04 120.720001,236.136666 120.52,236.33 C120.319999,236.523334 120.22,236.759999 120.22,237.04 L120.22,239.12 C120.22,239.400001 120.319999,239.636666 120.52,239.83 C120.720001,240.023334 120.953332,240.12 121.22,240.12 C121.486668,240.12 121.719999,240.023334 121.92,239.83 C122.120001,239.636666 122.22,239.400001 122.22,239.12 L122.22,237.04 Z M118.18,237.84 C118.18,237.453331 118.193333,237.123335 118.22,236.85 C118.246667,236.576665 118.293333,236.340001 118.36,236.14 C118.426667,235.939999 118.503333,235.760001 118.59,235.6 C118.676667,235.439999 118.786666,235.273334 118.92,235.1 C119.186668,234.753332 119.519998,234.483334 119.92,234.29 C120.320002,234.096666 120.753331,234 121.22,234 C121.686669,234 122.119998,234.096666 122.52,234.29 C122.920002,234.483334 123.253332,234.753332 123.52,235.1 C123.653334,235.273334 123.766666,235.439999 123.86,235.6 C123.953334,235.760001 124.033333,235.939999 124.1,236.14 C124.166667,236.340001 124.21,236.576665 124.23,236.85 C124.25,237.123335 124.26,237.453331 124.26,237.84 C124.26,238.266669 124.253333,238.626665 124.24,238.92 C124.226667,239.213335 124.186667,239.473332 124.12,239.7 C124.053333,239.926668 123.950001,240.129999 123.81,240.31 C123.669999,240.490001 123.480001,240.679999 123.24,240.88 C123.480001,241.066668 123.669999,241.253332 123.81,241.44 C123.950001,241.626668 124.053333,241.846665 124.12,242.1 C124.186667,242.353335 124.226667,242.663331 124.24,243.03 C124.253333,243.396668 124.26,243.846664 124.26,244.38 C124.26,244.820002 124.25,245.183332 124.23,245.47 C124.21,245.756668 124.18,246.006666 124.14,246.22 C124.1,246.433334 124.043334,246.613333 123.97,246.76 C123.896666,246.906667 123.806667,247.059999 123.7,247.22 C123.473332,247.566668 123.153335,247.863332 122.74,248.11 C122.326665,248.356668 121.820003,248.48 121.22,248.48 C120.619997,248.48 120.113335,248.356668 119.7,248.11 C119.286665,247.863332 118.966668,247.566668 118.74,247.22 C118.633333,247.059999 118.543334,246.906667 118.47,246.76 C118.396666,246.613333 118.34,246.433334 118.3,246.22 C118.26,246.006666 118.23,245.756668 118.21,245.47 C118.19,245.183332 118.18,244.820002 118.18,244.38 C118.18,243.846664 118.186667,243.396668 118.2,243.03 C118.213333,242.663331 118.253333,242.353335 118.32,242.1 C118.386667,241.846665 118.489999,241.626668 118.63,241.44 C118.770001,241.253332 118.959999,241.066668 119.2,240.88 C118.959999,240.679999 118.770001,240.490001 118.63,240.31 C118.489999,240.129999 118.386667,239.926668 118.32,239.7 C118.253333,239.473332 118.213333,239.213335 118.2,238.92 C118.186667,238.626665 118.18,238.266669 118.18,237.84 Z M122.22,242.64 C122.22,242.359999 122.120001,242.123334 121.92,241.93 C121.719999,241.736666 121.486668,241.64 121.22,241.64 C120.953332,241.64 120.720001,241.736666 120.52,241.93 C120.319999,242.123334 120.22,242.359999 120.22,242.64 L120.22,245.44 C120.22,245.720001 120.319999,245.956666 120.52,246.15 C120.720001,246.343334 120.953332,246.44 121.22,246.44 C121.486668,246.44 121.719999,246.343334 121.92,246.15 C122.120001,245.956666 122.22,245.720001 122.22,245.44 L122.22,242.64 Z M125.78,248.36 L125.78,246.32 L127.82,246.32 L127.82,248.36 L125.78,248.36 Z M131.76,248.36 L131.76,236.28 L129.72,237.78 L129.72,235.62 L131.76,234.12 L133.8,234.12 L133.8,248.36 L131.76,248.36 Z M136.94,248.36 L136.94,246.32 L138.98,246.32 L138.98,248.36 L136.94,248.36 Z M142.92,248.36 L142.92,236.28 L140.88,237.78 L140.88,235.62 L142.92,234.12 L144.96,234.12 L144.96,248.36 L142.92,248.36 Z M148.68,248.36 L151,242.38 L150.96,242.34 C150.893333,242.393334 150.790001,242.436667 150.65,242.47 C150.509999,242.503333 150.326668,242.52 150.1,242.52 C149.739998,242.52 149.406668,242.433334 149.1,242.26 C148.793332,242.086666 148.553334,241.866668 148.38,241.6 C148.286666,241.466666 148.213334,241.323334 148.16,241.17 C148.106666,241.016666 148.066667,240.820001 148.04,240.58 C148,240.339999 147.973333,240.036668 147.96,239.67 C147.946667,239.303332 147.94,238.840003 147.94,238.28 C147.94,237.813331 147.946667,237.430001 147.96,237.13 C147.973333,236.829998 148,236.573334 148.04,236.36 C148.066667,236.159999 148.11,235.986667 148.17,235.84 C148.23,235.693333 148.306666,235.540001 148.4,235.38 C148.666668,234.939998 149.023331,234.600001 149.47,234.36 C149.916669,234.119999 150.419997,234 150.98,234 C151.540003,234 152.039998,234.123332 152.48,234.37 C152.920002,234.616668 153.273332,234.953331 153.54,235.38 C153.633334,235.540001 153.713333,235.693333 153.78,235.84 C153.846667,235.986667 153.9,236.159999 153.94,236.36 C153.966667,236.573334 153.986667,236.829998 154,237.13 C154.013333,237.430001 154.02,237.813331 154.02,238.28 C154.02,238.720002 154.013333,239.083332 154,239.37 C153.986667,239.656668 153.966667,239.899999 153.94,240.1 C153.9,240.313334 153.856667,240.503332 153.81,240.67 C153.763333,240.836667 153.706667,241.013332 153.64,241.2 L150.96,248.36 L148.68,248.36 Z M149.98,239.7 C149.98,240.006668 150.079999,240.253332 150.28,240.44 C150.480001,240.626668 150.713332,240.72 150.98,240.72 C151.246668,240.72 151.479999,240.626668 151.68,240.44 C151.880001,240.253332 151.98,240.006668 151.98,239.7 L151.98,237.06 C151.98,236.753332 151.880001,236.506668 151.68,236.32 C151.479999,236.133332 151.246668,236.04 150.98,236.04 C150.713332,236.04 150.480001,236.133332 150.28,236.32 C150.079999,236.506668 149.98,236.753332 149.98,237.06 L149.98,239.7 Z" id="2018.1.4-2018.1.19" fill="#999999"></path>
                        <path d="M33,346.36 L33,344.44 L36.68,337.5 C36.8666676,337.153332 36.9733332,336.850001 37,336.59 C37.0266668,336.329999 37.04,336.006669 37.04,335.62 C37.04,335.446666 37.0366667,335.263334 37.03,335.07 C37.0233333,334.876666 36.986667,334.706667 36.92,334.56 C36.853333,334.413333 36.753334,334.29 36.62,334.19 C36.486666,334.089999 36.2933346,334.04 36.04,334.04 C35.7333318,334.04 35.4900009,334.126666 35.31,334.3 C35.1299991,334.473334 35.04,334.726665 35.04,335.06 L35.04,336.22 L33,336.22 L33,335.1 C33,334.673331 33.0799992,334.273335 33.24,333.9 C33.4000008,333.526665 33.6199986,333.200001 33.9,332.92 C34.166668,332.639999 34.4866648,332.416667 34.86,332.25 C35.2333352,332.083332 35.6333312,332 36.06,332 C36.593336,332 37.0499981,332.096666 37.43,332.29 C37.8100019,332.483334 38.1266654,332.746665 38.38,333.08 C38.6200012,333.413335 38.7966661,333.793331 38.91,334.22 C39.0233339,334.646669 39.08,335.099998 39.08,335.58 C39.08,335.926668 39.0733334,336.216665 39.06,336.45 C39.0466666,336.683335 39.0200002,336.906666 38.98,337.12 C38.9399998,337.333334 38.8733338,337.546666 38.78,337.76 C38.6866662,337.973334 38.5600008,338.233332 38.4,338.54 L35.4,344.32 L39.08,344.32 L39.08,346.36 L33,346.36 Z M40.44,335.06 C40.44,334.579998 40.5233325,334.153335 40.69,333.78 C40.8566675,333.406665 41.0799986,333.086668 41.36,332.82 C41.6400014,332.553332 41.9633315,332.350001 42.33,332.21 C42.6966685,332.069999 43.079998,332 43.48,332 C43.880002,332 44.2633315,332.069999 44.63,332.21 C44.9966685,332.350001 45.3199986,332.553332 45.6,332.82 C45.8800014,333.086668 46.1033325,333.406665 46.27,333.78 C46.4366675,334.153335 46.52,334.579998 46.52,335.06 L46.52,343.42 C46.52,343.900002 46.4366675,344.326665 46.27,344.7 C46.1033325,345.073335 45.8800014,345.393332 45.6,345.66 C45.3199986,345.926668 44.9966685,346.129999 44.63,346.27 C44.2633315,346.410001 43.880002,346.48 43.48,346.48 C43.079998,346.48 42.6966685,346.410001 42.33,346.27 C41.9633315,346.129999 41.6400014,345.926668 41.36,345.66 C41.0799986,345.393332 40.8566675,345.073335 40.69,344.7 C40.5233325,344.326665 40.44,343.900002 40.44,343.42 L40.44,335.06 Z M42.48,343.42 C42.48,343.713335 42.5733324,343.956666 42.76,344.15 C42.9466676,344.343334 43.1866652,344.44 43.48,344.44 C43.7733348,344.44 44.0133324,344.343334 44.2,344.15 C44.3866676,343.956666 44.48,343.713335 44.48,343.42 L44.48,335.06 C44.48,334.766665 44.3866676,334.523334 44.2,334.33 C44.0133324,334.136666 43.7733348,334.04 43.48,334.04 C43.1866652,334.04 42.9466676,334.136666 42.76,334.33 C42.5733324,334.523334 42.48,334.766665 42.48,335.06 L42.48,343.42 Z M50.3,346.36 L50.3,334.28 L48.26,335.78 L48.26,333.62 L50.3,332.12 L52.34,332.12 L52.34,346.36 L50.3,346.36 Z M59.36,335.04 C59.36,334.759999 59.260001,334.523334 59.06,334.33 C58.859999,334.136666 58.626668,334.04 58.36,334.04 C58.093332,334.04 57.860001,334.136666 57.66,334.33 C57.459999,334.523334 57.36,334.759999 57.36,335.04 L57.36,337.12 C57.36,337.400001 57.459999,337.636666 57.66,337.83 C57.860001,338.023334 58.093332,338.12 58.36,338.12 C58.626668,338.12 58.859999,338.023334 59.06,337.83 C59.260001,337.636666 59.36,337.400001 59.36,337.12 L59.36,335.04 Z M55.32,335.84 C55.32,335.453331 55.3333332,335.123335 55.36,334.85 C55.3866668,334.576665 55.433333,334.340001 55.5,334.14 C55.566667,333.939999 55.6433329,333.760001 55.73,333.6 C55.8166671,333.439999 55.926666,333.273334 56.06,333.1 C56.326668,332.753332 56.659998,332.483334 57.06,332.29 C57.460002,332.096666 57.893331,332 58.36,332 C58.826669,332 59.259998,332.096666 59.66,332.29 C60.060002,332.483334 60.393332,332.753332 60.66,333.1 C60.793334,333.273334 60.9066662,333.439999 61,333.6 C61.0933338,333.760001 61.173333,333.939999 61.24,334.14 C61.306667,334.340001 61.3499999,334.576665 61.37,334.85 C61.3900001,335.123335 61.4,335.453331 61.4,335.84 C61.4,336.266669 61.3933334,336.626665 61.38,336.92 C61.3666666,337.213335 61.326667,337.473332 61.26,337.7 C61.193333,337.926668 61.0900007,338.129999 60.95,338.31 C60.8099993,338.490001 60.6200012,338.679999 60.38,338.88 C60.6200012,339.066668 60.8099993,339.253332 60.95,339.44 C61.0900007,339.626668 61.193333,339.846665 61.26,340.1 C61.326667,340.353335 61.3666666,340.663331 61.38,341.03 C61.3933334,341.396668 61.4,341.846664 61.4,342.38 C61.4,342.820002 61.3900001,343.183332 61.37,343.47 C61.3499999,343.756668 61.3200002,344.006666 61.28,344.22 C61.2399998,344.433334 61.1833337,344.613333 61.11,344.76 C61.0366663,344.906667 60.9466672,345.059999 60.84,345.22 C60.6133322,345.566668 60.2933354,345.863332 59.88,346.11 C59.4666646,346.356668 58.960003,346.48 58.36,346.48 C57.759997,346.48 57.2533354,346.356668 56.84,346.11 C56.4266646,345.863332 56.1066678,345.566668 55.88,345.22 C55.7733328,345.059999 55.6833337,344.906667 55.61,344.76 C55.5366663,344.613333 55.4800002,344.433334 55.44,344.22 C55.3999998,344.006666 55.3700001,343.756668 55.35,343.47 C55.3299999,343.183332 55.32,342.820002 55.32,342.38 C55.32,341.846664 55.3266666,341.396668 55.34,341.03 C55.3533334,340.663331 55.393333,340.353335 55.46,340.1 C55.526667,339.846665 55.6299993,339.626668 55.77,339.44 C55.9100007,339.253332 56.0999988,339.066668 56.34,338.88 C56.0999988,338.679999 55.9100007,338.490001 55.77,338.31 C55.6299993,338.129999 55.526667,337.926668 55.46,337.7 C55.393333,337.473332 55.3533334,337.213335 55.34,336.92 C55.3266666,336.626665 55.32,336.266669 55.32,335.84 Z M59.36,340.64 C59.36,340.359999 59.260001,340.123334 59.06,339.93 C58.859999,339.736666 58.626668,339.64 58.36,339.64 C58.093332,339.64 57.860001,339.736666 57.66,339.93 C57.459999,340.123334 57.36,340.359999 57.36,340.64 L57.36,343.44 C57.36,343.720001 57.459999,343.956666 57.66,344.15 C57.860001,344.343334 58.093332,344.44 58.36,344.44 C58.626668,344.44 58.859999,344.343334 59.06,344.15 C59.260001,343.956666 59.36,343.720001 59.36,343.44 L59.36,340.64 Z M62.92,346.36 L62.92,344.32 L64.96,344.32 L64.96,346.36 L62.92,346.36 Z M68.9,346.36 L68.9,334.28 L66.86,335.78 L66.86,333.62 L68.9,332.12 L70.94,332.12 L70.94,346.36 L68.9,346.36 Z M74.08,346.36 L74.08,344.32 L76.12,344.32 L76.12,346.36 L74.08,346.36 Z M77.64,346.36 L77.64,344.44 L81.32,337.5 C81.5066676,337.153332 81.6133332,336.850001 81.64,336.59 C81.6666668,336.329999 81.68,336.006669 81.68,335.62 C81.68,335.446666 81.6766667,335.263334 81.67,335.07 C81.6633333,334.876666 81.626667,334.706667 81.56,334.56 C81.493333,334.413333 81.393334,334.29 81.26,334.19 C81.126666,334.089999 80.9333346,334.04 80.68,334.04 C80.3733318,334.04 80.1300009,334.126666 79.95,334.3 C79.7699991,334.473334 79.68,334.726665 79.68,335.06 L79.68,336.22 L77.64,336.22 L77.64,335.1 C77.64,334.673331 77.7199992,334.273335 77.88,333.9 C78.0400008,333.526665 78.2599986,333.200001 78.54,332.92 C78.806668,332.639999 79.1266648,332.416667 79.5,332.25 C79.8733352,332.083332 80.2733312,332 80.7,332 C81.233336,332 81.6899981,332.096666 82.07,332.29 C82.4500019,332.483334 82.7666654,332.746665 83.02,333.08 C83.2600012,333.413335 83.4366661,333.793331 83.55,334.22 C83.6633339,334.646669 83.72,335.099998 83.72,335.58 C83.72,335.926668 83.7133334,336.216665 83.7,336.45 C83.6866666,336.683335 83.6600002,336.906666 83.62,337.12 C83.5799998,337.333334 83.5133338,337.546666 83.42,337.76 C83.3266662,337.973334 83.2000008,338.233332 83.04,338.54 L80.04,344.32 L83.72,344.32 L83.72,346.36 L77.64,346.36 Z M85.08,335.06 C85.08,334.579998 85.1633325,334.153335 85.33,333.78 C85.4966675,333.406665 85.7199986,333.086668 86,332.82 C86.2800014,332.553332 86.6033315,332.350001 86.97,332.21 C87.3366685,332.069999 87.719998,332 88.12,332 C88.520002,332 88.9033315,332.069999 89.27,332.21 C89.6366685,332.350001 89.9599986,332.553332 90.24,332.82 C90.5200014,333.086668 90.7433325,333.406665 90.91,333.78 C91.0766675,334.153335 91.16,334.579998 91.16,335.06 L91.16,343.42 C91.16,343.900002 91.0766675,344.326665 90.91,344.7 C90.7433325,345.073335 90.5200014,345.393332 90.24,345.66 C89.9599986,345.926668 89.6366685,346.129999 89.27,346.27 C88.9033315,346.410001 88.520002,346.48 88.12,346.48 C87.719998,346.48 87.3366685,346.410001 86.97,346.27 C86.6033315,346.129999 86.2800014,345.926668 86,345.66 C85.7199986,345.393332 85.4966675,345.073335 85.33,344.7 C85.1633325,344.326665 85.08,343.900002 85.08,343.42 L85.08,335.06 Z M87.12,343.42 C87.12,343.713335 87.2133324,343.956666 87.4,344.15 C87.5866676,344.343334 87.8266652,344.44 88.12,344.44 C88.4133348,344.44 88.6533324,344.343334 88.84,344.15 C89.0266676,343.956666 89.12,343.713335 89.12,343.42 L89.12,335.06 C89.12,334.766665 89.0266676,334.523334 88.84,334.33 C88.6533324,334.136666 88.4133348,334.04 88.12,334.04 C87.8266652,334.04 87.5866676,334.136666 87.4,334.33 C87.2133324,334.523334 87.12,334.766665 87.12,335.06 L87.12,343.42 Z M92.72,341.84 L92.72,339.8 L98.74,339.8 L98.74,341.84 L92.72,341.84 Z M100.3,346.36 L100.3,344.44 L103.98,337.5 C104.166668,337.153332 104.273333,336.850001 104.3,336.59 C104.326667,336.329999 104.34,336.006669 104.34,335.62 C104.34,335.446666 104.336667,335.263334 104.33,335.07 C104.323333,334.876666 104.286667,334.706667 104.22,334.56 C104.153333,334.413333 104.053334,334.29 103.92,334.19 C103.786666,334.089999 103.593335,334.04 103.34,334.04 C103.033332,334.04 102.790001,334.126666 102.61,334.3 C102.429999,334.473334 102.34,334.726665 102.34,335.06 L102.34,336.22 L100.3,336.22 L100.3,335.1 C100.3,334.673331 100.379999,334.273335 100.54,333.9 C100.700001,333.526665 100.919999,333.200001 101.2,332.92 C101.466668,332.639999 101.786665,332.416667 102.16,332.25 C102.533335,332.083332 102.933331,332 103.36,332 C103.893336,332 104.349998,332.096666 104.73,332.29 C105.110002,332.483334 105.426665,332.746665 105.68,333.08 C105.920001,333.413335 106.096666,333.793331 106.21,334.22 C106.323334,334.646669 106.38,335.099998 106.38,335.58 C106.38,335.926668 106.373333,336.216665 106.36,336.45 C106.346667,336.683335 106.32,336.906666 106.28,337.12 C106.24,337.333334 106.173334,337.546666 106.08,337.76 C105.986666,337.973334 105.860001,338.233332 105.7,338.54 L102.7,344.32 L106.38,344.32 L106.38,346.36 L100.3,346.36 Z M107.74,335.06 C107.74,334.579998 107.823332,334.153335 107.99,333.78 C108.156668,333.406665 108.379999,333.086668 108.66,332.82 C108.940001,332.553332 109.263332,332.350001 109.63,332.21 C109.996669,332.069999 110.379998,332 110.78,332 C111.180002,332 111.563332,332.069999 111.93,332.21 C112.296669,332.350001 112.619999,332.553332 112.9,332.82 C113.180001,333.086668 113.403333,333.406665 113.57,333.78 C113.736668,334.153335 113.82,334.579998 113.82,335.06 L113.82,343.42 C113.82,343.900002 113.736668,344.326665 113.57,344.7 C113.403333,345.073335 113.180001,345.393332 112.9,345.66 C112.619999,345.926668 112.296669,346.129999 111.93,346.27 C111.563332,346.410001 111.180002,346.48 110.78,346.48 C110.379998,346.48 109.996669,346.410001 109.63,346.27 C109.263332,346.129999 108.940001,345.926668 108.66,345.66 C108.379999,345.393332 108.156668,345.073335 107.99,344.7 C107.823332,344.326665 107.74,343.900002 107.74,343.42 L107.74,335.06 Z M109.78,343.42 C109.78,343.713335 109.873332,343.956666 110.06,344.15 C110.246668,344.343334 110.486665,344.44 110.78,344.44 C111.073335,344.44 111.313332,344.343334 111.5,344.15 C111.686668,343.956666 111.78,343.713335 111.78,343.42 L111.78,335.06 C111.78,334.766665 111.686668,334.523334 111.5,334.33 C111.313332,334.136666 111.073335,334.04 110.78,334.04 C110.486665,334.04 110.246668,334.136666 110.06,334.33 C109.873332,334.523334 109.78,334.766665 109.78,335.06 L109.78,343.42 Z M117.6,346.36 L117.6,334.28 L115.56,335.78 L115.56,333.62 L117.6,332.12 L119.64,332.12 L119.64,346.36 L117.6,346.36 Z M126.66,335.04 C126.66,334.759999 126.560001,334.523334 126.36,334.33 C126.159999,334.136666 125.926668,334.04 125.66,334.04 C125.393332,334.04 125.160001,334.136666 124.96,334.33 C124.759999,334.523334 124.66,334.759999 124.66,335.04 L124.66,337.12 C124.66,337.400001 124.759999,337.636666 124.96,337.83 C125.160001,338.023334 125.393332,338.12 125.66,338.12 C125.926668,338.12 126.159999,338.023334 126.36,337.83 C126.560001,337.636666 126.66,337.400001 126.66,337.12 L126.66,335.04 Z M122.62,335.84 C122.62,335.453331 122.633333,335.123335 122.66,334.85 C122.686667,334.576665 122.733333,334.340001 122.8,334.14 C122.866667,333.939999 122.943333,333.760001 123.03,333.6 C123.116667,333.439999 123.226666,333.273334 123.36,333.1 C123.626668,332.753332 123.959998,332.483334 124.36,332.29 C124.760002,332.096666 125.193331,332 125.66,332 C126.126669,332 126.559998,332.096666 126.96,332.29 C127.360002,332.483334 127.693332,332.753332 127.96,333.1 C128.093334,333.273334 128.206666,333.439999 128.3,333.6 C128.393334,333.760001 128.473333,333.939999 128.54,334.14 C128.606667,334.340001 128.65,334.576665 128.67,334.85 C128.69,335.123335 128.7,335.453331 128.7,335.84 C128.7,336.266669 128.693333,336.626665 128.68,336.92 C128.666667,337.213335 128.626667,337.473332 128.56,337.7 C128.493333,337.926668 128.390001,338.129999 128.25,338.31 C128.109999,338.490001 127.920001,338.679999 127.68,338.88 C127.920001,339.066668 128.109999,339.253332 128.25,339.44 C128.390001,339.626668 128.493333,339.846665 128.56,340.1 C128.626667,340.353335 128.666667,340.663331 128.68,341.03 C128.693333,341.396668 128.7,341.846664 128.7,342.38 C128.7,342.820002 128.69,343.183332 128.67,343.47 C128.65,343.756668 128.62,344.006666 128.58,344.22 C128.54,344.433334 128.483334,344.613333 128.41,344.76 C128.336666,344.906667 128.246667,345.059999 128.14,345.22 C127.913332,345.566668 127.593335,345.863332 127.18,346.11 C126.766665,346.356668 126.260003,346.48 125.66,346.48 C125.059997,346.48 124.553335,346.356668 124.14,346.11 C123.726665,345.863332 123.406668,345.566668 123.18,345.22 C123.073333,345.059999 122.983334,344.906667 122.91,344.76 C122.836666,344.613333 122.78,344.433334 122.74,344.22 C122.7,344.006666 122.67,343.756668 122.65,343.47 C122.63,343.183332 122.62,342.820002 122.62,342.38 C122.62,341.846664 122.626667,341.396668 122.64,341.03 C122.653333,340.663331 122.693333,340.353335 122.76,340.1 C122.826667,339.846665 122.929999,339.626668 123.07,339.44 C123.210001,339.253332 123.399999,339.066668 123.64,338.88 C123.399999,338.679999 123.210001,338.490001 123.07,338.31 C122.929999,338.129999 122.826667,337.926668 122.76,337.7 C122.693333,337.473332 122.653333,337.213335 122.64,336.92 C122.626667,336.626665 122.62,336.266669 122.62,335.84 Z M126.66,340.64 C126.66,340.359999 126.560001,340.123334 126.36,339.93 C126.159999,339.736666 125.926668,339.64 125.66,339.64 C125.393332,339.64 125.160001,339.736666 124.96,339.93 C124.759999,340.123334 124.66,340.359999 124.66,340.64 L124.66,343.44 C124.66,343.720001 124.759999,343.956666 124.96,344.15 C125.160001,344.343334 125.393332,344.44 125.66,344.44 C125.926668,344.44 126.159999,344.343334 126.36,344.15 C126.560001,343.956666 126.66,343.720001 126.66,343.44 L126.66,340.64 Z M130.22,346.36 L130.22,344.32 L132.26,344.32 L132.26,346.36 L130.22,346.36 Z M136.2,346.36 L136.2,334.28 L134.16,335.78 L134.16,333.62 L136.2,332.12 L138.24,332.12 L138.24,346.36 L136.2,346.36 Z M141.38,346.36 L141.38,344.32 L143.42,344.32 L143.42,346.36 L141.38,346.36 Z M144.94,346.36 L144.94,344.44 L148.62,337.5 C148.806668,337.153332 148.913333,336.850001 148.94,336.59 C148.966667,336.329999 148.98,336.006669 148.98,335.62 C148.98,335.446666 148.976667,335.263334 148.97,335.07 C148.963333,334.876666 148.926667,334.706667 148.86,334.56 C148.793333,334.413333 148.693334,334.29 148.56,334.19 C148.426666,334.089999 148.233335,334.04 147.98,334.04 C147.673332,334.04 147.430001,334.126666 147.25,334.3 C147.069999,334.473334 146.98,334.726665 146.98,335.06 L146.98,336.22 L144.94,336.22 L144.94,335.1 C144.94,334.673331 145.019999,334.273335 145.18,333.9 C145.340001,333.526665 145.559999,333.200001 145.84,332.92 C146.106668,332.639999 146.426665,332.416667 146.8,332.25 C147.173335,332.083332 147.573331,332 148,332 C148.533336,332 148.989998,332.096666 149.37,332.29 C149.750002,332.483334 150.066665,332.746665 150.32,333.08 C150.560001,333.413335 150.736666,333.793331 150.85,334.22 C150.963334,334.646669 151.02,335.099998 151.02,335.58 C151.02,335.926668 151.013333,336.216665 151,336.45 C150.986667,336.683335 150.96,336.906666 150.92,337.12 C150.88,337.333334 150.813334,337.546666 150.72,337.76 C150.626666,337.973334 150.500001,338.233332 150.34,338.54 L147.34,344.32 L151.02,344.32 L151.02,346.36 L144.94,346.36 Z M152.84,346.36 L156.42,334.04 L154.18,334.04 L154.18,335.68 L152.38,335.68 L152.38,332.12 L158.46,332.12 L158.46,334.16 L155,346.36 L152.84,346.36 Z" id="2018.1.20-2018.1.27" fill="#999999"></path>
                        <text id="专家评审" font-family="PingFangSC-Semibold, PingFang SC" font-size="24" font-weight="500" fill="#999999">
                            <tspan x="47" y="319">专家评审</tspan>
                        </text>
                        <text id="颁奖仪式" font-family="PingFangSC-Semibold, PingFang SC" font-size="24" font-weight="500" fill="#999999">
                            <tspan x="47" y="417">颁奖仪式</tspan>
                        </text>
                        <path d="M70,444.36 L70,442.44 L73.68,435.5 C73.8666676,435.153332 73.9733332,434.850001 74,434.59 C74.0266668,434.329999 74.04,434.006669 74.04,433.62 C74.04,433.446666 74.0366667,433.263334 74.03,433.07 C74.0233333,432.876666 73.986667,432.706667 73.92,432.56 C73.853333,432.413333 73.753334,432.29 73.62,432.19 C73.486666,432.089999 73.2933346,432.04 73.04,432.04 C72.7333318,432.04 72.4900009,432.126666 72.31,432.3 C72.1299991,432.473334 72.04,432.726665 72.04,433.06 L72.04,434.22 L70,434.22 L70,433.1 C70,432.673331 70.0799992,432.273335 70.24,431.9 C70.4000008,431.526665 70.6199986,431.200001 70.9,430.92 C71.166668,430.639999 71.4866648,430.416667 71.86,430.25 C72.2333352,430.083332 72.6333312,430 73.06,430 C73.593336,430 74.0499981,430.096666 74.43,430.29 C74.8100019,430.483334 75.1266654,430.746665 75.38,431.08 C75.6200012,431.413335 75.7966661,431.793331 75.91,432.22 C76.0233339,432.646669 76.08,433.099998 76.08,433.58 C76.08,433.926668 76.0733334,434.216665 76.06,434.45 C76.0466666,434.683335 76.0200002,434.906666 75.98,435.12 C75.9399998,435.333334 75.8733338,435.546666 75.78,435.76 C75.6866662,435.973334 75.5600008,436.233332 75.4,436.54 L72.4,442.32 L76.08,442.32 L76.08,444.36 L70,444.36 Z M77.44,433.06 C77.44,432.579998 77.5233325,432.153335 77.69,431.78 C77.8566675,431.406665 78.0799986,431.086668 78.36,430.82 C78.6400014,430.553332 78.9633315,430.350001 79.33,430.21 C79.6966685,430.069999 80.079998,430 80.48,430 C80.880002,430 81.2633315,430.069999 81.63,430.21 C81.9966685,430.350001 82.3199986,430.553332 82.6,430.82 C82.8800014,431.086668 83.1033325,431.406665 83.27,431.78 C83.4366675,432.153335 83.52,432.579998 83.52,433.06 L83.52,441.42 C83.52,441.900002 83.4366675,442.326665 83.27,442.7 C83.1033325,443.073335 82.8800014,443.393332 82.6,443.66 C82.3199986,443.926668 81.9966685,444.129999 81.63,444.27 C81.2633315,444.410001 80.880002,444.48 80.48,444.48 C80.079998,444.48 79.6966685,444.410001 79.33,444.27 C78.9633315,444.129999 78.6400014,443.926668 78.36,443.66 C78.0799986,443.393332 77.8566675,443.073335 77.69,442.7 C77.5233325,442.326665 77.44,441.900002 77.44,441.42 L77.44,433.06 Z M79.48,441.42 C79.48,441.713335 79.5733324,441.956666 79.76,442.15 C79.9466676,442.343334 80.1866652,442.44 80.48,442.44 C80.7733348,442.44 81.0133324,442.343334 81.2,442.15 C81.3866676,441.956666 81.48,441.713335 81.48,441.42 L81.48,433.06 C81.48,432.766665 81.3866676,432.523334 81.2,432.33 C81.0133324,432.136666 80.7733348,432.04 80.48,432.04 C80.1866652,432.04 79.9466676,432.136666 79.76,432.33 C79.5733324,432.523334 79.48,432.766665 79.48,433.06 L79.48,441.42 Z M87.3,444.36 L87.3,432.28 L85.26,433.78 L85.26,431.62 L87.3,430.12 L89.34,430.12 L89.34,444.36 L87.3,444.36 Z M96.36,433.04 C96.36,432.759999 96.260001,432.523334 96.06,432.33 C95.859999,432.136666 95.626668,432.04 95.36,432.04 C95.093332,432.04 94.860001,432.136666 94.66,432.33 C94.459999,432.523334 94.36,432.759999 94.36,433.04 L94.36,435.12 C94.36,435.400001 94.459999,435.636666 94.66,435.83 C94.860001,436.023334 95.093332,436.12 95.36,436.12 C95.626668,436.12 95.859999,436.023334 96.06,435.83 C96.260001,435.636666 96.36,435.400001 96.36,435.12 L96.36,433.04 Z M92.32,433.84 C92.32,433.453331 92.3333332,433.123335 92.36,432.85 C92.3866668,432.576665 92.433333,432.340001 92.5,432.14 C92.566667,431.939999 92.6433329,431.760001 92.73,431.6 C92.8166671,431.439999 92.926666,431.273334 93.06,431.1 C93.326668,430.753332 93.659998,430.483334 94.06,430.29 C94.460002,430.096666 94.893331,430 95.36,430 C95.826669,430 96.259998,430.096666 96.66,430.29 C97.060002,430.483334 97.393332,430.753332 97.66,431.1 C97.793334,431.273334 97.9066662,431.439999 98,431.6 C98.0933338,431.760001 98.173333,431.939999 98.24,432.14 C98.306667,432.340001 98.3499999,432.576665 98.37,432.85 C98.3900001,433.123335 98.4,433.453331 98.4,433.84 C98.4,434.266669 98.3933334,434.626665 98.38,434.92 C98.3666666,435.213335 98.326667,435.473332 98.26,435.7 C98.193333,435.926668 98.0900007,436.129999 97.95,436.31 C97.8099993,436.490001 97.6200012,436.679999 97.38,436.88 C97.6200012,437.066668 97.8099993,437.253332 97.95,437.44 C98.0900007,437.626668 98.193333,437.846665 98.26,438.1 C98.326667,438.353335 98.3666666,438.663331 98.38,439.03 C98.3933334,439.396668 98.4,439.846664 98.4,440.38 C98.4,440.820002 98.3900001,441.183332 98.37,441.47 C98.3499999,441.756668 98.3200002,442.006666 98.28,442.22 C98.2399998,442.433334 98.1833337,442.613333 98.11,442.76 C98.0366663,442.906667 97.9466672,443.059999 97.84,443.22 C97.6133322,443.566668 97.2933354,443.863332 96.88,444.11 C96.4666646,444.356668 95.960003,444.48 95.36,444.48 C94.759997,444.48 94.2533354,444.356668 93.84,444.11 C93.4266646,443.863332 93.1066678,443.566668 92.88,443.22 C92.7733328,443.059999 92.6833337,442.906667 92.61,442.76 C92.5366663,442.613333 92.4800002,442.433334 92.44,442.22 C92.3999998,442.006666 92.3700001,441.756668 92.35,441.47 C92.3299999,441.183332 92.32,440.820002 92.32,440.38 C92.32,439.846664 92.3266666,439.396668 92.34,439.03 C92.3533334,438.663331 92.393333,438.353335 92.46,438.1 C92.526667,437.846665 92.6299993,437.626668 92.77,437.44 C92.9100007,437.253332 93.0999988,437.066668 93.34,436.88 C93.0999988,436.679999 92.9100007,436.490001 92.77,436.31 C92.6299993,436.129999 92.526667,435.926668 92.46,435.7 C92.393333,435.473332 92.3533334,435.213335 92.34,434.92 C92.3266666,434.626665 92.32,434.266669 92.32,433.84 Z M96.36,438.64 C96.36,438.359999 96.260001,438.123334 96.06,437.93 C95.859999,437.736666 95.626668,437.64 95.36,437.64 C95.093332,437.64 94.860001,437.736666 94.66,437.93 C94.459999,438.123334 94.36,438.359999 94.36,438.64 L94.36,441.44 C94.36,441.720001 94.459999,441.956666 94.66,442.15 C94.860001,442.343334 95.093332,442.44 95.36,442.44 C95.626668,442.44 95.859999,442.343334 96.06,442.15 C96.260001,441.956666 96.36,441.720001 96.36,441.44 L96.36,438.64 Z M99.92,444.36 L99.92,442.32 L101.96,442.32 L101.96,444.36 L99.92,444.36 Z M105.9,436.12 C106.513336,436.12 106.936665,436.046667 107.17,435.9 C107.403335,435.753333 107.52,435.413336 107.52,434.88 L107.52,433.04 C107.52,432.746665 107.430001,432.506668 107.25,432.32 C107.069999,432.133332 106.826668,432.04 106.52,432.04 C106.159998,432.04 105.903334,432.153332 105.75,432.38 C105.596666,432.606668 105.52,432.826666 105.52,433.04 L105.52,434.2 L103.48,434.2 L103.48,433.02 C103.48,432.606665 103.559999,432.213335 103.72,431.84 C103.880001,431.466665 104.099999,431.146668 104.38,430.88 C104.660001,430.613332 104.986665,430.400001 105.36,430.24 C105.733335,430.079999 106.133331,430 106.56,430 C107.120003,430 107.583331,430.109999 107.95,430.33 C108.316668,430.550001 108.593332,430.773332 108.78,431 C108.913334,431.160001 109.03,431.319999 109.13,431.48 C109.23,431.640001 109.313333,431.833332 109.38,432.06 C109.500001,432.500002 109.56,433.153329 109.56,434.02 C109.56,434.513336 109.55,434.913332 109.53,435.22 C109.51,435.526668 109.46,435.779999 109.38,435.98 C109.286666,436.193334 109.156667,436.373333 108.99,436.52 C108.823332,436.666667 108.593335,436.826666 108.3,437 C108.620002,437.200001 108.863332,437.386666 109.03,437.56 C109.196667,437.733334 109.32,437.933332 109.4,438.16 C109.48,438.400001 109.526667,438.683332 109.54,439.01 C109.553333,439.336668 109.56,439.753331 109.56,440.26 C109.56,440.726669 109.55,441.113332 109.53,441.42 C109.51,441.726668 109.48,441.979999 109.44,442.18 C109.4,442.393334 109.346667,442.573333 109.28,442.72 C109.213333,442.866667 109.126667,443.019999 109.02,443.18 C108.766665,443.553335 108.443335,443.863332 108.05,444.11 C107.656665,444.356668 107.140003,444.48 106.5,444.48 C106.179998,444.48 105.840002,444.426667 105.48,444.32 C105.119998,444.213333 104.793335,444.040001 104.5,443.8 C104.206665,443.559999 103.963334,443.246669 103.77,442.86 C103.576666,442.473331 103.48,442.000003 103.48,441.44 L103.48,440.28 L105.52,440.28 L105.52,441.34 C105.52,441.660002 105.609999,441.923332 105.79,442.13 C105.970001,442.336668 106.213332,442.44 106.52,442.44 C106.826668,442.44 107.069999,442.336668 107.25,442.13 C107.430001,441.923332 107.52,441.646668 107.52,441.3 L107.52,439.26 C107.52,438.699997 107.413334,438.333334 107.2,438.16 C107.079999,438.053333 106.916668,437.986667 106.71,437.96 C106.503332,437.933333 106.233335,437.92 105.9,437.92 L105.9,436.12 Z M111.08,444.36 L111.08,442.32 L113.12,442.32 L113.12,444.36 L111.08,444.36 Z M115.38,444.36 L117.7,438.38 L117.66,438.34 C117.593333,438.393334 117.490001,438.436667 117.35,438.47 C117.209999,438.503333 117.026668,438.52 116.8,438.52 C116.439998,438.52 116.106668,438.433334 115.8,438.26 C115.493332,438.086666 115.253334,437.866668 115.08,437.6 C114.986666,437.466666 114.913334,437.323334 114.86,437.17 C114.806666,437.016666 114.766667,436.820001 114.74,436.58 C114.7,436.339999 114.673333,436.036668 114.66,435.67 C114.646667,435.303332 114.64,434.840003 114.64,434.28 C114.64,433.813331 114.646667,433.430001 114.66,433.13 C114.673333,432.829998 114.7,432.573334 114.74,432.36 C114.766667,432.159999 114.81,431.986667 114.87,431.84 C114.93,431.693333 115.006666,431.540001 115.1,431.38 C115.366668,430.939998 115.723331,430.600001 116.17,430.36 C116.616669,430.119999 117.119997,430 117.68,430 C118.240003,430 118.739998,430.123332 119.18,430.37 C119.620002,430.616668 119.973332,430.953331 120.24,431.38 C120.333334,431.540001 120.413333,431.693333 120.48,431.84 C120.546667,431.986667 120.6,432.159999 120.64,432.36 C120.666667,432.573334 120.686667,432.829998 120.7,433.13 C120.713333,433.430001 120.72,433.813331 120.72,434.28 C120.72,434.720002 120.713333,435.083332 120.7,435.37 C120.686667,435.656668 120.666667,435.899999 120.64,436.1 C120.6,436.313334 120.556667,436.503332 120.51,436.67 C120.463333,436.836667 120.406667,437.013332 120.34,437.2 L117.66,444.36 L115.38,444.36 Z M116.68,435.7 C116.68,436.006668 116.779999,436.253332 116.98,436.44 C117.180001,436.626668 117.413332,436.72 117.68,436.72 C117.946668,436.72 118.179999,436.626668 118.38,436.44 C118.580001,436.253332 118.68,436.006668 118.68,435.7 L118.68,433.06 C118.68,432.753332 118.580001,432.506668 118.38,432.32 C118.179999,432.133332 117.946668,432.04 117.68,432.04 C117.413332,432.04 117.180001,432.133332 116.98,432.32 C116.779999,432.506668 116.68,432.753332 116.68,433.06 L116.68,435.7 Z" id="2018.3.9" fill="#999999"></path>
                    </g>
                </g>
                <g id="Oval">
                    <use fill="black" fill-opacity="1" filter="url(#filter-2)" xlink:href="#path-1"></use>
                    <use fill="#38B0E4" fill-rule="evenodd" xlink:href="#path-1"></use>
                </g>
            </g>
        </g>
    </g>
</svg>