<svg width="36px" height="37px" viewBox="0 0 36 37" version="1.1" xmlns="http://www.w3.org/2000/svg" xmlns:xlink="http://www.w3.org/1999/xlink">
    <!-- Generator: Sketch 48.1 (47250) - http://www.bohemiancoding.com/sketch -->
    <desc>Created with Sketch.</desc>
    <defs></defs>
    <g id="Page-1" stroke="none" stroke-width="1" fill="none" fill-rule="evenodd">
        <g id="H5-2-Copy-2" transform="translate(-696.000000, -789.000000)" fill="#FFFFFF" fill-rule="nonzero">
            <g id="转发" transform="translate(696.000000, 789.000000)">
                <path d="M20.0205768,30.2380532 C19.974593,30.6282697 20.082555,31.0316048 20.3864907,31.3293983 C20.3899788,31.3337571 20.3944028,31.3343918 20.397976,31.3379889 C20.6406141,31.5869894 20.9780274,31.7448364 21.3551713,31.7448364 C21.7704296,31.7448364 22.1266873,31.5453059 22.3714522,31.2511519 L35.6153057,16.866717 C35.8970364,16.5897864 36.0170367,16.2223795 35.9980647,15.8592044 C36.0170367,15.4969179 35.8970364,15.1296379 35.6153057,14.8525381 L22.2985417,0.389179696 C21.7704721,-0.129726565 20.9144752,-0.129726565 20.3865332,0.389179696 C20.0825975,0.688411957 19.974593,1.09090072 20.0206193,1.48128648 L20.0206193,9.26945052 C8.96344373,9.26945052 0,18.1489173 0,29.1006659 C0,31.9099199 0.597406933,34.5784234 1.66090533,37 C3.240435,28.7397337 11.1990406,22.4656316 19.997436,22.4656316 C19.997436,22.9161938 20.0205768,30.2380532 20.0205768,30.2380532 Z M22.6899785,19.8466404 L22.6899785,26.9481064 L32.8988567,15.8599661 L22.6899785,4.77186808 L22.6899785,11.9134941 C22.6899785,11.9134941 19.3578311,11.879047 18.6642027,11.9005447 C9.24959843,12.1905939 2.71083397,22.8093403 2.66948679,27.7782633 C5.54541162,24.1202747 13.1039452,19.8237039 18.6642027,19.8237039 C19.5368745,19.8236616 22.6899785,19.8466404 22.6899785,19.8466404 Z" id="Shape"></path>
            </g>
        </g>
    </g>
</svg>