
<svg width="204px" height="95px" viewBox="0 0 204 95" version="1.1" xmlns="http://www.w3.org/2000/svg" xmlns:xlink="http://www.w3.org/1999/xlink">
    <!-- Generator: Sketch 47.1 (45422) - http://www.bohemiancoding.com/sketch -->
    <desc>Created with Sketch.</desc>
    <defs></defs>
    <g id="Page-1" stroke="none" stroke-width="1" fill="none" fill-rule="evenodd">
        <g id="H5-1" transform="translate(-128.000000, -6158.000000)" fill="#51BDEC">
            <g id="Page-1" transform="translate(128.000000, 6158.000000)">
                <g id="Group-3">
                    <path d="M2.9499815,47.8028329 L8.85006243,47.8028329 C12.3139353,47.8028329 13.7696462,47.3574588 14.5821087,47.0210718 C15.3668601,46.6964672 16.1020855,46.215746 16.7394382,45.5794974 C17.3767908,44.9420705 17.8579006,44.2080281 18.1827676,43.4239106 C18.518837,42.6115153 18.9645711,41.1575693 18.9645711,37.6964946 L18.9810798,38.1177147 L27.392837,38.1177147 C28.4034035,38.1177147 28.8285017,37.9881085 29.0649295,37.8897257 C29.2936925,37.7954666 29.5083052,37.6546671 29.6934382,37.4696837 C29.8803399,37.2841112 30.020074,37.0684936 30.1149988,36.8405045 C30.2128717,36.6036786 30.3425827,36.1795129 30.3425827,35.1697627 C30.3425827,34.1606017 30.2128717,33.7358468 30.1149988,33.4990209 C30.020074,33.2704427 29.8803399,33.0560034 29.6934382,32.8698417 C29.5083052,32.6848583 29.2936925,32.544648 29.0649295,32.4497998 C28.8285017,32.3514169 28.4034035,32.2223998 27.392837,32.2223998 L2.9499815,32.2223998 C1.94000462,32.2223998 1.51549595,32.3514169 1.27847861,32.4497998 C1.04912601,32.544648 0.83510289,32.6848583 0.649380347,32.8698417 C0.463068208,33.0560034 0.322744509,33.2704427 0.227819653,33.4990209 C0.129946821,33.7358468 0.00023583815,34.1606017 0.00023583815,35.1697627 C0.00023583815,36.1795129 0.129946821,36.6036786 0.227819653,36.8405045 C0.322744509,37.0684936 0.463068208,37.2841112 0.649380347,37.4696837 C0.83510289,37.6546671 1.04912601,37.7954666 1.27847861,37.8897257 C1.51549595,37.9881085 1.94000462,38.1177147 2.9499815,38.1177147 L11.378837,38.1177147 L11.378837,39.3807861 C11.378837,40.2450238 11.2674035,40.6090995 11.1830913,40.8135238 C11.1023168,41.0085222 10.9814497,41.1917383 10.8228486,41.3513895 C10.6630682,41.5104517 10.479704,41.630632 10.2833688,41.7113413 C10.0799584,41.7961745 9.71617803,41.9069289 8.85006243,41.9069289 L2.9499815,41.9069289 C1.94000462,41.9069289 1.51549595,42.0371242 1.27847861,42.1355071 C1.04912601,42.229177 0.83510289,42.3699765 0.649380347,42.5549599 C0.463068208,42.7405324 0.322744509,42.95615 0.227819653,43.18355 C0.129946821,43.4215541 0.00023583815,43.8445416 0.00023583815,44.8537026 C0.00023583815,45.864631 0.129946821,46.2882077 0.227819653,46.5256227 C0.322744509,46.75479 0.463068208,46.9686402 0.649380347,47.1542127 C0.83510289,47.3403744 1.04912601,47.4799956 1.27847861,47.5742547 C1.51549595,47.6738158 1.94000462,47.8028329 2.9499815,47.8028329 L2.9499815,47.8028329 Z M1.66879075,27.1854315 C2.1475422,27.6632071 2.69822428,28.0243371 3.28605087,28.2670541 C3.89628208,28.5191971 4.98821272,28.8532277 7.58538035,28.8532277 L7.58066358,28.8538168 L27.392837,28.8538168 C28.4034035,28.8538168 28.8285017,28.7236214 29.0649295,28.6258277 C29.2936925,28.5315686 29.5083052,28.3907692 29.6934382,28.2051966 C29.8803399,28.0196241 30.020074,27.8045956 30.1149988,27.5766065 C30.2128717,27.3397807 30.3425827,26.9150258 30.3425827,25.9058648 C30.3425827,24.8967037 30.2128717,24.4719488 30.1149988,24.235123 C30.020074,24.0071339 29.8803399,23.7921054 29.6934382,23.6065329 C29.5083052,23.4209604 29.2936925,23.28075 29.0649295,23.1859018 C28.8285017,23.0881081 28.4034035,22.9579127 27.392837,22.9579127 L7.58538035,22.9579127 C7.29647861,22.9579127 7.17561156,22.9213874 7.10839769,22.8931096 C7.04236301,22.8660102 6.98163468,22.8259501 6.9285711,22.7729293 C6.87491792,22.7199086 6.83482543,22.6586402 6.80770405,22.593248 C6.77999306,22.5254993 6.74343815,22.4047299 6.74343815,22.1160615 C6.74343815,21.8279823 6.70570405,21.7066237 6.67799306,21.6382859 C6.65028208,21.5734828 6.61077919,21.5122144 6.55771561,21.4591937 C6.50465202,21.406173 6.4433341,21.3661129 6.37788902,21.3384243 C6.31008555,21.3107357 6.1886289,21.2742103 5.90031676,21.2742103 L0.00023583815,21.2742103 C0.00023583815,23.8698691 0.333946821,24.9603286 0.586293642,25.5688886 C0.829796532,26.1568295 1.1912185,26.708245 1.66879075,27.1854315 L1.66879075,27.1854315 Z M29.6934382,42.5549599 C29.5083052,42.3699765 29.2936925,42.229177 29.0649295,42.1355071 C28.8285017,42.0371242 28.4034035,41.9069289 27.392837,41.9069289 L23.1789988,41.9069289 C22.1684324,41.9069289 21.7439237,42.0371242 21.5069064,42.1355071 C21.2781434,42.229177 21.0635306,42.3699765 20.8772185,42.5549599 C20.6920855,42.7405324 20.5517618,42.95615 20.4562474,43.18355 C20.357785,43.4215541 20.2286636,43.8445416 20.2286636,44.8537026 C20.2286636,45.864631 20.357785,46.2882077 20.4562474,46.5256227 C20.5517618,46.75479 20.6920855,46.9686402 20.8772185,47.1542127 C21.0635306,47.3403744 21.2781434,47.4799956 21.5069064,47.5742547 C21.7439237,47.6738158 22.1684324,47.8028329 23.1789988,47.8028329 L27.392837,47.8028329 C28.4034035,47.8028329 28.8285017,47.6738158 29.0649295,47.5742547 C29.2936925,47.4799956 29.5083052,47.3403744 29.6934382,47.1542127 C29.8803399,46.9686402 30.020074,46.75479 30.1149988,46.5256227 C30.2128717,46.2882077 30.3425827,45.864631 30.3425827,44.8537026 C30.3425827,43.8445416 30.2128717,43.4215541 30.1149988,43.18355 C30.020074,42.95615 29.8803399,42.7405324 29.6934382,42.5549599 L29.6934382,42.5549599 Z M53.9423168,35.3800783 C53.9423168,31.3793704 51.1128486,28.8538168 47.6218543,28.8538168 C44.1302705,28.8538168 41.2996231,31.3793704 41.2996231,35.3800783 C41.2996231,39.3807861 44.1302705,41.9069289 47.6218543,41.9069289 C51.1128486,41.9069289 53.9423168,39.3807861 53.9423168,35.3800783 L53.9423168,35.3800783 Z M61.5286405,35.3800783 C61.5286405,43.3632313 55.3025133,47.8028329 47.6218543,47.8028329 C39.9406058,47.8028329 33.713889,43.3632313 33.713889,35.3800783 C33.713889,26.8343165 39.9406058,22.9579127 47.6218543,22.9579127 C55.3025133,22.9579127 61.5286405,26.8343165 61.5286405,35.3800783 L61.5286405,35.3800783 Z M29.5366058,16.7650927 L33.1284208,21.4421093 C37.3428486,18.210791 42.4900162,16.4310621 47.6218543,16.4310621 C52.7519237,16.4310621 57.8996809,18.210791 62.1152879,21.4421093 L65.7065133,16.7650927 C60.4661896,12.7478895 54.0437272,10.5357472 47.6218543,10.5357472 C41.1993919,10.5357472 34.7763399,12.7478895 29.5366058,16.7650927 L29.5366058,16.7650927 Z M47.6218543,5.92117724 C55.9893919,5.92117724 64.0238081,8.54864847 70.2458081,13.3181568 L73.8364439,8.64114017 C66.5903168,3.08574698 57.2794266,0.0258623289 47.6218543,0.0258623289 C37.9625133,0.0258623289 28.6522127,3.08574698 21.4060855,8.64114017 L24.997311,13.3181568 C31.219311,8.54864847 39.2537272,5.92117724 47.6218543,5.92117724 L47.6218543,5.92117724 Z M77.8515884,63.5128721 C77.7206983,63.566482 77.5974728,63.6466022 77.4919353,63.7532327 C77.3858081,63.8586851 77.3056231,63.981811 77.2513803,64.1120063 C77.1959584,64.2480928 77.1216694,64.4902207 77.1216694,65.0669684 C77.1216694,67.0858795 76.8616578,67.9330328 76.6659121,68.4084519 C76.4754728,68.8656084 76.195415,69.2944871 75.8233803,69.6638648 C75.4525249,70.0367771 75.023889,70.3171978 74.5675422,70.5080724 C74.0905595,70.70366 73.2421318,70.9622833 71.2209988,70.9622833 L66.5856,70.9622833 L66.5856,73.909057 C66.5856,74.9182181 66.7147214,75.3435621 66.8131838,75.580388 C66.9086983,75.8077879 67.0484324,76.0222273 67.2335653,76.2083889 C67.4198775,76.3939614 67.6350798,76.5341718 67.8638428,76.62902 C68.1008601,76.727992 68.5259584,76.8564199 69.5359353,76.8564199 L70.8000277,76.8564199 C75.5621896,76.8564199 77.5638659,76.2455034 78.6817387,75.7830449 C79.7595191,75.3370818 80.7706751,74.6760901 81.6468139,73.80007 C82.525311,72.924639 83.1862474,71.9142997 83.6313919,70.83739 C84.0806636,69.754 84.670259,67.8393629 84.7056347,63.3826768 L78.7902243,63.3826768 C78.2259815,63.3832659 77.9860162,63.4563167 77.8515884,63.5128721 L77.8515884,63.5128721 Z M190.484941,46.1179522 C190.484941,44.8201228 190.318675,44.2745985 190.191912,43.970024 C190.069866,43.6760535 189.88945,43.3997567 189.650664,43.1611634 C189.412467,42.9225702 189.136536,42.7428889 188.842918,42.6203521 C188.537508,42.4948697 187.991542,42.3275599 186.692074,42.3275599 L149.606525,42.3275599 C148.307646,42.3275599 147.762271,42.4948697 147.455681,42.6203521 C147.162062,42.7428889 146.886721,42.9225702 146.648525,43.1611634 C146.409149,43.3997567 146.228733,43.6760535 146.106687,43.970024 C145.981103,44.2745985 145.813658,44.8201228 145.813658,46.1179522 L145.813658,64.6463373 C145.813658,66.8089936 146.091357,67.7174152 146.301253,68.225825 C146.505253,68.7147939 146.805357,69.1748959 147.205692,69.5713731 C147.601901,69.9707958 148.060606,70.2712466 148.55056,70.4744926 C149.06056,70.684219 150.813427,70.9622833 152.978421,70.9622833 L183.321357,70.9622833 C185.485762,70.9622833 187.23745,70.684219 187.748629,70.4744926 C188.238583,70.2712466 188.697288,69.9707958 189.094675,69.5713731 C189.493831,69.1748959 189.793935,68.7147939 189.997935,68.225825 C190.207831,67.7174152 190.484941,66.8089936 190.484941,64.6463373 L190.484941,46.1179522 Z M162.670779,36.4328341 L173.62723,36.4328341 L173.62723,28.8532277 L162.670779,28.8532277 L162.670779,36.4328341 Z M203.548606,55.8024813 C203.548606,58.7074276 201.585253,61.152861 198.913207,61.8910272 L198.913207,62.9608675 C198.913207,67.7203608 198.301207,69.7198311 197.837785,70.83739 C197.39264,71.9142997 196.731704,72.924639 195.853797,73.80007 C194.976479,74.6760901 193.966502,75.3370818 192.888721,75.7830449 C191.770259,76.2455034 189.769172,76.8564199 185.00701,76.8564199 L151.292768,76.8564199 C146.530016,76.8564199 144.528929,76.2455034 143.410467,75.7830449 C142.332687,75.3370818 141.32212,74.6760901 140.444802,73.80007 C139.566895,72.924639 138.907138,71.9142997 138.460814,70.83739 C137.996802,69.7198311 137.385392,67.7203608 137.385392,62.9608675 L137.385392,61.9923557 C134.499912,61.4073605 132.329022,58.8594203 132.329022,55.8024813 C132.329022,52.7473096 134.499912,50.1976021 137.385392,49.6126068 L137.385392,47.3468547 C137.388929,43.6230328 137.868271,42.0530304 138.230872,41.175832 C138.58345,40.3280896 139.105242,39.5321897 139.796247,38.8417421 C140.485484,38.1501163 141.282617,37.629335 142.132224,37.2793983 C143.010132,36.9153226 144.581403,36.4357797 148.308236,36.4328341 L154.242513,36.4328341 L154.242513,28.8532277 L143.286062,28.8532277 C142.275496,28.8532277 141.850987,28.7236214 141.61338,28.6252386 C141.385207,28.5309795 141.170594,28.39018 140.984282,28.2046075 C140.79856,28.019035 140.657646,27.8045956 140.563311,27.5766065 C140.465438,27.3391915 140.335138,26.9150258 140.335138,25.9058648 C140.335138,24.8961146 140.465438,24.4713597 140.563311,24.235123 C140.657646,24.0065447 140.79856,23.7921054 140.984282,23.6065329 C141.170594,23.4209604 141.385207,23.2801609 141.61338,23.1859018 C141.850987,23.0875189 142.275496,22.9579127 143.286062,22.9579127 L193.013716,22.9579127 C194.023692,22.9579127 194.448201,23.0875189 194.685808,23.1859018 C194.913392,23.2801609 195.128005,23.4209604 195.314906,23.6065329 C195.501218,23.7921054 195.640953,24.0065447 195.735288,24.235123 C195.83375,24.4701815 195.961692,24.8919908 195.963461,25.8887803 L195.963461,25.9223601 C195.961692,26.9185605 195.83375,27.3409589 195.735288,27.5766065 C195.640953,27.8045956 195.501218,28.019035 195.314906,28.2046075 C195.128005,28.39018 194.913392,28.5309795 194.685808,28.6252386 C194.448201,28.7236214 194.023692,28.8532277 193.013716,28.8532277 L182.056086,28.8532277 L182.056086,36.4328341 L187.957346,36.4328341 C191.708941,36.4328341 193.285519,36.9141444 194.166375,37.2788091 C195.015392,37.6299241 195.811346,38.1512945 196.502941,38.841153 C197.194536,39.5310115 197.715739,40.3280896 198.066548,41.1764212 C198.432687,42.0553869 198.913207,43.6312805 198.913207,47.3804345 L198.913207,49.7151135 C201.585253,50.4526906 203.548606,52.8975349 203.548606,55.8024813 L203.548606,55.8024813 Z M51.8356925,60.0135046 C51.8356925,58.7156752 51.668837,58.170151 51.5432532,57.8661655 C51.4206173,57.5721951 51.2407908,57.2953091 51.001415,57.057305 C50.7632185,56.8187117 50.4872879,56.6390304 50.1936694,56.5159045 C49.8876694,56.3910112 49.3422936,56.2237014 48.0428254,56.2237014 L13.4860509,56.2237014 C12.1871723,56.2237014 11.6412069,56.3910112 11.3357965,56.5159045 C11.0415884,56.6390304 10.7662474,56.8187117 10.5280509,57.057305 C10.2880855,57.2953091 10.108259,57.5721951 9.98562312,57.8661655 C9.86003931,58.170151 9.69318382,58.7156752 9.69318382,60.0135046 L9.69318382,64.6463373 C9.69318382,66.8089936 9.97029364,67.7174152 10.1801896,68.225825 C10.3841896,68.7147939 10.6848832,69.1748959 11.0840393,69.5713731 C11.480837,69.9707958 11.9401318,70.2712466 12.4300855,70.4744926 C12.9400855,70.684219 13.8492416,70.9622833 16.0148254,70.9622833 L45.5146405,70.9622833 C47.6796347,70.9622833 48.5893803,70.684219 49.0993803,70.4744926 C49.5893341,70.2712466 50.0486289,69.9707958 50.444837,69.5713731 C50.8439931,69.1748959 51.1446867,68.7147939 51.3486867,68.225825 C51.5562243,67.7227173 51.8292069,66.8266671 51.8356925,64.7134969 L51.8356925,60.0135046 Z M59.4161202,55.0719736 C59.782259,55.9521175 60.2639584,57.5280111 60.2639584,61.276576 L60.2639584,63.0975432 C60.2521665,67.7568862 59.6484208,69.7304352 59.1903052,70.83739 C58.7433919,71.9142997 58.0824555,72.9234608 57.2051376,73.7988918 C56.3295884,74.6766792 55.3172532,75.3370818 54.2394728,75.7818667 C53.1221896,76.2455034 51.1199237,76.8564199 46.3571723,76.8564199 L15.171704,76.8564199 C10.4095422,76.8564199 8.4072763,76.2455034 7.28999306,75.7818667 C6.21221272,75.3370818 5.19987746,74.6766792 4.32373873,73.7988918 C3.4470104,72.9234608 2.78607399,71.9142997 2.33916069,70.83739 C1.87632832,69.7198311 1.26491792,67.7203608 1.26491792,62.9608675 L1.26491792,61.276576 C1.26491792,57.5280111 1.74661734,55.9521175 2.11157688,55.0719736 C2.46297572,54.2230529 2.98417803,53.4277421 3.67518382,52.7372945 C4.3656,52.0468469 5.16273295,51.5260656 6.01116069,51.1743615 C6.89260578,50.8096968 8.46859422,50.3283865 12.2219584,50.3283865 L49.3075075,50.3283865 C53.0591029,50.3283865 54.6356809,50.8096968 55.517126,51.1743615 C56.3661434,51.5260656 57.1620971,52.0468469 57.8525133,52.7372945 C58.5452879,53.4277421 59.0659006,54.2230529 59.4161202,55.0719736 L59.4161202,55.0719736 Z M121.817716,70.5080724 C121.361369,70.3171978 120.932733,70.0367771 120.561877,69.6638648 C120.190432,69.2944871 119.909195,68.8656084 119.719346,68.4084519 C119.52301,67.9330328 119.263588,67.0858795 119.263588,65.0669684 C119.263588,64.4902207 119.189889,64.2480928 119.134467,64.1120063 C119.079635,63.981811 118.99945,63.8586851 118.893323,63.7532327 C118.787195,63.6466022 118.66456,63.566482 118.534259,63.5128721 C118.399831,63.4563167 118.159276,63.3832659 117.595034,63.3826768 L111.679623,63.3826768 C111.715588,67.8393629 112.304594,69.754 112.753866,70.83739 C113.1996,71.9142997 113.859947,72.924639 114.738444,73.80007 C115.615172,74.6760901 116.625739,75.3370818 117.703519,75.7830449 C118.821982,76.2455034 120.823068,76.8564199 125.58582,76.8564199 L126.849912,76.8564199 C127.859889,76.8564199 128.284398,76.727992 128.521415,76.62902 C128.750768,76.5341718 128.964791,76.3939614 129.151103,76.2083889 C129.336825,76.0222273 129.477149,75.8077879 129.572664,75.580388 C129.669357,75.3435621 129.799658,74.9182181 129.799658,73.909057 L129.799658,70.9622833 L125.163669,70.9622833 C123.143716,70.9622833 122.294698,70.70366 121.817716,70.5080724 L121.817716,70.5080724 Z M177.842837,49.4865353 C174.351253,49.4865353 171.521195,52.3148961 171.521195,55.8024813 C171.521195,59.2912446 174.351253,62.1184272 177.842837,62.1184272 C181.333242,62.1184272 184.164479,59.2912446 184.164479,55.8024813 C184.164479,52.3148961 181.333242,49.4865353 177.842837,49.4865353 L177.842837,49.4865353 Z M158.456351,49.4865353 C154.964768,49.4865353 152.135299,52.3148961 152.135299,55.8024813 C152.135299,59.2912446 154.964768,62.1184272 158.456351,62.1184272 C161.949114,62.1184272 164.777993,59.2912446 164.777993,55.8024813 C164.777993,52.3148961 161.949114,49.4865353 158.456351,49.4865353 L158.456351,49.4865353 Z M116.735403,54.5394099 C118.034282,54.5394099 118.580247,54.3721001 118.886247,54.2472068 C119.180455,54.12467 119.456386,53.9455778 119.694583,53.7063955 C119.932779,53.4672131 120.113785,53.1909162 120.235831,52.8963567 C120.362005,52.5935495 120.528271,52.0468469 120.528271,50.7496067 L120.528271,42.3363967 C120.528271,41.0379782 120.362005,40.4936321 120.235831,40.1878793 C120.113785,39.894498 119.932779,39.617612 119.694583,39.3807861 C119.456386,39.1410146 119.180455,38.9607442 118.886247,38.8387965 C118.580247,38.712725 118.034282,38.5460043 116.735403,38.5460043 L116.816178,38.5377567 L102.407057,38.5377567 L102.407057,43.5912204 L112.099415,43.5912204 C113.109982,43.5912204 113.53508,43.7208266 113.771508,43.8186204 C114.000271,43.9146468 114.214294,44.0548571 114.401195,44.2404296 C114.587508,44.4260022 114.727242,44.6398524 114.821577,44.8684306 C114.91945,45.1052565 115.04975,45.5294222 115.04975,46.5385833 C115.04975,47.5471552 114.91945,47.9724992 114.821577,48.2093251 C114.727242,48.4379033 114.587508,48.6517535 114.401195,48.837326 C114.214294,49.0234877 114.000271,49.1648763 113.771508,49.2585462 C113.53508,49.3569291 113.109982,49.4865353 112.099415,49.4865353 L102.407057,49.4865353 L102.407057,54.5394099 L116.735403,54.5394099 Z M93.9787908,38.5377567 L79.5690798,38.5377567 L79.6498543,38.5460043 C78.3515653,38.5460043 77.8050104,38.712725 77.4990104,38.8387965 C77.2053919,38.9607442 76.9300509,39.1410146 76.6912647,39.3807861 C76.4524786,39.617612 76.2720624,39.894498 76.1494266,40.1878793 C76.0238428,40.4936321 75.8563977,41.0379782 75.8563977,42.3363967 L75.8563977,50.7496067 C75.8563977,52.0468469 76.0238428,52.5935495 76.1494266,52.8963567 C76.2720624,53.1909162 76.4524786,53.4672131 76.6912647,53.7063955 C76.9300509,53.9455778 77.2053919,54.12467 77.4990104,54.2472068 C77.8050104,54.3721001 78.3515653,54.5394099 79.6498543,54.5394099 L93.9787908,54.5394099 L93.9787908,49.4865353 L84.2852532,49.4865353 C83.2746867,49.4865353 82.8513572,49.3569291 82.6137503,49.2585462 C82.3855769,49.1648763 82.1703746,49.0234877 81.984652,48.837326 C81.7989295,48.6517535 81.6580162,48.4379033 81.5642705,48.2093251 C81.4658081,47.9724992 81.3355075,47.5471552 81.3355075,46.5385833 C81.3355075,45.5294222 81.4658081,45.1052565 81.5642705,44.8684306 C81.6580162,44.6398524 81.7989295,44.4260022 81.984652,44.2404296 C82.1703746,44.0548571 82.3855769,43.9146468 82.6137503,43.8186204 C82.8513572,43.7208266 83.2746867,43.5912204 84.2852532,43.5912204 L93.9787908,43.5912204 L93.9787908,38.5377567 Z M117.156964,60.4347248 L102.407057,60.4347248 L102.407057,71.3823252 C102.407057,73.2580804 102.165912,74.0445544 101.983727,74.4858047 C101.808028,74.9087922 101.546837,75.3070367 101.201924,75.6516714 C100.856421,75.9980734 100.458444,76.258464 100.032756,76.4340215 C99.5929179,76.6160593 98.8046289,76.8564199 96.9285364,76.8564199 L96.932074,76.8564199 L93.9787908,76.8564199 L93.9787908,60.4347248 L79.2282936,60.4347248 C75.4766983,60.4347248 73.898941,59.9522363 73.0186751,59.5881606 C72.1690682,59.2370457 71.3719353,58.7168535 70.6821087,58.0264059 C69.9911029,57.3353692 69.4699006,56.5394693 69.1185017,55.6917269 C68.7529526,54.8104047 68.2712532,53.2356893 68.2712532,49.4865353 L68.2712532,43.5912204 C68.2712532,39.8414773 68.7535422,38.2667619 69.1185017,37.3860288 C69.4699006,36.5376973 69.9905133,35.7406191 70.6821087,35.0513498 C71.373704,34.3614913 72.1690682,33.84071 73.0186751,33.4884168 C73.8995306,33.1243412 75.4766983,32.6430309 79.2282936,32.6430309 L93.9787908,32.6430309 L93.9787908,28.8532277 L70.3784671,28.8532277 C69.3679006,28.8532277 68.9439815,28.7236214 68.7063746,28.6252386 C68.4782012,28.5309795 68.2635884,28.39018 68.0778659,28.2046075 C67.8915538,28.019035 67.7512301,27.8045956 67.6563052,27.5766065 C67.5584324,27.3391915 67.4287214,26.9150258 67.4287214,25.9058648 C67.4287214,24.8961146 67.5584324,24.4713597 67.6563052,24.235123 C67.7512301,24.0065447 67.8915538,23.7921054 68.0778659,23.6065329 C68.2635884,23.4209604 68.4782012,23.2801609 68.7063746,23.1859018 C68.9439815,23.0875189 69.3679006,22.9579127 70.3784671,22.9579127 L93.9787908,22.9579127 L93.9787908,21.2736212 L101.564525,21.2736212 C101.852837,21.2736212 101.973704,21.3107357 102.042097,21.3384243 C102.108132,21.3655238 102.168271,21.4055839 102.220745,21.4586046 C102.274398,21.5122144 102.31508,21.5734828 102.341612,21.6382859 C102.369912,21.7060346 102.407057,21.8273932 102.407057,22.1160615 L102.407057,22.9579127 L126.006791,22.9579127 C127.017357,22.9579127 127.440687,23.0875189 127.678883,23.1859018 C127.907057,23.2801609 128.121669,23.4209604 128.307392,23.6065329 C128.494294,23.7921054 128.634617,24.0065447 128.728953,24.235123 C128.826236,24.4713597 128.956536,24.8961146 128.956536,25.9058648 C128.956536,26.9150258 128.826236,27.3391915 128.728953,27.5766065 C128.634617,27.8045956 128.494294,28.019035 128.307392,28.2046075 C128.121669,28.39018 127.907057,28.5309795 127.678883,28.6252386 C127.440687,28.7236214 127.017357,28.8532277 126.006791,28.8532277 L102.407057,28.8532277 L102.407057,32.6430309 L117.156964,32.6430309 C120.909149,32.6430309 122.485138,33.1243412 123.367172,33.4884168 C124.21619,33.84071 125.012143,34.3614913 125.70256,35.0513498 C126.394745,35.7406191 126.915947,36.5376973 127.266756,37.3860288 C127.632305,38.2667619 128.114005,39.8414773 128.114005,43.5912204 L128.114005,49.4865353 C128.114005,53.2356893 127.632305,54.8104047 127.267935,55.6917269 C126.915947,56.5394693 126.394155,57.3353692 125.703149,58.0264059 C125.013323,58.7168535 124.21619,59.2370457 123.365993,59.5881606 C122.485727,59.9522363 120.909149,60.4347248 117.156964,60.4347248 L117.156964,60.4347248 Z M46.1289988,61.7113459 C46.2268717,61.9487609 46.3565827,62.3723375 46.3565827,63.3826768 C46.3565827,64.3918379 46.2268717,64.8160036 46.1289988,65.0528295 C46.034074,65.2814077 45.8943399,65.4958471 45.7080277,65.6825978 C45.5223052,65.8675812 45.3082821,66.0077916 45.0795191,66.1026397 C44.8419121,66.2004335 44.4174035,66.3300397 43.406837,66.3300397 L18.1208601,66.3300397 C17.1114728,66.3300397 16.6869642,66.2004335 16.4493572,66.1026397 C16.2205942,66.0077916 16.0071607,65.8675812 15.820259,65.6825978 C15.635126,65.4958471 15.4936231,65.2814077 15.3992879,65.0528295 C15.3008254,64.8160036 15.171704,64.3918379 15.171704,63.3826768 C15.171704,62.3723375 15.3008254,61.9487609 15.3992879,61.7113459 C15.4936231,61.4827677 15.635126,61.2683283 15.820259,61.0827558 C16.0071607,60.8971833 16.2205942,60.756973 16.4493572,60.6615357 C16.6869642,60.564331 17.1114728,60.4347248 18.1208601,60.4347248 L43.406837,60.4347248 C44.4174035,60.4347248 44.8419121,60.564331 45.0795191,60.6615357 C45.3082821,60.756973 45.5223052,60.8971833 45.7080277,61.0827558 C45.8943399,61.2683283 46.034074,61.4827677 46.1289988,61.7113459 L46.1289988,61.7113459 Z" id="Fill-1"></path>
                </g>
                <polygon id="Fill-4" points="1.9503357 85.3597884 1.67967921 87.002911 6.57333238 87.002911 0.220087971 93.3841388 0 94.7142857 8.13635922 94.7142857 8.3960975 93.1326404 2.7370209 93.1326404 9.15117738 86.7507917 9.37931034 85.3597884"></polygon>
                <path d="M31.730226,94.7142857 L29.6886943,94.7142857 L30.6000715,89.546043 C30.8755905,87.9809826 30.3526308,87.1996336 29.0306074,87.1996336 C27.657692,87.2817254 26.7656187,88.1416228 26.3555574,89.7852314 L25.4898076,94.7142857 L23.4482759,94.7142857 L25.7138496,81.8518519 L27.7524565,81.8518519 L26.7896023,87.3195231 C27.7062442,86.197995 28.8094902,85.6186273 30.0987555,85.5778767 C32.3046627,85.5371261 33.1733374,86.7395649 32.7041946,89.184012 L31.730226,94.7142857 Z" id="Fill-6"></path>
                <path d="M52.3845733,83.9546806 L52.7809277,81.8518519 L55.1034483,81.8518519 L54.7070939,83.9546806 L52.3845733,83.9546806 Z M50.4137931,94.7142857 L52.1459848,85.5617253 L54.402554,85.5617253 L52.6703623,94.7142857 L50.4137931,94.7142857 Z" id="Fill-8"></path>
                <path d="M78.7589762,81.8518519 L80.8965517,81.8518519 L78.591755,94.5324131 L76.4541795,94.5324131 L76.692812,93.2282 C75.9358531,94.25585 74.8277892,94.7495878 73.3704055,94.7123246 C70.9888417,94.5912191 70.0152689,93.1315485 70.442546,90.3251613 C71.0548971,87.1641913 72.6902138,85.5653658 75.3431401,85.5251913 C76.6327075,85.6055402 77.44501,86.1772979 77.7794525,87.2451224 L78.7589762,81.8518519 Z M77.2688624,90.3839674 L77.4200161,89.5548605 C77.5241574,88.0928609 76.9177573,87.2852968 75.603791,87.1269281 C74.0482169,87.1641913 73.0680981,88.1924236 72.6628395,90.2075493 C72.3361332,92.222675 72.9228953,93.2497428 74.4213404,93.2904994 C75.9358531,93.2497428 76.8850271,92.2808988 77.2688624,90.3839674 L77.2688624,90.3839674 Z" id="Fill-10"></path>
                <polygon id="Fill-12" points="105.517241 85.3597884 101.243091 89.9730757 104.062238 94.7142857 101.542687 94.7142857 99.6266249 90.9231807 96.2500339 94.7142857 93.7931034 94.7142857 98.3441342 89.9730757 95.8166024 85.3597884 98.1464502 85.3597884 99.9378852 89.1515144 103.060311 85.3597884"></polygon>
                <polygon id="Fill-14" points="121.10286 92.3756614 120.758621 94.7142857 122.759209 94.7142857 123.103448 92.3756614"></polygon>
                <path d="M151.241379,88.2561503 L149.073753,88.6166392 C148.886717,87.6140295 148.257008,87.0893048 147.18111,87.0513586 C145.564625,87.1308084 144.539737,88.1547628 144.115827,90.1244075 C143.799801,92.1361488 144.461756,93.1630677 146.099936,93.2016068 C147.392186,93.1630677 148.2488,92.4990093 148.676228,91.2123961 L150.789913,91.5130011 C149.919227,93.7263315 148.246455,94.7911966 145.7757,94.7099681 C142.780189,94.6305182 141.504943,93.1002193 141.947614,90.1244075 C142.607225,87.0703317 144.429509,85.4825206 147.41857,85.3597884 C149.611409,85.4416098 150.884896,86.4062733 151.241379,88.2561503" id="Fill-16"></path>
                <path d="M170.856781,85.3597884 C173.772084,85.479581 175.025029,87.0487454 174.613263,90.0684678 C174.00032,93.085225 172.177373,94.6354124 169.148541,94.7142857 C166.27912,94.5529808 165.017352,93.0253287 165.367353,90.1283641 C166.02912,87.0706876 167.856772,85.479581 170.856781,85.3597884 M169.413836,93.2056106 C171.030311,93.1646913 172.036785,92.1399309 172.429727,90.1283641 C172.744434,88.1167972 172.104432,87.0706876 170.509721,86.9882561 C168.893246,87.0291753 167.884419,88.075878 167.480301,90.1283641 C167.173829,92.0990116 167.816772,93.1267373 169.413836,93.2056106" id="Fill-18"></path>
                <path d="M200.511744,94.7142857 L198.38041,94.7142857 L199.343479,89.3609977 C199.672645,87.7591837 199.204851,86.9815571 197.943761,87.020257 C196.634426,87.1043084 195.820977,87.9236584 195.497307,89.4843537 L194.559886,94.7142857 L192.366261,94.7142857 L193.326277,89.3609977 C193.655443,87.7591837 193.191313,86.9815571 191.929612,87.020257 C190.668522,87.062585 189.848966,87.9037037 189.471555,89.5448224 L188.542074,94.7142857 L186.413793,94.7142857 L188.047409,85.605291 L190.178132,85.605291 L189.902708,87.1430083 C190.741806,85.9535903 191.850832,85.3597884 193.230398,85.3597884 C194.652102,85.3597884 195.477765,85.994709 195.708608,87.2687831 C196.555646,86.0364324 197.712917,85.4015117 199.182866,85.3597884 C201.187175,85.3597884 201.973143,86.569161 201.539547,88.990325 L200.511744,94.7142857 Z" id="Fill-20"></path>
            </g>
        </g>
    </g>
</svg>