
<svg width="214px" height="82px" viewBox="0 0 214 82" version="1.1" xmlns="http://www.w3.org/2000/svg" xmlns:xlink="http://www.w3.org/1999/xlink">
    <!-- Generator: Sketch 47.1 (45422) - http://www.bohemiancoding.com/sketch -->
    <desc>Created with Sketch.</desc>
    <defs>
        <path d="M37.720779,1.10284959 C36.7152379,1.49627301 15.3470914,10.0841743 15.3470914,10.0841743 C13.3487308,10.8884013 11.0227874,13.1578277 10.1820978,15.1281049 L0.752698157,37.2003701 C-0.0901117512,39.1701205 -0.118735484,42.407042 0.690680069,44.3925926 L9.72941878,66.6249659 C10.536184,68.6105165 12.8202518,70.9189166 14.8032404,71.7568505 L37.0179074,81.1226453 C39.000896,81.9605792 42.2581707,81.9890195 44.2565313,81.1874258 L66.6323393,72.2066277 C68.6306999,71.4024008 70.9539929,69.1356077 71.7973328,67.1626972 L81.2262024,45.090432 C82.0668921,43.1201549 82.0955158,39.8837601 81.2887506,37.8987361 L72.2500119,15.6653095 C71.4405963,13.6802856 69.1591788,11.3718855 67.1761902,10.5365849 C67.1761902,10.5365849 46.9779062,2.00872413 44.9588729,1.16499679 C43.9300088,0.735233059 42.5889339,0.52456456 41.2568702,0.52456456 C39.9741029,0.52456456 38.7003468,0.719959592 37.720779,1.10284959 Z" id="path-1"></path>
        <path d="M37.720779,1.10284959 C36.7152379,1.49627301 15.3470914,10.0841743 15.3470914,10.0841743 C13.3487308,10.8884013 11.0227874,13.1578277 10.1820978,15.1281049 L0.752698157,37.2003701 C-0.0901117512,39.1701205 -0.118735484,42.407042 0.690680069,44.3925926 L9.72941878,66.6249659 C10.536184,68.6105165 12.8202518,70.9189166 14.8032404,71.7568505 L37.0179074,81.1226453 C39.000896,81.9605792 42.2581707,81.9890195 44.2565313,81.1874258 L66.6323393,72.2066277 C68.6306999,71.4024008 70.9539929,69.1356077 71.7973328,67.1626972 L81.2262024,45.090432 C82.0668921,43.1201549 82.0955158,39.8837601 81.2887506,37.8987361 L72.2500119,15.6653095 C71.4405963,13.6802856 69.1591788,11.3718855 67.1761902,10.5365849 C67.1761902,10.5365849 46.9779062,2.00872413 44.9588729,1.16499679 C43.9300088,0.735233059 42.5889339,0.52456456 41.2568702,0.52456456 C39.9741029,0.52456456 38.7003468,0.719959592 37.720779,1.10284959 Z" id="path-3"></path>
        <path d="M37.720779,1.10284959 C36.7152379,1.49627301 15.3470914,10.0841743 15.3470914,10.0841743 C13.3487308,10.8884013 11.0227874,13.1578277 10.1820978,15.1281049 L0.752698157,37.2003701 C-0.0901117512,39.1701205 -0.118735484,42.407042 0.690680069,44.3925926 L9.72941878,66.6249659 C10.536184,68.6105165 12.8202518,70.9189166 14.8032404,71.7568505 L37.0179074,81.1226453 C39.000896,81.9605792 42.2581707,81.9890195 44.2565313,81.1874258 L66.6323393,72.2066277 C68.6306999,71.4024008 70.9539929,69.1356077 71.7973328,67.1626972 L81.2262024,45.090432 C82.0668921,43.1201549 82.0955158,39.8837601 81.2887506,37.8987361 L72.2500119,15.6653095 C71.4405963,13.6802856 69.1591788,11.3718855 67.1761902,10.5365849 C67.1761902,10.5365849 46.9779062,2.00872413 44.9588729,1.16499679 C43.9300088,0.735233059 42.5889339,0.52456456 41.2568702,0.52456456 C39.9741029,0.52456456 38.7003468,0.719959592 37.720779,1.10284959 Z" id="path-5"></path>
        <path d="M37.720779,1.10284959 C36.7152379,1.49627301 15.3470914,10.0841743 15.3470914,10.0841743 L15.3470914,10.0841743 C13.3487308,10.8884013 11.0227874,13.1578277 10.1820978,15.1281049 L10.1820978,15.1281049 L0.752698157,37.2003701 C-0.0901117512,39.1701205 -0.118735484,42.407042 0.690680069,44.3925926 L0.690680069,44.3925926 L9.72941878,66.6249659 C10.536184,68.6105165 12.8202518,70.9189166 14.8032404,71.7568505 L14.8032404,71.7568505 L37.0179074,81.1226453 C39.000896,81.9605792 42.2581707,81.9890195 44.2565313,81.1874258 L44.2565313,81.1874258 L66.6323393,72.2066277 C68.6306999,71.4024008 70.9539929,69.1356077 71.7973328,67.1626972 L71.7973328,67.1626972 L81.2262024,45.090432 C82.0668921,43.1201549 82.0955158,39.8837601 81.2887506,37.8987361 L81.2887506,37.8987361 L72.2500119,15.6653095 C71.4405963,13.6802856 69.1591788,11.3718855 67.1761902,10.5365849 L67.1761902,10.5365849 C67.1761902,10.5365849 46.9779062,2.00872413 44.9588729,1.16499679 L44.9588729,1.16499679 C43.9300088,0.735233059 42.5889339,0.52456456 41.2568702,0.52456456 L41.2568702,0.52456456 C39.9741029,0.52456456 38.7003468,0.719959592 37.720779,1.10284959 L37.720779,1.10284959 Z" id="path-7"></path>
    </defs>
    <g id="Page-1" stroke="none" stroke-width="1" fill="none" fill-rule="evenodd">
        <g id="H5-1" transform="translate(-404.000000, -6171.000000)">
            <g id="Page-1" transform="translate(404.000000, 6171.000000)">
                <g id="Group-5" transform="translate(92.669643, 9.553571)" fill="#FFFFFF">
                    <path d="M90.7780486,9.30244742 L73.5332431,9.30244742 L73.760009,6.0698689 L91.0026952,6.0698689 L90.7780486,9.30244742 Z M90.2042461,17.4930305 L72.9562616,17.4930305 L73.1681924,14.4962939 L90.4129979,14.4962939 L90.2042461,17.4930305 Z M96.6850886,14.4962939 L113.933073,14.4962939 L113.721672,17.4930305 L96.4742175,17.4930305 L96.6850886,14.4962939 Z M97.2753158,6.0698689 L114.520121,6.0698689 L114.296005,9.30244742 L97.04802,9.30244742 L97.2753158,6.0698689 Z M96.1112861,22.686877 L109.758037,22.686877 C110.303759,22.686877 112.755798,17.0634042 113.393179,17.6793616 C114.032151,18.295319 113.038195,22.7736541 113.038195,22.7736541 L119.626593,22.686877 L121.155673,0.875490015 L67.8524392,0.875490015 L66.3238887,22.686877 L89.5774609,22.686877 L89.3040702,26.6248519 L65.0009109,26.6248519 L64.6533445,31.5828564 L77.9821995,31.5828564 L63.5656099,47.1462952 L69.7025947,49.0340955 L86.0816631,31.5828564 L88.9565038,31.5828564 L87.7331335,49.0340955 L94.2637797,49.0340955 L95.4882097,31.5828564 L98.3630504,31.5828564 L112.816198,49.0340955 L118.974376,46.9077914 L106.463044,31.5828564 L120.570744,31.5828564 L120.92096,26.6248519 L95.8347165,26.6248519 L96.1112861,22.686877 Z M28.3840449,1.11186433 L28.1233701,6.0698689 L30.9987406,6.0698689 L25.133557,47.8543534 L30.8185995,49.0340955 L37.2692418,6.0698689 L52.1626756,6.0698689 C52.1626756,6.0698689 47.696235,11.1982333 44.3922345,15.0994743 C44.2491813,17.8316207 44.0398996,19.7609463 44.0398996,19.7609463 L53.0082793,19.7609463 L53.0029811,19.8631622 L46.5788301,28.9875303 L43.6144486,24.4831089 L38.2631971,26.8425931 L43.0385268,34.0158083 L33.7956968,47.1462952 L38.9233614,49.0340955 L46.24239,38.8295394 L53.0347707,49.0340955 L58.3706573,46.9077914 L49.7959389,33.8768585 L59.5103149,20.3353784 L59.8027793,14.8029417 L52.9250965,14.8029417 C52.9250965,14.8029417 57.1859644,9.53562749 60.4184382,5.53483244 C60.5466563,3.08590932 60.5254632,1.11186433 60.5254632,1.11186433 L28.3840449,1.11186433 Z M19.9714536,21.8872504 L20.545786,11.0273411 L25.7725282,11.0273411 L26.0464487,5.83349458 L20.8197065,5.83349458 L21.1195885,0.167964183 L14.8474978,0.167964183 L14.5497351,5.83349458 L2.26781802,5.83349458 L2.00661337,10.7914991 L14.2858813,10.7914991 L12.2720093,49.0340955 L18.5419807,49.0340955 L19.6249468,28.4972133 L24.1284754,32.2722815 L25.7327912,26.6067511 L19.9714536,21.8872504 Z M0.16493511,45.7307112 L4.69442517,49.0340955 L9.48511988,17.637304 L4.69442517,14.3312578 L0.16493511,45.7307112 Z" id="Fill-1"></path>
                    <path d="M117.046389,58.3823272 C116.717366,58.3823272 116.242112,58.4323704 115.619035,58.5287302 C115.149079,58.6048597 114.677003,58.6788598 114.204927,58.7491332 C114.089955,58.5053057 113.810736,58.3823272 113.372039,58.3823272 C113.014936,58.3823272 112.563524,58.4211905 112.020981,58.5053057 C111.576986,58.5761115 111.130872,58.6469173 110.682108,58.7177231 L110.698003,58.4137373 L108.784798,58.4137373 L108.364645,66.6932269 L110.27785,66.6932269 L110.61694,60.0129905 L112.414642,59.9815804 L112.072904,66.6932269 L113.977632,66.6932269 L114.317251,60.0129905 L116.111774,59.9815804 L115.773215,66.6932269 L117.669995,66.6932269 L118.037695,59.3890475 C118.074253,58.7177231 117.742581,58.3823272 117.046389,58.3823272 L117.046389,58.3823272 Z M97.66956,65.1365636 L95.8559625,65.1365636 L96.1171672,59.9815804 L97.9302348,59.9815804 L97.66956,65.1365636 Z M98.8203439,58.4137373 L95.3971324,58.4137373 C94.6765679,58.4137373 94.3009206,58.7571189 94.2670117,59.4385583 L93.9512349,65.6705353 C93.9146768,66.3530395 94.2564151,66.6932269 94.9743306,66.6932269 L98.4001912,66.6932269 C99.1075101,66.6932269 99.4778591,66.3530395 99.511768,65.6705353 L99.8275449,59.4385583 C99.8635731,58.7571189 99.5276628,58.4137373 98.8203439,58.4137373 L98.8203439,58.4137373 Z M84.3624279,58.4137373 L81.0457115,58.4137373 C80.3277961,58.4137373 79.9521488,58.7571189 79.9155908,59.4385583 L79.599814,65.6705353 C79.5664349,66.3530395 79.9076434,66.6932269 80.6255588,66.6932269 L83.9422751,66.6932269 C84.6490642,66.6932269 85.019943,66.3530395 85.0533221,65.6705353 L85.1629963,63.5554111 L83.2974758,63.5554111 L83.2190614,65.1365636 L81.5077206,65.1365636 L81.7683954,59.9815804 L83.4797363,59.9815804 L83.40715,61.407812 L85.2700213,61.407812 L85.3690989,59.4385583 C85.405657,58.7571189 85.0692169,58.4137373 84.3624279,58.4137373 L84.3624279,58.4137373 Z M68.8231351,66.6932269 L70.7019012,66.6932269 L70.8041578,64.7117287 L68.9253917,64.7117287 L68.8231351,66.6932269 Z M58.1778533,65.1365636 L56.366905,65.1365636 L56.6275798,59.9815804 L58.4385281,59.9815804 L58.1778533,65.1365636 Z M59.3281074,58.4137373 L55.9048959,58.4137373 C55.1875103,58.4137373 54.8113332,58.7571189 54.775305,59.4385583 L54.4595282,65.6705353 C54.4229701,66.3530395 54.7673576,66.6932269 55.485273,66.6932269 L58.9084845,66.6932269 C59.6152736,66.6932269 59.9861524,66.3530395 60.0195315,65.6705353 L60.3384873,59.4385583 C60.3718664,58.7571189 60.0354263,58.4137373 59.3281074,58.4137373 L59.3281074,58.4137373 Z M43.6701334,65.0966355 L41.8591851,65.1365636 L42.1977445,58.4137373 L40.3009643,58.4137373 L39.9306153,65.7205785 C39.8972362,66.402018 40.2257289,66.7432701 40.9219214,66.7432701 C41.2742563,66.7432701 41.7209003,66.7038744 42.2660922,66.6202916 C42.7148556,66.5494858 43.1609698,66.4813418 43.6049647,66.4078741 L43.5911892,66.6932269 L45.4937976,66.6932269 L45.9165994,58.4137373 L44.011342,58.4137373 L43.6701334,65.0966355 Z M29.1438697,65.1365636 L27.9671242,65.1365636 C27.5443223,65.1365636 27.3435179,64.9289375 27.3641812,64.5147501 L27.5649856,60.5474946 C27.5861786,60.1466165 27.8002287,59.9469761 28.212434,59.9469761 C28.3713821,59.9469761 28.7655733,59.9815804 29.4018954,60.0470625 L29.1438697,65.1365636 Z M29.470243,58.7177231 C28.2749536,58.4925287 27.5549188,58.3823272 27.3175564,58.3823272 C26.8370034,58.3823272 26.4539386,58.518615 26.1667724,58.7917232 C25.8796062,59.0664285 25.7259564,59.4385583 25.7021142,59.9134365 L25.4435587,64.9816426 C25.418127,65.5007078 25.5532329,65.9069096 25.8536447,66.2029099 C26.1535267,66.4967807 26.5710303,66.6458456 27.1061555,66.6458456 L29.0681044,66.6458456 L28.9796233,68.3584946 L27.2523877,68.3584946 L27.3016616,67.3672131 L25.4568044,67.3672131 L25.3889865,68.6965525 C25.3550776,69.377992 25.696816,69.7192441 26.4142016,69.7192441 L29.7388653,69.7192441 C30.4562509,69.7192441 30.8318981,69.377992 30.8663369,68.6965525 L31.3903357,58.4137373 L29.485608,58.4137373 L29.470243,58.7177231 Z M14.5497881,66.6932269 L16.429084,66.6932269 L16.8487069,58.4137373 L14.9699408,58.4137373 L14.5497881,66.6932269 Z M15.0117971,57.2260095 L16.9244722,57.2260095 L17.0235498,55.2908279 L15.1108748,55.2908279 L15.0117971,57.2260095 Z M3.59879615,68.1535304 L2.38814171,68.1535304 L2.30972733,69.7192441 L4.33949414,69.7192441 C5.0441639,69.7192441 5.41769185,69.377992 5.45160077,68.6965525 L5.97295043,58.4137373 L4.09471411,58.4137373 L3.59879615,68.1535304 Z M4.13868975,57.2260095 L6.05136481,57.2260095 L6.1477933,55.2908279 L4.23564807,55.2908279 L4.13868975,57.2260095 Z" id="Fill-3"></path>
                </g>
                <g id="Group-19">
                    <g id="Group-8">
                        <mask id="mask-2" fill="white">
                            <use xlink:href="#path-1"></use>
                        </mask>
                        <g id="Clip-7"></g>
                        <polygon id="Fill-6" fill="#540362" mask="url(#mask-2)" points="16.5490761 -76.7595427 -64.7985121 5.94890972 61.423668 128.507942 142.771256 45.7968561"></polygon>
                    </g>
                    <g id="Group-11">
                        <mask id="mask-4" fill="white">
                            <use xlink:href="#path-3"></use>
                        </mask>
                        <g id="Clip-10"></g>
                        <polygon id="Fill-9" fill="#7819BF" mask="url(#mask-4)" points="14.5905767 -104.782192 -66.7570115 -22.0737399 59.4651686 100.485292 140.812757 17.7742065"></polygon>
                    </g>
                    <g id="Group-14">
                        <mask id="mask-6" fill="white">
                            <use xlink:href="#path-5"></use>
                        </mask>
                        <g id="Clip-13"></g>
                        <polygon id="Fill-12" fill="#EB1854" mask="url(#mask-6)" points="-23.641189 -97.8389799 -69.6294561 13.7874105 101.386745 83.3422486 147.372362 -28.2841419"></polygon>
                    </g>
                    <mask id="mask-8" fill="white">
                        <use xlink:href="#path-7"></use>
                    </mask>
                    <g id="Clip-16"></g>
                    <polygon id="Fill-15" fill="#FE6541" mask="url(#mask-8)" points="-149.479493 41.5359278 110.552277 41.5359278 110.552277 -58.0070443 -149.479493 -58.0070443"></polygon>
                    <polygon id="Fill-17" fill="#FF9C12" mask="url(#mask-8)" points="-60.4623347 66.2170063 -106.450602 -45.4093841 64.5655998 -114.964222 110.551217 -3.33783168"></polygon>
                    <polygon id="Fill-18" fill="#FFD812" mask="url(#mask-8)" points="-45.6907924 85.2543285 -127.038381 2.5464028 -0.816200438 -120.013156 80.5319179 -37.3020703"></polygon>
                </g>
            </g>
        </g>
    </g>
</svg>