
<svg width="644px" height="330px" viewBox="0 0 644 330" version="1.1" xmlns="http://www.w3.org/2000/svg" xmlns:xlink="http://www.w3.org/1999/xlink">
    <!-- Generator: Sketch 47.1 (45422) - http://www.bohemiancoding.com/sketch -->
    <desc>Created with Sketch.</desc>
    <defs>
        <path d="M318.292246,49 L318.292246,71.369591 L304.576353,95.1155706 L292.269071,95.1155706 L292.269071,102.528959 L300.293933,102.528959 L275,146.321255 L318.292246,146.321255 L318.292246,167 L325.709033,167 L325.709033,146.321255 L369,146.321255 L369,146.320935 L343.706067,102.528959 L351.730929,102.528959 L351.730929,95.1155706 L339.423967,95.1155706 L325.709033,71.369591 L325.709033,49 L318.292246,49 Z M325.709033,86.1973264 L330.859127,95.1155706 L325.709033,95.1155706 L325.709033,86.1973264 Z M318.292246,86.1973264 L318.292246,95.1155706 L313.140554,95.1155706 L318.292246,86.1973264 Z M325.709033,102.528959 L335.141547,102.528959 L356.153379,138.907866 L325.709033,138.907866 L325.709033,102.528959 Z M308.858453,102.528959 L318.290967,102.528959 L318.290967,138.907866 L287.846941,138.907866 L308.858453,102.528959 Z" id="path-1"></path>
    </defs>
    <g id="Page-1" stroke="none" stroke-width="1" fill="none" fill-rule="evenodd">
        <g id="H5-1" transform="translate(-55.000000, -2706.000000)">
            <g id="Group-6" transform="translate(55.000000, 2706.000000)">
                <rect id="Rectangle-5" fill="#38B0E4" x="0" y="0" width="644" height="330"></rect>
                <text id="年度变革力量" font-family="PingFangSC-Semibold, PingFang SC" font-size="24" font-weight="500" letter-spacing="-0.24000001" fill="#000000">
                    <tspan x="251.22" y="208">年度变革力量</tspan>
                </text>
                <text id="敬请期待" font-family="PingFangSC-Regular, PingFang SC" font-size="20" font-weight="normal" letter-spacing="0.435000002" fill="#000000">
                    <tspan x="271" y="297">敬请期待</tspan>
                </text>
                <text id="Global-Revolution" font-family="PingFangSC-Semibold, PingFang SC" font-size="12" font-weight="500" letter-spacing="0.289999992" fill="#000000">
                    <tspan x="269.165" y="230">Global Revolution</tspan>
                </text>
                <g id="Page-1">
                    <use fill="#1A1919" fill-rule="evenodd" xlink:href="#path-1"></use>
                    <path stroke="#38B0E4" stroke-width="1" d="M325.209033,49.5 L325.709033,49.5 L325.209033,49 L325.209033,49.5 Z M351.230929,95.6155706 L351.730929,95.6155706 L351.230929,95.1155706 L351.230929,95.6155706 Z M351.230929,102.028959 L351.230929,102.528959 L351.730929,102.028959 L351.230929,102.028959 Z M325.209033,166.5 L325.209033,167 L325.709033,166.5 L325.209033,166.5 Z M318.792246,166.5 L318.292246,166.5 L318.792246,167 L318.792246,166.5 Z M275.866204,145.821255 L275,145.821255 L275.432968,146.571332 L275.866204,145.821255 Z M292.769071,102.028959 L292.269071,102.028959 L292.769071,102.528959 L292.769071,102.028959 Z M292.769071,95.6155706 L292.769071,95.1155706 L292.269071,95.6155706 L292.769071,95.6155706 Z M318.792246,49.5 L318.792246,49 L318.292246,49.5 L318.792246,49.5 Z M368.133977,145.821255 L368.567033,146.571014 L368.999447,146.321255 L369,146.321255 L369,145.821255 L368.133977,145.821255 Z M325.209033,84.3316597 L331.725248,95.6155706 L325.209033,95.6155706 L325.209033,84.3316597 Z M318.792246,84.332161 L318.792246,95.6155706 L312.274298,95.6155706 L318.792246,84.332161 Z M325.209033,102.028959 L335.430164,102.028959 L357.019579,139.407866 L325.209033,139.407866 L325.209033,102.028959 Z M308.569834,102.028959 L318.790967,102.028959 L318.790967,139.407866 L286.980747,139.407866 L308.569834,102.028959 Z"></path>
                </g>
                <circle id="Oval-3" fill="#000000" cx="600" cy="37" r="18"></circle>
                <text id="ii" font-family="PingFangSC-Semibold, PingFang SC" font-size="24" font-weight="500" letter-spacing="0.435" fill="#FFF794">
                    <tspan x="593" y="46">ii</tspan>
                </text>
            </g>
        </g>
    </g>
</svg>