
<svg width="644px" height="330px" viewBox="0 0 644 330" version="1.1" xmlns="http://www.w3.org/2000/svg" xmlns:xlink="http://www.w3.org/1999/xlink">
    <!-- Generator: Sketch 47.1 (45422) - http://www.bohemiancoding.com/sketch -->
    <desc>Created with Sketch.</desc>
    <defs>
        <polygon id="path-1" points="0 108.627544 107 108.627544 107 0 0 0"></polygon>
        <path d="M41.5053669,79.3138758 C40.9463308,80.5928775 38.328149,81.1500317 35.4558598,79.9008149 C32.5870756,78.6515982 31.2096386,76.3544322 31.7686747,75.0721454 C32.1069003,74.2922609 33.2109529,73.7806602 34.6690033,73.7806602 C35.6083242,73.7806602 36.6930997,73.9928782 37.8181818,74.4817021 C40.6852136,75.7309189 42.0626506,78.0296179 41.5053669,79.3138758 L41.5053669,79.3138758 Z M99.3139102,75.1665375 L94.056517,84.2686934 L86.2054765,79.7361216 L85.2626506,80.8887562 C83.471632,83.0825507 81.4510405,85.1009206 79.2569551,86.8930561 L78.1038335,87.8358818 L82.6374589,95.6850979 L73.5334064,100.941269 L68.9997809,93.0938054 L67.6048193,93.6246787 C66.5778751,94.0153874 65.5176342,94.3710551 64.4503834,94.6829212 C56.8148959,96.9115379 48.5047097,96.9062818 40.9060241,94.6934336 C28.969989,91.2226083 19.4383352,82.753164 14.4455641,71.8343437 L24.6343921,71.8343437 L24.6343921,68.3302294 L13.0260679,68.3302294 C12.0394304,65.526938 11.3314348,62.5937753 10.954655,59.5627164 L10.8477547,58.7164727 L3.50492881,54.3137721 L10.8775465,49.8933319 L10.9844469,49.0470883 C10.9844469,49.0453362 10.9844469,49.0416131 10.9861993,49.04008 L37.2083242,47.4965177 C37.7042716,47.4684848 38.1721796,47.3493449 38.6208105,47.1934118 C37.5307777,49.3342066 36.9016429,51.7487604 36.9016429,54.3137721 C36.9016429,63.0092318 43.9763417,70.0822866 52.6738226,70.0822866 C61.3713034,70.0822866 68.4460022,63.0092318 68.4460022,54.3137721 C68.4460022,45.6183124 61.3713034,38.5452576 52.6738226,38.5452576 C48.615115,38.5452576 44.92092,40.0991133 42.1222344,42.6273318 C42.1309967,42.4994316 42.1590361,42.3787587 42.1590361,42.2491065 L42.1590361,33.2890861 C42.1590361,32.2921656 41.8646221,31.3705835 41.3809419,30.5751496 C44.8876232,28.9089432 48.7588171,28.0329146 52.6738226,28.0329146 C67.1684556,28.0329146 78.9607886,39.8225073 78.9607886,54.3137721 C78.9607886,68.8050369 67.1684556,80.5946296 52.6738226,80.5946296 C50.0766703,80.5946296 47.5303395,80.1986646 45.0751369,79.4573255 C45.536035,76.4054609 43.1912377,72.9994618 39.2166484,71.2684293 C34.6812705,69.297365 30.0004381,70.3501323 28.5529025,73.6740038 C27.1088719,76.9939331 29.5255203,81.1412714 34.0556407,83.1140878 C35.5995619,83.7851257 37.1592552,84.1057521 38.6032859,84.1057521 C40.4608981,84.1057521 42.116977,83.5643665 43.3069003,82.5656939 C45.7691128,83.3821525 48.3189485,83.8709765 50.9231106,84.0216534 L50.9231106,89.3549154 L50.9231106,91.1069726 L52.675575,91.1069726 C72.9673604,91.1069726 89.4773275,74.600623 89.4773275,54.3137721 C89.4773275,34.0267022 72.9673604,17.5205716 52.675575,17.5205716 C42.9669222,17.5205716 33.8768894,21.2629657 26.9616648,28.0329146 L19.9412924,28.0329146 C26.3150055,20.1013518 35.4838992,14.4895128 45.9443593,12.8075379 L47.4164294,12.5690391 L47.4164294,3.50411433 L57.9312158,3.50411433 L57.9312158,12.5710102 L59.4050383,12.8075379 C62.1967141,13.2560645 64.9550931,13.9954326 67.6048193,15.0011134 L68.9997809,15.5319868 L73.5334064,7.68452272 L82.6374589,12.9406942 L78.1038335,20.7896913 L79.2569551,21.7325171 C81.4510405,23.5231195 83.4698795,25.5430224 85.2626506,27.736817 L86.2054765,28.8896706 L94.056517,24.3568797 L99.3139102,33.4590357 L91.4646221,37.9913885 L91.9956188,39.3862451 C93.0015334,42.0351365 93.7410734,44.7930935 94.1897043,47.5841205 L94.426287,49.0576006 L103.495071,49.0576006 L103.495071,59.5699436 L94.426287,59.5699436 L94.1897043,61.0432047 C93.7410734,63.8342317 93.0015334,66.5921887 91.9956188,69.2412991 L91.4646221,70.6359366 L99.3139102,75.1665375 Z M42.1590361,105.12343 L42.1590361,98.6232978 C45.588609,99.4345003 49.1110624,99.8672584 52.6738226,99.8672584 C56.2295728,99.8672584 59.7520263,99.4325292 63.188609,98.6162896 L63.188609,105.12343 L42.1590361,105.12343 Z M36.9016429,31.537029 C37.8690033,31.537029 38.6541073,32.3219506 38.6541073,33.2890861 L38.6541073,42.2491065 C38.6541073,43.1757257 37.9303395,43.9433457 37.0050383,43.9976595 L11.5943045,45.4919453 C12.6773275,40.4514958 14.6961665,35.7470033 17.426506,31.5352769 L36.9016429,31.5352769 L36.9016429,31.537029 Z M37.5535597,24.6669938 L38.9818182,27.8715064 C38.7452355,27.9943694 38.5051479,28.1080341 38.2720701,28.2359343 C37.8304491,28.1167944 37.3783133,28.0329146 36.9016429,28.0329146 L32.2856517,28.0329146 C33.9452355,26.7396774 35.7047097,25.6133237 37.5535597,24.6669938 L37.5535597,24.6669938 Z M52.6738226,42.0493719 C59.4365827,42.0493719 64.9410734,47.5525835 64.9410734,54.3137721 C64.9410734,61.0749607 59.4365827,66.5781723 52.6738226,66.5781723 C45.9110624,66.5781723 40.4065717,61.0749607 40.4065717,54.3137721 C40.4065717,47.5525835 45.9110624,42.0493719 52.6738226,42.0493719 L52.6738226,42.0493719 Z M44.0499452,22.1827958 L44.777218,25.6028113 C43.8992333,25.8428432 43.0335159,26.1266764 42.1800657,26.4455508 L40.7553122,23.2460755 C41.8330778,22.832809 42.9318729,22.4806455 44.0499452,22.1827958 L44.0499452,22.1827958 Z M50.9213582,24.5848661 C50.0118291,24.6391799 49.1075575,24.7423323 48.2085433,24.8789927 L47.483023,21.4642333 C48.6168675,21.2874945 49.7629792,21.1718588 50.9213582,21.1103178 L50.9213582,24.5848661 Z M57.1338445,24.9002364 C56.2418401,24.765328 55.3410734,24.6707169 54.426287,24.6181552 L54.426287,21.1140409 C55.5899233,21.1753629 56.7342826,21.2925317 57.8646221,21.4714606 L57.1338445,24.9002364 Z M63.1553122,26.4683276 C62.3088719,26.1474821 61.4466594,25.8654009 60.5651698,25.623836 L61.294195,22.1965932 C62.4157722,22.497947 63.5128149,22.8518626 64.5835706,23.263596 L63.1553122,26.4683276 Z M68.7176342,29.2558505 C67.9535597,28.7650555 67.1702081,28.3062355 66.3605696,27.8857418 L67.7853231,24.6862664 C68.8157722,25.2138547 69.8164294,25.7867773 70.7820372,26.4140138 L68.7176342,29.2558505 Z M73.5859803,33.131401 C72.9375685,32.4919001 72.2663746,31.8784611 71.5618839,31.3005012 L73.6192771,28.4691769 C74.5165389,29.1980326 75.3822563,29.9617106 76.1989047,30.7783882 L73.5859803,33.131401 Z M77.5342826,37.9407979 C77.0330778,37.1801861 76.4933187,36.4495782 75.9255203,35.7402141 L78.5366922,33.3889534 C79.2622125,34.2842546 79.9351588,35.2216052 80.566046,36.1887407 L77.5342826,37.9407979 Z M80.3907996,43.4665672 C80.0578313,42.6168195 79.6845564,41.7900675 79.2762322,40.9806171 L82.3167579,39.2248368 C82.8407448,40.2482572 83.3069003,41.3027766 83.7222344,42.3840149 L80.3907996,43.4665672 Z M82.0346112,49.467582 C81.8856517,48.5635205 81.6963855,47.6769796 81.4685652,46.802703 L84.8052574,45.7181797 C85.1014239,46.8252608 85.339759,47.9520525 85.5220153,49.101402 L82.0346112,49.467582 Z M85.9706462,54.3137721 C85.9706462,54.8972071 85.9163198,55.4664067 85.8865279,56.0430525 L82.3973713,55.6766536 C82.4166484,55.2211187 82.4657174,54.7743441 82.4657174,54.3137721 C82.4657174,53.8529811 82.4166484,53.4062065 82.3973713,52.9506716 L85.883023,52.5842727 C85.9128149,53.1609185 85.9706462,53.7303371 85.9706462,54.3137721 L85.9706462,54.3137721 Z M84.8105148,62.9111166 L81.4685652,61.8248412 C81.6963855,60.9503456 81.8856517,60.0640237 82.0346112,59.1599622 L85.5237678,59.5259232 C85.343264,60.6754917 85.1066813,61.8038165 84.8105148,62.9111166 L84.8105148,62.9111166 Z M82.3307777,69.4092776 L79.2762322,67.6469271 C79.6845564,66.8372577 80.0560789,66.0105057 80.3907996,65.160758 L83.7327492,66.2470334 C83.3156627,67.3263007 82.853012,68.3845432 82.3307777,69.4092776 L82.3307777,69.4092776 Z M78.5331873,75.2350867 L75.9255203,72.8871111 C76.4933187,72.1777469 77.0330778,71.4471391 77.5342826,70.6865273 L80.5835706,72.4458117 C79.950931,73.4144803 79.26046,74.3397855 78.5331873,75.2350867 L78.5331873,75.2350867 Z M73.6070099,80.1390947 L71.5636364,77.327043 C72.2663746,76.7488641 72.9393209,76.1354251 73.5877327,75.4959242 L76.1796276,77.8298834 C75.3629792,78.6443709 74.5025192,79.411772 73.6070099,80.1390947 L73.6070099,80.1390947 Z M67.7835706,83.9358026 L66.3605696,80.7418024 C67.1702081,80.3213086 67.9535597,79.8622697 68.7176342,79.3716937 L70.7732749,82.201266 C69.8094195,82.8285025 68.8122673,83.4082144 67.7835706,83.9358026 L67.7835706,83.9358026 Z M61.2976999,86.4500046 L60.5651698,83.0052412 C61.4466594,82.7619243 62.3088719,82.4798431 63.1553122,82.1609687 L64.5853231,85.3724895 C63.5145674,85.7822518 62.4210296,86.1486508 61.2976999,86.4500046 L61.2976999,86.4500046 Z M54.426287,84.00917 C55.3410734,83.9548562 56.2435926,83.8622162 57.1338445,83.7270888 L57.8698795,87.1874017 C56.7377875,87.3663305 55.5916758,87.4957637 54.426287,87.5555527 L54.426287,84.00917 Z M107,63.0740579 L107,45.5534863 L97.3897043,45.5534863 C96.9918949,43.520881 96.4538883,41.5097383 95.7809419,39.5474343 L104.103395,34.7430746 L95.3410734,19.5704785 L87.0133625,24.3779044 C85.6499452,22.8168214 84.1778751,21.3468455 82.6164294,19.982212 L87.4251917,11.6562173 L72.2488499,2.89593149 L67.4435926,11.216451 C65.4808324,10.5456321 63.4690033,10.0059985 61.4361446,9.60828149 L61.4361446,0 L43.9115005,0 L43.9115005,9.60828149 C25.0917853,13.2858495 10.3780942,28.7162169 7.62146769,47.7593262 L1.69989047,51.3089941 C0.637897043,51.9484949 0,53.0715636 0,54.3137721 C0,55.5559806 0.636144578,56.6788303 1.70164294,57.3183311 L7.58992333,60.8504784 C10.0644031,78.062907 22.1248631,92.2983714 38.6541073,97.6368896 L38.6541073,108.627544 L66.6935378,108.627544 L66.6935378,97.6474019 C66.9423877,97.5668073 67.1947426,97.494973 67.4435926,97.4091222 L72.2488499,105.729423 L87.4251917,96.9691368 L82.6164294,88.6435802 C84.1778751,87.2804797 85.6481928,85.8085327 87.0133625,84.2474497 L95.3410734,89.0550946 L104.103395,73.8822796 L95.7809419,69.0783578 C96.4538883,67.1160538 96.9918949,65.1046922 97.3897043,63.0723059 L107,63.0723059 L107,63.0740579 Z" id="path-3"></path>
    </defs>
    <g id="Page-1" stroke="none" stroke-width="1" fill="none" fill-rule="evenodd">
        <g id="H5-1" transform="translate(-55.000000, -3040.000000)">
            <g id="Group-6" transform="translate(55.000000, 3040.000000)">
                <rect id="Rectangle-5" fill="#51BDEC" x="0" y="0" width="644" height="330"></rect>
                <rect id="Rectangle-9" fill="#000000" x="262" y="268" width="120" height="42"></rect>
                <text id="报名" font-family="PingFangSC-Regular, PingFang SC" font-size="24" font-weight="normal" letter-spacing="0.435000002" fill="#FFFFFF">
                    <tspan x="298" y="298">报名</tspan>
                </text>
                <text id="AI-Pioneer" font-family="PingFangSC-Semibold, PingFang SC" font-size="12" font-weight="500" letter-spacing="0.289999992" fill="#000000">
                    <tspan x="291.222" y="230">AI Pioneer</tspan>
                </text>
                <text id="年度AI先锋" font-family="PingFangSC-Semibold, PingFang SC" font-size="24" font-weight="500" letter-spacing="-0.24000001" fill="#000000">
                    <tspan x="263.488" y="208">年度AI先锋</tspan>
                </text>
                <g id="Page-1" transform="translate(269.000000, 52.000000)">
                    <mask id="mask-2" fill="white">
                        <use xlink:href="#path-1"></use>
                    </mask>
                    <g id="Clip-2"></g>
                    <g id="Fill-1" mask="url(#mask-2)">
                        <use fill="#000000" fill-rule="evenodd" xlink:href="#path-3"></use>
                        <path stroke="#000000" stroke-width="1" d="M41.0469535,79.1142317 C41.5153101,78.032908 40.0801492,76.0126828 37.6189361,74.9402881 C36.6053465,74.4999053 35.5889068,74.2806602 34.6690033,74.2806602 C33.4051726,74.2806602 32.4753528,74.6993379 32.2270108,75.2719653 C31.7568111,76.350484 33.1918924,78.3696185 35.6552759,79.442303 C38.1204154,80.5144421 40.5756029,80.1906317 41.0469535,79.1142317 Z M98.6307884,75.3495527 L90.8457958,70.8560632 L90.9973455,70.4580249 L91.5281833,69.0638055 C92.5238743,66.441619 93.253608,63.7163223 93.696029,60.9639281 L94.0001733,59.0699436 L102.995071,59.0699436 L102.995071,49.5576006 L94.0001633,49.5576006 L93.9326099,49.1368656 L93.6960411,47.6634722 C93.2535974,44.9109368 92.5238509,42.1856467 91.5283329,39.5641324 L90.845841,37.7713183 L98.6308303,33.2760929 L93.8735847,25.0398454 L86.0874547,29.5351603 L85.818429,29.2062054 L84.8754859,28.0532083 C83.1013522,25.8822202 81.1057456,23.886696 78.9404644,22.1196006 L77.4582551,20.9077031 L81.9543621,13.123661 L73.7163006,8.36746441 L69.2197837,16.1506956 L68.8219414,15.9992909 L67.4273977,15.4685764 C64.8044518,14.4730598 62.0787157,13.7435185 59.3258092,13.3012207 L57.4312158,12.9971652 L57.4312158,4.00411433 L47.9164294,4.00411433 L47.9164294,12.9945509 L47.4963946,13.0626032 L46.0237365,13.3011969 C36.2420168,14.8740347 27.3922268,19.9724509 21.001307,27.5329146 L26.7584347,27.5329146 C33.7653877,20.7454853 42.9276595,17.0205716 52.675575,17.0205716 C73.2434767,17.0205716 89.9773275,33.7505338 89.9773275,54.3137721 C89.9773275,74.8768665 73.2434016,91.6069726 52.675575,91.6069726 L50.4231106,91.6069726 L50.4231106,84.4898903 C48.0327797,84.3143114 45.6858564,83.8573714 43.4083645,83.124822 C42.1455423,84.089452 40.4639651,84.6057521 38.6032859,84.6057521 C37.0557575,84.6057521 35.4291377,84.2562385 33.8560055,83.5725044 C29.0985107,81.500669 26.5243708,77.0841748 28.0944873,73.4743654 C29.6675283,69.8623049 34.6511585,68.7391006 39.4162976,70.8100188 C43.3555387,72.5256563 45.8502445,75.8844715 45.6181327,79.0956593 C47.9364209,79.7569958 50.2992186,80.0946296 52.6738226,80.0946296 C66.8923393,80.0946296 78.4607886,68.5288685 78.4607886,54.3137721 C78.4607886,40.0986757 66.8923393,28.5329146 52.6738226,28.5329146 C49.0178826,28.5329146 45.3934547,29.3118044 42.0760462,30.8045245 C42.4561818,31.5813036 42.6590361,32.4217095 42.6590361,33.2890861 L42.6590361,41.5211679 C45.4987348,39.2891876 48.9926451,38.0452576 52.6738226,38.0452576 C61.6474198,38.0452576 68.9460022,45.342144 68.9460022,54.3137721 C68.9460022,63.2854002 61.6474198,70.5822866 52.6738226,70.5822866 C43.7002254,70.5822866 36.4016429,63.2854002 36.4016429,54.3137721 C36.4016429,52.1025096 36.8550848,49.9490615 37.7170122,47.9436274 C37.556785,47.9692241 37.3976286,47.9866146 37.2377058,47.9956536 L11.4293299,49.5148607 L11.3431396,50.1971597 L4.47725023,54.3137781 L11.3133482,58.4126487 L11.3438124,58.6538091 L11.4508362,59.5010379 C11.8025343,62.3303231 12.4517236,65.1164698 13.381703,67.8302294 L25.1343921,67.8302294 L25.1343921,72.3343437 L15.2320567,72.3343437 C20.3119101,82.9138337 29.6517428,90.9001423 41.0458241,94.2133753 C48.5645023,96.4029241 56.777573,96.4015689 64.3101411,94.202992 C65.3649203,93.8947702 66.4126266,93.543293 67.4269798,93.1573746 L69.2197837,92.4750965 L73.7163006,100.258328 L81.9543674,95.5021281 L77.4582591,87.7178667 L77.7873428,87.4487983 L78.9406561,86.5058159 C81.1123763,84.7319484 83.1084894,82.7367349 84.8756327,80.5721853 L86.0874837,79.0906588 L93.8735795,83.5857368 L98.6307884,75.3495527 Z M42.6590361,104.62343 L62.688609,104.62343 L62.688609,99.2447088 C59.365959,99.9880449 56.013793,100.367258 52.6738226,100.367258 C49.3289499,100.367258 45.9767097,99.9901089 42.6590361,99.2511175 L42.6590361,104.62343 Z M36.4016429,32.0352769 L17.6992552,32.0352769 C15.1421293,36.0345939 13.2862944,40.3908915 12.2268847,44.9538824 L36.9757395,43.4985187 C37.6366691,43.4597231 38.1541073,42.9110279 38.1541073,42.2491065 L38.1541073,33.2890861 C38.1541073,32.598119 37.5928869,32.037029 36.9016429,32.037029 L36.4016429,32.037029 L36.4016429,32.0352769 Z M38.2083295,27.7032978 C38.2645568,27.7170249 38.3213758,27.7315628 38.3788685,27.7469048 C38.3866677,27.748986 38.3944792,27.751082 38.4023034,27.7531928 L38.2720701,28.2359343 L38.0315333,27.7975941 C38.0906259,27.7651674 38.1448687,27.7362065 38.2083295,27.7032978 C38.245288,27.6841324 38.2853731,27.663628 38.3313635,27.6403202 C38.3743425,27.6185387 38.4224787,27.594309 38.4780401,27.5664359 L38.5201598,27.5453033 C38.6375422,27.4863062 38.686081,27.4616855 38.7513781,27.4277752 L38.9818182,27.8715064 L38.5251259,28.0750552 L37.3134641,25.35651 C36.1023583,26.0020406 34.9283208,26.7284318 33.7949862,27.5329146 L36.9016429,27.5329146 C37.327571,27.5329146 37.7481343,27.5909481 38.2083295,27.7032978 Z M52.6738226,42.5493719 C46.1871788,42.5493719 40.9065717,47.8287519 40.9065717,54.3137721 C40.9065717,60.7987923 46.1871788,66.0781723 52.6738226,66.0781723 C59.1604663,66.0781723 64.4410734,60.7987923 64.4410734,54.3137721 C64.4410734,47.8287519 59.1604663,42.5493719 52.6738226,42.5493719 Z M43.6711488,22.8053335 C42.9062618,23.0218014 42.158964,23.2625217 41.4283519,23.5283638 L42.4468829,25.8156119 C43.0323657,25.6062009 43.6131965,25.4172285 44.1907782,25.2489016 L43.6711488,22.8053335 Z M50.4213582,24.1180537 L50.4213582,21.6414459 C49.6275199,21.6953166 48.8484535,21.7750311 48.0827912,21.8812758 L48.60026,24.3168127 C49.2240431,24.2303924 49.8289663,24.1639843 50.4213582,24.1180533 Z M56.7422204,24.3390502 L57.2647619,21.8873092 C56.4989324,21.7794698 55.7203288,21.6989488 54.926287,21.6450565 L54.926287,24.1497968 C55.5341883,24.1943771 56.1389975,24.2574654 56.7422204,24.3390502 Z M62.8893535,25.8368098 L63.910597,23.54534 C63.1826587,23.2795869 62.4369,23.038085 61.6727331,22.8201916 L61.1515998,25.2701076 C61.7357696,25.4405028 62.3147064,25.6293726 62.8893535,25.8368098 Z M68.5886225,28.5827117 L70.0652225,26.5500389 C69.4110407,26.14091 68.7317521,25.749985 68.0257753,25.3754116 L67.0072372,27.6626757 C67.535828,27.9486189 68.0619678,28.2549841 68.5886224,28.5827116 Z M73.5992479,32.4465951 L75.4690963,30.7627435 C74.9233413,30.2371249 74.3401872,29.7170607 73.7115881,29.1927066 L72.2410738,31.2163854 C72.6947858,31.6021735 73.1457582,32.0111325 73.5992485,32.4465946 Z M77.6887022,37.2740709 L79.8557257,36.0217473 C79.4067495,35.3542397 78.9480302,34.7198169 78.4763446,34.1161298 L76.6083164,35.7982179 C76.9930507,36.2925506 77.3523796,36.7828289 77.6887022,37.2740709 Z M80.6806254,42.8466522 L83.0626746,42.0726034 C82.7657969,41.3338484 82.4476934,40.6175859 82.1073604,39.9231329 L79.9324136,41.1790765 C80.201914,41.7338395 80.4511883,42.2889733 80.6806253,42.8466522 Z M82.4476172,48.9214673 L84.9415486,48.6596027 C84.8055627,47.8809132 84.6432581,47.1140706 84.4543219,46.3579921 L82.0677723,47.1336911 C82.2125638,47.7265476 82.3391431,48.3219727 82.4476172,48.9214673 Z M85.416263,53.1360915 L82.9243818,53.398029 C82.9250973,53.4086648 82.9258318,53.4195626 82.9265863,53.4307368 L82.9272128,53.440016 C82.9557432,53.8625918 82.9657174,54.0619524 82.9657174,54.3137721 C82.9657174,54.5643587 82.9557045,54.7652795 82.927555,55.1822535 L82.9265861,55.1966025 C82.9258331,55.2077543 82.9251,55.2186308 82.9243861,55.2292465 L85.4190101,55.4912089 C85.4193827,55.4854862 85.41976,55.4796953 85.4201421,55.4738343 L85.4237639,55.4182344 C85.4578713,54.8938812 85.4706462,54.6228547 85.4706462,54.3137721 C85.4706462,54.006109 85.4577411,53.7478842 85.4209292,53.2049589 L85.4193324,53.1814155 C85.4182764,53.1658466 85.4172539,53.150749 85.416263,53.1360915 Z M84.4594257,62.2712477 C84.6474191,61.5171839 84.8088495,60.7495901 84.9441081,59.9678681 L82.447624,59.7060239 C82.3391721,60.3053641 82.2125951,60.9007392 82.0677535,61.4938527 L84.4594257,62.2712477 Z M82.1202942,68.7105844 C82.4543744,68.0247542 82.7707323,67.3085833 83.0726091,66.55821 L80.6800681,65.7805326 C80.4482071,66.3429654 80.1991411,66.8983346 79.9323545,67.4482307 L82.1202942,68.7105844 Z M78.4742521,74.5092016 C78.9806751,73.8687161 79.4447085,73.2399152 79.8716474,72.6123182 L77.6888911,71.3529786 C77.3525164,71.8443094 76.9931277,72.3346754 76.6083243,72.8290972 L78.4742521,74.5092016 Z M73.699102,79.4152606 C74.3110659,78.903332 74.8942967,78.380682 75.4496399,77.8453843 L73.6009443,76.180664 C73.1506096,76.6128114 72.6986169,77.0224699 72.2425462,77.4107762 L73.699102,79.4152606 Z M68.0236038,83.245951 C68.7133592,82.8779424 69.3914135,82.4843567 70.0569532,82.0659503 L68.5885976,80.0447711 C68.0613389,80.3728146 67.5352979,80.6791599 67.0073055,80.9648163 L68.0236038,83.245951 Z M61.6761405,85.82579 C62.410056,85.6144811 63.1523079,85.3699063 63.9125573,85.0907802 L62.8888852,82.7918158 C62.3139661,82.9984756 61.7351347,83.18727 61.1514243,83.3582829 L61.6761405,85.82579 Z M54.926287,84.4769396 L54.926287,87.0244265 C55.6932747,86.9710857 56.4718251,86.8867608 57.270373,86.7721816 L56.7420394,84.288333 C56.1468287,84.368647 55.541827,84.4313838 54.926287,84.4769395 Z M107,63.0740579 L106.5,63.0740579 L106.5,63.0723059 L107,63.0723059 L107,63.0740579 Z M107,63.0740579 L107,63.5723059 L97.7994425,63.5723059 C97.4332261,65.358191 96.9605173,67.1235408 96.3858043,68.8501803 L104.786481,73.6992543 L95.5240451,89.7380649 L87.1176651,84.8850038 C85.9025912,86.2503039 84.6112701,87.5418218 83.2542032,88.7480894 L88.1083044,97.1521426 L72.065875,106.412363 L67.2126649,98.0090323 C67.2050793,98.011376 67.198883,98.0132904 67.1935378,98.0149416 L67.1935378,109.127544 L38.1541073,109.127544 L38.1541073,97.9993336 C21.6777201,92.5349357 9.68617407,78.3132086 7.12952082,61.1573604 L1.44433534,57.7470418 C0.228187653,57.0171228 -0.5,55.7314935 -0.5,54.3137721 C-0.5,52.8976776 0.228493972,51.6113711 1.4428172,50.8801429 L7.16134608,47.4521916 C10.0124047,28.4589758 24.6392022,13.0444453 43.4115005,9.19844069 L43.4115005,-0.5 L61.9361446,-0.5 L61.9361446,9.19852681 C63.7154039,9.56339238 65.4813773,10.0363919 67.2153086,10.6119539 L72.06587,2.21298847 L88.1082945,11.4732059 L83.254105,19.8778541 C84.6192031,21.0920475 85.9109122,22.3830185 87.117855,23.7402501 L95.5240474,18.8875183 L104.786474,34.9260812 L96.3857999,39.7755957 C96.9605917,41.502448 97.4332786,43.2676691 97.7994501,45.0534863 L107.5,45.0534863 L107.5,63.0740579 L107,63.0740579 Z"></path>
                    </g>
                </g>
                <circle id="Oval-3" fill="#000000" cx="600" cy="43" r="18"></circle>
                <text id="ii" font-family="PingFangSC-Semibold, PingFang SC" font-size="24" font-weight="500" letter-spacing="0.435" fill="#FFF794">
                    <tspan x="593" y="52">ii</tspan>
                </text>
            </g>
        </g>
    </g>
</svg>