
<svg width="644px" height="330px" viewBox="0 0 644 330" version="1.1" xmlns="http://www.w3.org/2000/svg" xmlns:xlink="http://www.w3.org/1999/xlink">
    <!-- Generator: Sketch 47.1 (45422) - http://www.bohemiancoding.com/sketch -->
    <desc>Created with Sketch.</desc>
    <defs>
        <polygon id="path-1" points="0 107 132 107 132 0 0 0"></polygon>
        <path d="M81.516129,103.774194 L110.548387,103.774194 L110.548387,77.9677419 L81.516129,77.9677419 L81.516129,103.774194 Z M84.7419355,68.2903226 L86.3548387,68.2903226 L105.709677,68.2903226 L107.322581,68.2903226 L107.322581,74.7419355 L84.7419355,74.7419355 L84.7419355,68.2903226 Z M89.5806452,50.1225806 C91.4112903,51.4032258 93.633871,52.1612903 96.0322581,52.1612903 C98.4306452,52.1612903 100.653226,51.4032258 102.483871,50.1225806 L102.483871,65.0645161 L89.5806452,65.0645161 L89.5806452,50.1225806 Z M79.7096774,29.1548387 C83.8564516,27.9951613 87.0403226,24.5274194 87.7887097,20.2258065 L96.1645161,29.5870968 C96.1209677,29.5870968 96.0774194,29.5806452 96.0322581,29.5806452 C91.5336694,29.5806452 87.6516129,32.2322581 85.8387097,36.05 L79.7096774,29.1548387 Z M57.8677419,40.033871 C55.7774194,41.9629032 52.5693548,41.9 50.5580645,39.8887097 C49.5435484,38.8741935 48.9935484,37.5241935 49.0129032,36.0903226 C49.0322581,34.6564516 49.6145161,33.3209677 50.6548387,32.333871 L65.3903226,18.333871 C65.4064516,22.4370968 67.6274194,26.0209677 70.9225806,27.983871 L57.8677419,40.033871 Z M76.6774194,10.2258065 C81.1241935,10.2258065 84.7419355,13.8435484 84.7419355,18.2903226 C84.7419355,22.733871 81.1274194,26.35 76.683871,26.3548387 L76.666129,26.3548387 C72.2241935,26.3467742 68.6129032,22.7322581 68.6129032,18.2903226 C68.6129032,13.8435484 72.2306452,10.2258065 76.6774194,10.2258065 L76.6774194,10.2258065 Z M104.096774,40.8709677 C104.096774,45.3177419 100.479032,48.9354839 96.0322581,48.9354839 C91.5854839,48.9354839 87.9677419,45.3177419 87.9677419,40.8709677 C87.9677419,36.4241935 91.5854839,32.8064516 96.0322581,32.8064516 C100.479032,32.8064516 104.096774,36.4241935 104.096774,40.8709677 L104.096774,40.8709677 Z M23.4516129,103.774194 L23.4516129,90.8709677 L39.5806452,90.8709677 L39.5806452,87.6451613 L23.4516129,87.6451613 L23.4516129,77.9677419 L46.0322581,77.9677419 L46.0322581,87.6451613 L42.8064516,87.6451613 L42.8064516,90.8709677 L46.0322581,90.8709677 L46.0322581,103.774194 L23.4516129,103.774194 Z M26.6774194,74.7419355 L42.8064516,74.7419355 L42.8064516,71.516129 L26.6774194,71.516129 L26.6774194,74.7419355 Z M26.6774194,65.0645161 L37.9677419,65.0645161 C40.0677419,65.0645161 41.8419355,66.4177419 42.5096774,68.2903226 L26.6774194,68.2903226 L26.6774194,65.0645161 Z M113.774194,103.774194 L113.774194,74.7419355 L110.548387,74.7419355 L110.548387,65.0645161 L105.709677,65.0645161 L105.709677,46.6564516 C106.727419,44.9612903 107.322581,42.9870968 107.322581,40.8709677 C107.322581,36.866129 105.219355,33.35 102.067742,31.3451613 L87.4887097,15.0532258 C86.0935484,10.4016129 81.7774194,7 76.6774194,7 C72.716129,7 69.2306452,9.05645161 67.2145161,12.1532258 L48.4322581,29.9951613 C46.7564516,31.5870968 45.816129,33.7370968 45.7854839,36.0483871 C45.7645161,37.7322581 46.2403226,39.3387097 47.1258065,40.7225806 L38.4403226,49.4080645 L40.7209677,51.6887097 L49.3564516,43.0532258 C50.8306452,44.1129032 52.5516129,44.6693548 54.2870968,44.6677419 C56.35,44.6677419 58.4177419,43.916129 60.0548387,42.4048387 L74.2419355,29.3080645 C74.7274194,29.416129 75.2241935,29.4903226 75.7322581,29.5322581 L84.8,39.7322581 C84.7612903,40.1080645 84.7419355,40.4870968 84.7419355,40.8709677 C84.7419355,42.9870968 85.3387097,44.9612903 86.3548387,46.6564516 L86.3548387,65.0645161 L81.516129,65.0645161 L81.516129,74.7419355 L78.2903226,74.7419355 L78.2903226,103.774194 L49.2580645,103.774194 L49.2580645,74.7419355 L46.0322581,74.7419355 L46.0322581,71.516129 L49.2580645,71.516129 L49.2580645,68.2903226 L45.8693548,68.2903226 C45.1193548,64.6145161 41.8629032,61.8387097 37.9677419,61.8387097 L23.4516129,61.8387097 L23.4516129,68.2903226 L20.2258065,68.2903226 L20.2258065,71.516129 L23.4516129,71.516129 L23.4516129,74.7419355 L20.2258065,74.7419355 L20.2258065,103.774194 L17,103.774194 L17,107 L20.2258065,107 L49.2580645,107 L78.2903226,107 L113.774194,107 L117,107 L117,103.774194 L113.774194,103.774194 Z" id="path-3"></path>
    </defs>
    <g id="Page-1" stroke="none" stroke-width="1" fill="none" fill-rule="evenodd">
        <g id="H5-1" transform="translate(-55.000000, -3374.000000)">
            <g id="Group-7" transform="translate(55.000000, 3374.000000)">
                <rect id="Rectangle-5" fill="#51BDEC" x="0" y="0" width="644" height="330"></rect>
                <rect id="Rectangle-9" fill="#000000" x="262" y="268" width="120" height="42"></rect>
                <text id="报名" font-family="PingFangSC-Regular, PingFang SC" font-size="24" font-weight="normal" letter-spacing="0.435000002" fill="#FFFFFF">
                    <tspan x="298" y="298">报名</tspan>
                </text>
                <text id="Innovative-Product" font-family="PingFangSC-Semibold, PingFang SC" font-size="12" font-weight="500" letter-spacing="0.289999992" fill="#000000">
                    <tspan x="266.134" y="227">Innovative Product</tspan>
                </text>
                <text id="年度创新产品" font-family="PingFangSC-Semibold, PingFang SC" font-size="24" font-weight="500" letter-spacing="-0.24000001" fill="#080808">
                    <tspan x="251.22" y="205">年度创新产品</tspan>
                </text>
                <g id="Page-1" transform="translate(256.000000, 42.000000)">
                    <polygon id="Fill-1" fill="#000000" points="32 57 35 57 35 54 32 54"></polygon>
                    <polygon id="Fill-2" fill="#000000" points="28 52 31 52 31 49 28 49"></polygon>
                    <polygon id="Fill-3" fill="#000000" points="43 60 46 60 46 57 43 57"></polygon>
                    <polygon id="Fill-4" fill="#000000" points="49 57 52 57 52 54 49 54"></polygon>
                    <g id="Group-9">
                        <path d="M97.6451613,97.0936089 C98.7917339,96.7952218 99.8225806,96.2079234 100.629032,95.3871573 L98.0193548,93.8790927 L99.6322581,91.0855444 L102.224194,92.5823185 C102.375806,92.0337298 102.483871,91.4678024 102.483871,90.8710282 C102.483871,90.274254 102.375806,89.708125 102.225806,89.158125 L99.633871,90.6546976 L98.0209677,87.8613508 L100.629032,86.3546976 C99.8225806,85.5339315 98.7917339,84.9468347 97.6451613,84.648246 L97.6451613,87.6452218 L94.4193548,87.6452218 L94.4193548,84.648246 C93.2709677,84.9468347 92.2419355,85.5339315 91.4354839,86.3546976 L94.0451613,87.8629637 L92.4322581,90.6563105 L89.8403226,89.1595363 C89.6887097,89.708125 89.5806452,90.274254 89.5806452,90.8710282 C89.5806452,91.4678024 89.6887097,92.0337298 89.8387097,92.5839315 L92.4306452,91.0871573 L94.0435484,93.880504 L91.4354839,95.3871573 C92.2419355,96.2079234 93.2727823,96.7952218 94.4193548,97.0936089 L94.4193548,94.0968347 L97.6451613,94.0968347 L97.6451613,97.0936089 Z M96.0322581,81.1936089 C101.369355,81.1936089 105.709677,85.5339315 105.709677,90.8710282 C105.709677,96.2079234 101.369355,100.548448 96.0322581,100.548448 C90.6951613,100.548448 86.3548387,96.2079234 86.3548387,90.8710282 C86.3548387,85.5339315 90.6951613,81.1936089 96.0322581,81.1936089 Z" id="Fill-5" fill="#000000"></path>
                        <mask id="mask-2" fill="white">
                            <use xlink:href="#path-1"></use>
                        </mask>
                        <g id="Clip-8"></g>
                        <g id="Fill-7" mask="url(#mask-2)">
                            <use fill="#000000" fill-rule="evenodd" xlink:href="#path-3"></use>
                            <path stroke="#000000" stroke-width="1" d="M82.016129,78.4677419 L82.016129,77.9677419 L81.516129,78.4677419 L82.016129,78.4677419 Z M110.048387,78.4677419 L110.548387,78.4677419 L110.048387,77.9677419 L110.048387,78.4677419 Z M110.048387,103.274194 L110.048387,103.774194 L110.548387,103.274194 L110.048387,103.274194 Z M82.016129,103.274194 L81.516129,103.274194 L82.016129,103.774194 L82.016129,103.274194 Z M82.016129,103.274194 L82.016129,78.4677419 L110.048387,78.4677419 L110.048387,103.274194 L82.016129,103.274194 Z M85.2419355,68.7903226 L85.2419355,74.2419355 L106.822581,74.2419355 L106.822581,68.7903226 L85.2419355,68.7903226 Z M101.983871,51.0379862 C102.251847,50.8801991 102.514239,50.7115379 102.770481,50.5322814 L101.983871,50.1225806 L101.983871,51.0379862 Z M101.983871,64.5645161 L101.983871,65.0645161 L102.483871,64.5645161 L101.983871,64.5645161 Z M90.0806452,64.5645161 L89.5806452,64.5645161 L90.0806452,65.0645161 L90.0806452,64.5645161 Z M90.0806452,51.0379862 L90.0806452,50.1225806 L89.2940351,50.5322814 C89.5502771,50.7115379 89.8126693,50.8801991 90.0806452,51.0379862 Z M90.0806452,51.0379862 C91.8715001,52.0924615 93.9117289,52.6612903 96.0322581,52.6612903 C98.1527872,52.6612903 100.193016,52.0924615 101.983871,51.0379862 L101.983871,64.5645161 L90.0806452,64.5645161 L90.0806452,51.0379862 Z M80.5955181,29.3988098 L85.727683,35.1724954 C87.6311896,31.7363918 91.1262619,29.4410281 95.075215,29.1194903 L88.0681409,21.2879752 C87.0762755,25.0521049 84.2633993,28.1017476 80.5955181,29.3988098 Z M70.1054737,28.0576468 C67.1988688,26.0996954 65.2924838,22.9555125 64.9468882,19.4448583 L50.9989917,32.6965812 C50.057498,33.5899054 49.5304121,34.7965845 49.5128577,36.0970711 C49.4953354,37.3951825 49.9919412,38.6154796 50.9116179,39.5351563 C52.7328328,41.3563712 55.6351881,41.4137863 57.528649,39.6664258 L57.5286113,39.6664605 L70.1054737,28.0576468 Z M76.6774194,10.7258065 C72.5067875,10.7258065 69.1129032,14.1196908 69.1129032,18.2903226 C69.1129032,22.455772 72.5001903,25.8472745 76.666129,25.8548387 L76.6833265,25.854839 C80.8514322,25.8503002 84.2419355,22.4574545 84.2419355,18.2903226 C84.2419355,14.1196908 80.8480512,10.7258065 76.6774194,10.7258065 Z M103.596774,40.8709677 C103.596774,36.7003359 100.20289,33.3064516 96.0322581,33.3064516 C91.8616262,33.3064516 88.4677419,36.7003359 88.4677419,40.8709677 C88.4677419,45.0415996 91.8616262,48.4354839 96.0322581,48.4354839 C100.20289,48.4354839 103.596774,45.0415996 103.596774,40.8709677 Z M23.9516129,103.274194 L45.5322581,103.274194 L45.5322581,91.3709677 L42.3064516,91.3709677 L42.3064516,87.1451613 L45.5322581,87.1451613 L45.5322581,78.4677419 L23.9516129,78.4677419 L23.9516129,87.1451613 L40.0806452,87.1451613 L40.0806452,91.3709677 L23.9516129,91.3709677 L23.9516129,103.274194 Z M27.1774194,72.016129 L27.1774194,71.516129 L26.6774194,72.016129 L27.1774194,72.016129 Z M42.3064516,72.016129 L42.8064516,72.016129 L42.3064516,71.516129 L42.3064516,72.016129 Z M42.3064516,74.2419355 L42.3064516,74.7419355 L42.8064516,74.2419355 L42.3064516,74.2419355 Z M27.1774194,74.2419355 L26.6774194,74.2419355 L27.1774194,74.7419355 L27.1774194,74.2419355 Z M27.1774194,74.2419355 L27.1774194,72.016129 L42.3064516,72.016129 L42.3064516,74.2419355 L27.1774194,74.2419355 Z M27.1774194,65.5645161 L27.1774194,67.7903226 L41.7358561,67.7903226 C40.9825186,66.4408943 39.5581501,65.5645161 37.9677419,65.5645161 L27.1774194,65.5645161 Z M114.274194,103.274194 L117.5,103.274194 L117.5,107.5 L16.5,107.5 L16.5,103.274194 L19.7258065,103.274194 L19.7258065,74.2419355 L22.9516129,74.2419355 L22.9516129,72.016129 L19.7258065,72.016129 L19.7258065,67.7903226 L22.9516129,67.7903226 L22.9516129,61.3387097 L37.9677419,61.3387097 C41.9128413,61.3387097 45.3130703,64.0396361 46.2676076,67.7903226 L49.7580645,67.7903226 L49.7580645,72.016129 L46.5322581,72.016129 L46.5322581,74.2419355 L49.7580645,74.2419355 L49.7580645,103.274194 L77.7903226,103.274194 L77.7903226,74.2419355 L81.016129,74.2419355 L81.016129,64.5645161 L85.8548387,64.5645161 L85.8548387,46.7932714 C84.8054958,44.9962356 84.2419355,42.9712403 84.2419355,40.8709677 C84.2419355,40.5452741 84.2552839,40.2226101 84.2820215,39.9021511 L75.4899873,30.0122856 C75.1168173,29.9752429 74.7507439,29.9213403 74.391607,29.8503736 L60.3939938,42.7722266 C58.7045766,44.3318166 56.531797,45.1677419 54.2875615,45.1677417 C52.5764247,45.169332 50.8887539,44.660305 49.4165158,43.7002684 L40.7209677,52.3958165 L37.7332158,49.4080645 L46.4943541,40.6469262 C45.6838779,39.2482103 45.2652514,37.670097 45.2855278,36.0417582 C45.317957,33.5959135 46.3142445,31.3175331 48.0878956,29.6326499 L66.8280118,11.8307465 C68.9986321,8.53247009 72.6688805,6.5 76.6774194,6.5 C81.8738632,6.5 86.4171354,9.91166514 87.9347762,14.8019034 L102.394826,30.9608771 C105.747613,33.1211328 107.822581,36.8223925 107.822581,40.8709677 C107.822581,42.9731873 107.259437,44.9983015 106.209677,46.79345 L106.209677,64.5645161 L111.048387,64.5645161 L111.048387,74.2419355 L114.274194,74.2419355 L114.274194,103.274194 Z"></path>
                        </g>
                    </g>
                </g>
                <circle id="Oval-3" fill="#000000" cx="600" cy="42" r="18"></circle>
                <text id="ii" font-family="PingFangSC-Semibold, PingFang SC" font-size="24" font-weight="500" letter-spacing="0.435" fill="#FFF794">
                    <tspan x="593" y="51">ii</tspan>
                </text>
            </g>
        </g>
    </g>
</svg>