
<svg width="644px" height="330px" viewBox="0 0 644 330" version="1.1" xmlns="http://www.w3.org/2000/svg" xmlns:xlink="http://www.w3.org/1999/xlink">
    <!-- Generator: Sketch 47.1 (45422) - http://www.bohemiancoding.com/sketch -->
    <desc>Created with Sketch.</desc>
    <defs>
        <polygon id="path-1" points="1.43196513e-20 0.340787097 1.43196513e-20 96.9682602 111.727687 96.9682602 111.727687 0.340787097"></polygon>
    </defs>
    <g id="Page-1" stroke="none" stroke-width="1" fill="none" fill-rule="evenodd">
        <g id="H5-1" transform="translate(-55.000000, -3708.000000)">
            <g id="Group-16" transform="translate(55.000000, 3708.000000)">
                <rect id="Rectangle-5" fill="#38B0E4" x="0" y="0" width="644" height="330"></rect>
                <rect id="Rectangle-9" fill="#000000" x="262" y="268" width="120" height="42"></rect>
                <text id="报名" font-family="PingFangSC-Regular, PingFang SC" font-size="24" font-weight="normal" letter-spacing="0.435000002" fill="#FFFFFF">
                    <tspan x="298" y="298">报名</tspan>
                </text>
                <text id="Commercial-Applicati" font-family="PingFangSC-Semibold, PingFang SC" font-size="12" font-weight="500" letter-spacing="0.289999992" fill="#000000">
                    <tspan x="215.054" y="237">Commercial Application of the Year</tspan>
                </text>
                <text id="年度商业应用" font-family="PingFangSC-Semibold, PingFang SC" font-size="24" font-weight="500" letter-spacing="-0.24000001" fill="#070707">
                    <tspan x="251.22" y="215">年度商业应用</tspan>
                </text>
                <g id="Page-1" transform="translate(266.000000, 68.000000)">
                    <g id="Group-3" transform="translate(0.000000, 0.421505)">
                        <mask id="mask-2" fill="white">
                            <use xlink:href="#path-1"></use>
                        </mask>
                        <g id="Clip-2"></g>
                        <path d="M105.912272,32.4252495 L98.7638189,39.554486 L74.2162717,15.0729269 C73.7334038,14.591357 73.4692528,13.9533032 73.4692528,13.2720452 C73.4692528,12.5928946 73.7334038,11.9548409 74.2162717,11.473271 L79.5611019,6.1428086 C80.0418566,5.66334624 80.6837434,5.39779785 81.3647245,5.39779785 C82.0457057,5.39779785 82.6854792,5.66334624 83.1683472,6.1428086 L105.912272,28.8255935 C106.393026,29.3050559 106.659291,29.9452172 106.659291,30.6243677 C106.659291,31.3056258 106.393026,31.9436796 105.912272,32.4252495 L105.912272,32.4252495 Z M84.111366,54.1649161 L55.9671396,26.0963462 C55.5466113,25.6764215 54.9887245,25.4171957 54.3943849,25.3655613 L40.0023849,24.1100022 C39.9284226,24.1042065 39.8539321,24.1020989 39.7794415,24.1020989 C38.5849509,24.1020989 37.5362717,24.9419484 37.2974792,26.1311204 L36.1436679,31.8367226 C35.4230642,35.4031849 31.9278189,37.7209376 28.3491019,37.0001634 C26.6173283,36.6524215 25.1238189,35.6524 24.1454038,34.1850344 C23.1669887,32.7155613 22.8198943,30.9557763 23.1706868,29.2286581 L24.3229132,23.5214753 C26.0414792,15.0212925 34.3712151,9.49746452 42.9001208,11.2119376 C42.9159698,11.2161527 42.9349887,11.2203677 42.9540075,11.2224753 L67.5961208,15.6224645 L95.1771774,43.1293785 L84.111366,54.1649161 Z M40.5676679,85.5538946 C39.8523472,86.2699269 38.6858566,86.2678194 37.9700075,85.5538946 L36.6698566,84.2572387 C35.9540075,83.543314 35.9540075,82.380486 36.6698566,81.6660344 L40.4065358,77.9388731 L44.3048755,81.8288409 L40.5676679,85.5538946 Z M29.1848755,76.7923785 C28.8377811,76.4467441 28.6465358,75.9878301 28.6465358,75.4978301 C28.6465358,75.0099376 28.8377811,74.5489161 29.1848755,74.2032817 L32.9215547,70.4755935 L36.8198943,74.3639806 L33.0832151,78.0911419 C32.367366,78.8050667 31.2014038,78.8050667 30.4850264,78.0911419 L29.1848755,76.7923785 Z M21.7020075,69.3296258 C20.983517,68.6135935 20.983517,67.4523462 21.7020075,66.7384215 L25.4365736,63.0112602 L29.3349132,66.8991204 L25.5998189,70.6262817 C24.8839698,71.3402065 23.7180075,71.3402065 23.0021585,70.6262817 L21.7020075,69.3296258 Z M14.2170264,61.8647656 C13.5011774,61.1508409 13.5011774,59.9880129 14.2170264,59.2735613 L17.9537057,55.5464 L21.8520453,59.4342602 L18.115366,63.1614215 C17.399517,63.8753462 16.2330264,63.8753462 15.5171774,63.1614215 L14.2170264,61.8647656 Z M109.498913,25.2507011 L86.7549887,2.56791613 C85.3148377,1.13110968 83.4018566,0.340787097 81.3647245,0.340787097 C79.3281208,0.340787097 77.4151396,1.13110968 75.9744604,2.56791613 L70.6296302,7.89837849 C69.8081208,8.71767957 69.222234,9.68292688 68.8529509,10.7098194 L43.847366,6.24344301 L43.8404981,6.24344301 C32.598234,4.01684086 21.6190642,11.3067763 19.3510642,22.5235613 L18.1972528,28.2286366 C16.9245736,34.5306688 21.0294792,40.6883355 27.3463849,41.960228 C33.6654038,43.2284323 39.8412528,39.1366688 41.1149887,32.8346366 L41.8208,29.3461527 L53.0350642,30.3235183 L82.3183094,59.5306796 L87.6261585,64.8242602 C88.7012528,65.8964645 88.7012528,67.6399161 87.6261585,68.7121204 C86.5526491,69.7822172 84.8029132,69.7843247 83.7278189,68.7121204 L69.5112151,54.5337333 C68.5206491,53.5458301 66.9151396,53.5458301 65.9245736,54.5337333 C64.9355925,55.519529 64.9355925,57.1207226 65.9245736,58.1086258 L80.1432906,72.2891204 C80.6631396,72.8080989 80.9500075,73.4972602 80.9500075,74.2322602 C80.9500075,74.9667333 80.6631396,75.6564215 80.1432906,76.1748731 C79.0676679,77.2470774 77.3179321,77.2470774 76.2449509,76.1748731 L62.0283472,61.996486 C61.0377811,61.0085828 59.4301585,61.0085828 58.4417057,61.996486 C57.4511396,62.9843892 57.4511396,64.5855828 58.4417057,65.573486 L72.6583094,79.7518731 C73.7334038,80.8240774 73.7334038,82.567529 72.6583094,83.6397333 C72.1379321,84.1587118 71.4448,84.4442817 70.7099321,84.4442817 C69.9734792,84.4442817 69.2798189,84.1587118 68.7599698,83.6397333 L54.543366,69.4613462 C53.5528,68.473443 51.9472906,68.473443 50.9567245,69.4613462 C49.9661585,70.4492495 49.9661585,72.050443 50.9567245,73.0362387 L65.1733283,87.2167333 C66.2484226,88.2889376 66.2484226,90.0323892 65.1733283,91.1045935 C64.0998189,92.1746903 62.350083,92.1767978 61.2771019,91.1045935 L4.3293283,34.3104323 C3.33876226,33.322529 1.73325283,33.322529 0.742686792,34.3104323 C-0.247879245,35.2983355 -0.247879245,36.899529 0.742686792,37.8874323 L14.615366,51.7222925 L10.6303849,55.6965613 C9.32547925,56.9969054 8.60593208,58.7282387 8.60593208,60.5681097 C8.60593208,62.4100882 9.32547925,64.1408946 10.6303849,65.4417656 L11.9300075,66.7384215 C13.0716679,67.876486 14.5403472,68.5656473 16.1252528,68.7226581 C16.2821585,70.3033032 16.9737057,71.7685613 18.115366,72.9045183 L19.4149887,74.2032817 C20.5851774,75.3703247 22.0776302,76.0289269 23.6086491,76.1811957 C23.7629132,77.7639484 24.4565736,79.231314 25.5998189,80.3693785 L26.8999698,81.6660344 C28.0416302,82.8040989 29.5103094,83.4958946 31.0931019,83.650271 C31.2500075,85.2309161 31.9436679,86.6961742 33.0832151,87.8342387 L34.3849509,89.1308946 C35.7305358,90.4749699 37.5008755,91.1456903 39.2696302,91.1456903 C41.0389132,91.1456903 42.8066113,90.4749699 44.1548377,89.1308946 L48.1398189,85.1566258 L57.6904604,94.6815935 C59.1681208,96.1552817 61.1344604,96.9682602 63.2249509,96.9682602 C65.3154415,96.9682602 67.2823094,96.1552817 68.7599698,94.6815935 C70.1610264,93.2843032 70.9555925,91.4481204 71.0358943,89.4870667 C73.0048755,89.4064538 74.843366,88.6145505 76.2449509,87.2167333 C77.6893283,85.7762387 78.4405736,83.9094968 78.5187623,82.0200989 C80.4132528,81.9415935 82.2850264,81.1928946 83.7299321,79.7518731 C85.1721962,78.3129591 85.9255547,76.4467441 86.0016302,74.5552387 C87.898234,74.4772602 89.7700075,73.7280344 91.2128,72.2891204 C94.2648,69.2432172 94.2648,64.2910559 91.2128,61.2472602 L87.6980075,57.742443 L100.556875,44.9181419 L109.498913,36.0022495 C112.470611,33.0364323 112.470611,28.2144108 109.498913,25.2507011 L109.498913,25.2507011 Z" id="Fill-1" fill="#1A1919" mask="url(#mask-2)"></path>
                    </g>
                    <path d="M102.309094,32.0502677 C102.309094,33.4475581 101.174302,34.5798269 99.772717,34.5798269 C98.3737736,34.5798269 97.2363396,33.4475581 97.2363396,32.0502677 C97.2363396,30.6550849 98.3737736,29.5228161 99.772717,29.5228161 C101.174302,29.5228161 102.309094,30.6550849 102.309094,32.0502677" id="Fill-4" fill="#1A1919"></path>
                </g>
                <circle id="Oval-3" fill="#000000" cx="600" cy="50" r="18"></circle>
                <text id="ii" font-family="PingFangSC-Semibold, PingFang SC" font-size="24" font-weight="500" letter-spacing="0.435" fill="#FFF794">
                    <tspan x="593" y="59">ii</tspan>
                </text>
            </g>
        </g>
    </g>
</svg>