
<svg width="102px" height="89px" viewBox="0 0 102 89" version="1.1" xmlns="http://www.w3.org/2000/svg" xmlns:xlink="http://www.w3.org/1999/xlink">
    <!-- Generator: Sketch 48.1 (47250) - http://www.bohemiancoding.com/sketch -->
    <desc>Created with Sketch.</desc>
    <defs>
        <polygon id="path-1" points="1.3041111e-20 0.310359677 1.3041111e-20 88.3103798 101.752 88.3103798 101.752 0.310359677"></polygon>
    </defs>
    <g id="Page-1" stroke="none" stroke-width="1" fill="none" fill-rule="evenodd">
        <g id="04" transform="translate(-373.000000, -3744.000000)">
            <g id="Page-1" transform="translate(373.000000, 3744.000000)">
                <g id="Group-3" transform="translate(0.000000, 0.383871)">
                    <mask id="mask-2" fill="white">
                        <use xlink:href="#path-1"></use>
                    </mask>
                    <g id="Clip-2"></g>
                    <path d="M96.4558189,29.5301379 L89.9456208,36.0228355 L67.5898189,13.7271298 C67.1500642,13.2885573 66.9094981,12.7074726 66.9094981,12.0870411 C66.9094981,11.468529 67.1500642,10.8874444 67.5898189,10.4488718 L72.4574321,5.59434355 C72.8952623,5.15769032 73.4798377,4.91585161 74.100017,4.91585161 C74.7201962,4.91585161 75.3028472,5.15769032 75.7426019,5.59434355 L96.4558189,26.2518798 C96.8936491,26.6885331 97.1361396,27.2715371 97.1361396,27.8900492 C97.1361396,28.5104806 96.8936491,29.0915653 96.4558189,29.5301379 Z M76.6014226,49.3287629 L50.9700736,23.7663153 C50.5870925,23.3838839 50.079017,23.1478032 49.5377434,23.100779 L36.4307434,21.9573234 C36.3633849,21.9520452 36.2955453,21.9501258 36.2277057,21.9501258 C35.139866,21.9501258 34.1848189,22.7149887 33.9673472,23.7979847 L32.9165547,28.9941581 C32.2602906,32.2421863 29.0771208,34.3529968 25.8179321,33.6965774 C24.2407811,33.3798839 22.8806208,32.46915 21.9895642,31.1327992 C21.0985075,29.794529 20.7824038,28.1918677 21.1018755,26.6189565 L22.1512245,21.4213435 C23.7163472,13.6801056 31.3023566,8.64947661 39.0697528,10.2108718 C39.0841868,10.2147105 39.1015075,10.2185492 39.1188283,10.2204685 L61.5607528,14.2276016 L86.6792151,39.2785411 L76.6014226,49.3287629 Z M36.9455547,77.915154 C36.2941019,78.5672548 35.2317623,78.5653355 34.5798283,77.915154 L33.3957623,76.734271 C32.7438283,76.0840895 32.7438283,75.0250855 33.3957623,74.3744242 L36.7988094,70.9800452 L40.349083,74.5226944 L36.9455547,77.915154 Z M26.579083,69.9359161 C26.2629792,69.6211419 26.0888094,69.2032024 26.0888094,68.7569524 C26.0888094,68.3126218 26.2629792,67.8927629 26.579083,67.5779887 L29.9821302,64.1831298 L33.5324038,67.7243395 L30.1293566,71.1187185 C29.4774226,71.7689 28.4155642,71.7689 27.7631491,71.1187185 L26.579083,69.9359161 Z M19.7643283,63.1394806 C19.1099887,62.4873798 19.1099887,61.4298153 19.7643283,60.7796339 L23.1654509,57.3852548 L26.7157245,60.9259847 L23.3141208,64.3203637 C22.6621868,64.9705452 21.6003283,64.9705452 20.9483943,64.3203637 L19.7643283,63.1394806 Z M12.9476491,56.3411258 C12.2957151,55.6909444 12.2957151,54.6319403 12.9476491,53.981279 L16.3506962,50.5869 L19.9009698,54.1276298 L16.4979226,57.5220089 C15.8459887,58.1721903 14.7836491,58.1721903 14.1317151,57.5220089 L12.9476491,56.3411258 Z M99.7222245,22.9961742 L79.0090075,2.3386379 C77.6974415,1.03011774 75.9552623,0.310359677 74.100017,0.310359677 C72.2452528,0.310359677 70.5030736,1.03011774 69.1910264,2.3386379 L64.3234132,7.19316613 C63.5752528,7.93931532 63.0416774,8.81837984 62.705366,9.75358548 L39.9324226,5.68599274 L39.9261679,5.68599274 C29.6876774,3.65819435 19.6887906,10.2972427 17.6232906,20.512529 L16.5724981,25.7082226 C15.4134509,31.4475734 19.1518472,37.0554484 24.9047434,38.213779 C30.6595642,39.3687508 36.2839981,35.6423234 37.4440075,29.9029726 L38.0868,26.7259605 L48.2997906,27.6160613 L74.9684604,54.2154403 L79.8023943,59.0363798 C80.7814981,60.0128516 80.7814981,61.6006379 79.8023943,62.5771097 C78.824734,63.5516621 77.2312245,63.5535815 76.2521208,62.5771097 L63.3048566,49.66465 C62.402734,48.7649524 60.9405736,48.7649524 60.0384509,49.66465 C59.1377717,50.5624282 59.1377717,52.0206581 60.0384509,52.9203556 L72.9876396,65.8347347 C73.4610736,66.3073758 73.7223283,66.9350048 73.7223283,67.6043798 C73.7223283,68.273275 73.4610736,68.9013839 72.9876396,69.3735452 C72.0080547,70.3500169 70.4145453,70.3500169 69.437366,69.3735452 L56.4901019,56.4610855 C55.5879792,55.5613879 54.1238943,55.5613879 53.2236962,56.4610855 C52.3215736,57.3607831 52.3215736,58.8190129 53.2236962,59.7187105 L66.1709604,72.6311702 C67.1500642,73.6076419 67.1500642,75.1954282 66.1709604,76.1719 C65.6970453,76.6445411 65.0658,76.9046137 64.3965453,76.9046137 C63.7258472,76.9046137 63.0941208,76.6445411 62.6206868,76.1719 L49.6734226,63.2594403 C48.7713,62.3597427 47.3091396,62.3597427 46.407017,63.2594403 C45.5048943,64.1591379 45.5048943,65.6173677 46.407017,66.515146 L59.3542811,79.429525 C60.3333849,80.4059968 60.3333849,81.9937831 59.3542811,82.9702548 C58.3766208,83.9448073 56.7831113,83.9467266 55.8059321,82.9702548 L3.94278113,31.2470008 C3.04065849,30.3473032 1.57849811,30.3473032 0.676375472,31.2470008 C-0.22574717,32.1466984 -0.22574717,33.6049282 0.676375472,34.5046258 L13.3104226,47.1042306 L9.6812434,50.723654 C8.49284717,51.907896 7.83754528,53.484646 7.83754528,55.1602427 C7.83754528,56.8377589 8.49284717,58.414029 9.6812434,59.5987508 L10.8648283,60.7796339 C11.9045547,61.8160855 13.2421019,62.4437145 14.6854981,62.5867065 C14.8283943,64.0262226 15.4581962,65.360654 16.4979226,66.3951863 L17.6815075,67.5779887 C18.7472151,68.6408315 20.1064132,69.2406298 21.500734,69.3793032 C21.6412245,70.8207387 22.2729509,72.1570895 23.3141208,73.1935411 L24.4981868,74.3744242 C25.5379132,75.4108758 26.8754604,76.040904 28.3169321,76.1814968 C28.4598283,77.6210129 29.0915547,78.9554444 30.1293566,79.991896 L31.314866,81.172779 C32.5403094,82.3968476 34.152583,83.0076823 35.7634132,83.0076823 C37.3747245,83.0076823 38.9845925,82.3968476 40.2124415,81.172779 L43.8416208,77.5533556 L52.5395264,86.2278798 C53.8852528,87.5699887 55.6760264,88.3103798 57.579866,88.3103798 C59.4837057,88.3103798 61.2749604,87.5699887 62.6206868,86.2278798 C63.8966491,84.9553476 64.6202717,83.2831097 64.6934038,81.49715 C66.486583,81.4237347 68.1609226,80.7025371 69.437366,79.429525 C70.7527811,78.117646 71.4369509,76.4175774 71.5081585,74.6968758 C73.2334981,74.6253798 74.9381491,73.943529 76.2540453,72.6311702 C77.5675358,71.3207306 78.2536302,69.6211419 78.3229132,67.898521 C80.0501774,67.8275048 81.7548283,67.1451742 83.0688,65.8347347 C85.8483,63.0607871 85.8483,58.5507831 83.0688,55.7787548 L79.8678283,52.5868677 L91.578583,40.9075935 L99.7222245,32.7877629 C102.428592,30.0867508 102.428592,25.6952669 99.7222245,22.9961742 Z" id="Fill-1" fill="#4AB9EA" mask="url(#mask-2)"></path>
                </g>
                <path d="M93.1743538,29.1886367 C93.1743538,30.461169 92.1408821,31.4923423 90.8644387,31.4923423 C89.5904009,31.4923423 88.5545236,30.461169 88.5545236,29.1886367 C88.5545236,27.9180238 89.5904009,26.8868504 90.8644387,26.8868504 C92.1408821,26.8868504 93.1743538,27.9180238 93.1743538,29.1886367" id="Fill-4" fill="#51BDEC"></path>
            </g>
        </g>
    </g>
</svg>