
<svg width="90px" height="92px" viewBox="0 0 90 92" version="1.1" xmlns="http://www.w3.org/2000/svg" xmlns:xlink="http://www.w3.org/1999/xlink">
    <!-- Generator: Sketch 48.1 (47250) - http://www.bohemiancoding.com/sketch -->
    <desc>Created with Sketch.</desc>
    <defs>
        <polygon id="path-1" points="0 91.3689624 90 91.3689624 90 0 0 0"></polygon>
        <path d="M34.9110563,66.7126058 C34.440839,67.7884016 32.23863,68.257036 29.8226858,67.2062929 C27.4096897,66.1555499 26.2510978,64.2233542 26.7213152,63.1447952 C27.005804,62.4888176 27.9344464,62.0584993 29.1608439,62.0584993 C29.9509269,62.0584993 30.8633549,62.2370003 31.8096856,62.6481607 C34.2212077,63.6989037 35.3797996,65.6323889 34.9110563,66.7126058 Z M83.5350646,63.2241904 L79.1129582,70.8802094 L72.5092793,67.0677658 L71.7162482,68.0372715 C70.2097839,69.8825193 68.510221,71.5802136 66.6647286,73.0876173 L65.6948132,73.8806483 L69.508143,80.4827926 L61.8505287,84.9038715 L58.0371989,78.3032008 L56.8638667,78.7497297 C56.0000819,79.0783633 55.1082904,79.3775229 54.2106028,79.6398403 C47.7882302,81.5143777 40.798354,81.5099566 34.4069362,79.6486824 C24.3672805,76.7292967 16.3500015,69.605465 12.1504745,60.4214106 L20.7205167,60.4214106 L20.7205167,57.4740247 L10.9565057,57.4740247 C10.1266237,55.116116 9.53111341,52.6489698 9.21419578,50.099481 L9.12427962,49.3876874 L2.94807096,45.6844812 L9.14933822,41.9663539 L9.23925438,41.2545602 C9.23925438,41.2530865 9.23925438,41.2499549 9.24072842,41.2486654 L31.2967213,39.950342 C31.7138733,39.9267629 32.1074408,39.8265518 32.4847939,39.6953931 C31.5679438,41.4960617 31.0387651,43.5269947 31.0387651,45.6844812 C31.0387651,52.9984193 36.9894463,58.9477177 44.3050844,58.9477177 C51.6207225,58.9477177 57.5714037,52.9984193 57.5714037,45.6844812 C57.5714037,38.3705431 51.6207225,32.4212447 44.3050844,32.4212447 C40.8912182,32.4212447 37.7839514,33.7282262 35.4299168,35.8547651 C35.437287,35.7471855 35.4608715,35.6456849 35.4608715,35.5366316 L35.4608715,28.0001659 C35.4608715,27.1616346 35.2132336,26.3864721 34.8063998,25.7174155 C37.7559448,24.3159335 41.0120891,23.5790871 44.3050844,23.5790871 C56.4968318,23.5790871 66.4156166,33.4955669 66.4156166,45.6844812 C66.4156166,57.8733955 56.4968318,67.7898753 44.3050844,67.7898753 C42.1205638,67.7898753 39.9787903,67.4568207 37.9136666,66.8332644 C38.3013379,64.2662755 36.3290784,61.4014164 32.985966,59.9454078 C29.1711621,58.2875032 25.2340134,59.1730085 24.0164601,61.9687882 C22.8018548,64.7612521 24.8345498,68.2496675 28.6449315,69.9090458 C29.9435567,70.4734702 31.2554483,70.743156 32.4700535,70.743156 C34.0325311,70.743156 35.4254947,70.2877849 36.4263648,69.4477799 C38.4973846,70.1345208 40.6421062,70.5456811 42.832523,70.6724187 L42.832523,75.15834 L42.832523,76.632033 L44.3065584,76.632033 C61.3744152,76.632033 75.2613035,62.7481876 75.2613035,45.6844812 C75.2613035,28.6205906 61.3744152,14.7369294 44.3065584,14.7369294 C36.1404019,14.7369294 28.4945798,17.8847375 22.6780358,23.5790871 L16.7730497,23.5790871 C22.1341168,16.9076791 29.8462704,12.1874406 38.6447882,10.7726954 L39.882978,10.572089 L39.882978,2.94738588 L48.7271908,2.94738588 L48.7271908,10.5737469 L49.9668547,10.7726954 C52.3149932,11.1499608 54.635125,11.7718592 56.8638667,12.617759 L58.0371989,13.0642879 L61.8505287,6.46361724 L69.508143,10.8846961 L65.6948132,17.4866562 L66.6647286,18.2796873 C68.510221,19.7858014 70.2083099,21.4847852 71.7162482,23.330033 L72.5092793,24.2997229 L79.1129582,20.4870951 L83.5350646,28.1431141 L76.9328597,31.9553735 L77.3794925,33.1286173 C78.2255888,35.3566569 78.8476318,37.6764338 79.2249849,40.0240266 L79.4239797,41.2634024 L87.051929,41.2634024 L87.051929,50.10556 L79.4239797,50.10556 L79.2249849,51.3447516 C78.8476318,53.6923444 78.2255888,56.0121213 77.3794925,58.2403451 L76.9328597,59.4134047 L83.5350646,63.2241904 Z M35.4608715,88.4215765 L35.4608715,82.9541757 C38.345559,83.6364955 41.3083703,84.0004977 44.3050844,84.0004977 C47.2959024,84.0004977 50.2587137,83.6348376 53.1492973,82.9482809 L53.1492973,88.4215765 L35.4608715,88.4215765 Z M31.0387651,26.526473 C31.8524327,26.526473 32.5128006,27.1866874 32.5128006,28.0001659 L32.5128006,35.5366316 C32.5128006,36.316031 31.9040239,36.9616927 31.1257332,37.0073772 L9.75221873,38.264253 C10.6631727,34.0246226 12.3612615,30.0675729 14.6578088,26.5249993 L31.0387651,26.5249993 L31.0387651,26.526473 Z M31.5871063,20.7479387 L32.7884452,23.4433231 C32.5894504,23.5466658 32.3875075,23.6422717 32.1914608,23.7498512 C31.8200039,23.6496401 31.4397027,23.5790871 31.0387651,23.5790871 L27.1561556,23.5790871 C28.5520672,22.4913175 30.0319989,21.5439171 31.5871063,20.7479387 Z M44.3050844,35.3686306 C49.9933873,35.3686306 54.6233328,39.9975001 54.6233328,45.6844812 C54.6233328,51.3714623 49.9933873,56.0003318 44.3050844,56.0003318 C38.6167815,56.0003318 33.986836,51.3714623 33.986836,45.6844812 C33.986836,39.9975001 38.6167815,35.3686306 44.3050844,35.3686306 Z M37.0513558,18.6584263 L37.6630805,21.535075 C36.9245888,21.7369709 36.1964152,21.9757092 35.4785599,22.2439213 L34.2801691,19.5527737 C35.1867009,19.2051664 36.1109212,18.9089541 37.0513558,18.6584263 Z M42.8310489,20.6788594 C42.0660245,20.7245438 41.3054222,20.8113075 40.549242,20.9262556 L39.9389913,18.054028 C40.8926923,17.9053692 41.8567115,17.8081055 42.8310489,17.756342 L42.8310489,20.6788594 Z M48.0565047,20.9441241 C47.3062206,20.8306497 46.5485664,20.7510703 45.7791199,20.7068595 L45.7791199,17.7594736 C46.7578794,17.8110529 47.7204246,17.9096061 48.6711775,18.060107 L48.0565047,20.9441241 Z M53.1212906,22.2630793 C52.4093315,21.9932093 51.684106,21.7559447 50.9426662,21.5527593 L51.5558649,18.6700317 C52.4992476,18.9235069 53.4219938,19.2211928 54.3226295,19.5675107 L53.1212906,22.2630793 Z M57.7998792,24.6077247 C57.1571997,24.1949065 56.4983059,23.8089832 55.8173015,23.4552969 L57.0156923,20.7641493 C57.8824252,21.2079151 58.7240995,21.6898127 59.536293,22.2173948 L57.7998792,24.6077247 Z M61.8947498,27.8675335 C61.3493566,27.3296356 60.7848011,26.8136589 60.1922388,26.3275244 L61.9227564,23.9460366 C62.6774626,24.5590929 63.4056361,25.2014388 64.0925367,25.8883639 L61.8947498,27.8675335 Z M65.2157517,31.9128207 C64.7941776,31.2730537 64.3401746,30.6585238 63.8625871,30.0618623 L66.0589,28.0841664 C66.6691507,28.8372235 67.2351803,29.6256492 67.7658331,30.4391277 L65.2157517,31.9128207 Z M67.6184295,36.560664 C67.3383628,35.8459229 67.0243932,35.1505241 66.680943,34.4696779 L69.2383945,32.9928534 C69.6791311,33.8536743 70.0712246,34.7406532 70.420571,35.650106 L67.6184295,36.560664 Z M69.0010748,41.6082465 C68.8757818,40.847821 68.716586,40.1021323 68.5249614,39.3667596 L71.3315249,38.4545436 C71.5806369,39.3857334 71.7811057,40.3335021 71.9344054,41.3002447 L69.0010748,41.6082465 Z M72.3117585,45.6844812 C72.3117585,46.175221 72.2660634,46.6539869 72.2410048,47.1390161 L69.3062002,46.8308301 C69.3224146,46.4476699 69.3636875,46.0718782 69.3636875,45.6844812 C69.3636875,45.2969 69.3224146,44.9211083 69.3062002,44.5379481 L72.2380567,44.2297621 C72.2631153,44.7147912 72.3117585,45.1937415 72.3117585,45.6844812 Z M71.335947,52.9158925 L68.5249614,52.0022028 C68.716586,51.2666459 68.8757818,50.5211414 69.0010748,49.7607159 L71.9358795,50.0685335 C71.7840538,51.0354603 71.585059,51.9845185 71.335947,52.9158925 Z M69.2501868,58.3816354 L66.680943,56.8992845 C67.0243932,56.2182541 67.3368888,55.5228553 67.6184295,54.8081142 L70.4294152,55.7218038 C70.0785948,56.6295987 69.6894494,57.5197092 69.2501868,58.3816354 Z M66.0559519,63.2818486 L63.8625871,61.3069159 C64.3401746,60.7102544 64.7941776,60.0957245 65.2157517,59.4559575 L67.7805734,60.9357295 C67.2484466,61.7504974 66.6676767,62.5287915 66.0559519,63.2818486 Z M61.9124382,67.4067152 L60.1937128,65.041438 C60.7848011,64.5551193 61.3508307,64.0391426 61.8962238,63.5012447 L64.0763223,65.4643879 C63.3894217,66.1494709 62.6656703,66.7949484 61.9124382,67.4067152 Z M57.0142183,70.6002078 L55.8173015,67.9136655 C56.4983059,67.5599792 57.1571997,67.1738717 57.7998792,66.7612377 L59.5289228,69.1412518 C58.7182033,69.6688338 57.8794771,70.156442 57.0142183,70.6002078 Z M51.558813,72.7149571 L50.9426662,69.8174926 C51.684106,69.6128335 52.4093315,69.3755689 53.1212906,69.1073568 L54.3241036,71.808636 C53.4234679,72.1532959 52.5036697,72.461482 51.558813,72.7149571 Z M45.7791199,70.6619187 C46.5485664,70.6162342 47.3076947,70.5383127 48.0565047,70.4246541 L48.6755996,73.3351977 C47.7233727,73.4856986 46.7593535,73.5945676 45.7791199,73.6448574 L45.7791199,70.6619187 Z M90,53.0529459 L90,38.3160165 L81.9165737,38.3160165 C81.5819676,36.6063485 81.1294387,34.9147332 80.5634091,33.2641971 L87.5636036,29.2231468 L80.1934262,16.4611502 L73.1888096,20.5047794 C72.04201,19.191719 70.8038202,17.9552906 69.4904546,16.807468 L73.535208,9.80429493 L60.7700607,2.43583022 L56.7282554,9.434398 C55.0773357,8.87015782 53.385143,8.41626039 51.6752618,8.08173209 L51.6752618,0 L36.934907,0 L36.934907,8.08173209 C21.10524,11.1750136 8.72923811,24.1538273 6.4105803,40.1713959 L1.42981441,43.1570978 C0.536548914,43.6949957 0,44.6396329 0,45.6844812 C0,46.7293295 0.535074879,47.6737825 1.43128845,48.2116804 L6.38404766,51.1826454 C8.46538576,65.660389 18.6096979,77.6341442 32.5128006,82.1244866 L32.5128006,91.3689624 L56.0973682,91.3689624 L56.0973682,82.1333287 C56.3066813,82.0655389 56.5189424,82.0051175 56.7282554,81.9329065 L60.7700607,88.9312901 L73.535208,81.5628254 L69.4904546,74.5600207 C70.8038202,73.4134876 72.040536,72.1754013 73.1888096,70.8623409 L80.1934262,74.9061543 L87.5636036,62.1439735 L80.5634091,58.1032916 C81.1294387,56.4527555 81.5819676,54.760956 81.9165737,53.0514722 L90,53.0514722 L90,53.0529459 Z" id="path-3"></path>
    </defs>
    <g id="Page-1" stroke="none" stroke-width="1" fill="none" fill-rule="evenodd">
        <g id="04" transform="translate(-382.000000, -2740.000000)">
            <g id="Page-1" transform="translate(382.000000, 2740.000000)">
                <mask id="mask-2" fill="white">
                    <use xlink:href="#path-1"></use>
                </mask>
                <g id="Clip-2"></g>
                <g id="Fill-1" mask="url(#mask-2)">
                    <use fill="#4AB9EA" fill-rule="evenodd" xlink:href="#path-3"></use>
                    <path stroke="#51BDEC" stroke-width="1" d="M34.4526428,66.5129616 C34.8247526,65.6533709 33.6454815,63.9934508 31.6104399,63.1067467 C30.767698,62.7405935 29.923493,62.5584993 29.1608439,62.5584993 C28.1261133,62.5584993 27.373637,62.897323 27.1796513,63.3446151 C26.8059795,64.2017232 27.985141,65.860783 30.022102,66.747781 C32.0605236,67.6343319 34.0778757,67.3683242 34.4526428,66.5129616 Z M82.8519429,63.4072057 L76.3140334,59.6335312 L76.4655831,59.2354929 L76.9120569,58.0628514 C77.7476439,55.8623045 78.3600399,53.5752226 78.7313097,51.2654751 L78.9978661,49.60556 L86.551929,49.60556 L86.551929,41.7634024 L78.997856,41.7634024 L78.9303026,41.3426674 L78.7313217,40.1033782 C78.360031,37.7935005 77.7476245,35.5064248 76.9122066,33.3065046 L76.3140786,31.7353033 L82.8519848,27.9601713 L78.9300259,21.1700608 L72.3912575,24.9452127 L72.1222318,24.6162577 L71.3290835,23.6464243 C69.84019,21.8244815 68.1654218,20.1497825 66.3482379,18.6667707 L65.0492348,17.604668 L68.8250462,11.0676629 L62.033423,7.14655893 L58.2572017,13.6829968 L57.8593594,13.531592 L56.6864451,13.0852219 C54.4852576,12.2497801 52.1978041,11.6375448 49.8876255,11.2663782 L48.2271908,10.9999019 L48.2271908,3.44738588 L40.382978,3.44738588 L40.382978,10.9976008 L39.9629432,11.0656531 L38.7241654,11.2663545 C30.5720387,12.5771641 23.191023,16.8061078 17.836361,23.0790871 L22.4749508,23.0790871 C28.3804647,17.3699022 36.0974237,14.2369294 44.3065584,14.2369294 C61.6505316,14.2369294 75.7613035,28.3444222 75.7613035,45.6844812 C75.7613035,63.0244191 61.6504685,77.132033 44.3065584,77.132033 L42.332523,77.132033 L42.332523,71.1399745 C40.3548725,70.9889759 38.4126914,70.6095643 36.5267683,70.0063308 C35.4539224,70.8126178 34.0356336,71.243156 32.4700535,71.243156 C31.1573138,71.243156 29.7783764,70.9468621 28.4452962,70.3674624 C24.4074747,68.6090366 22.2173747,64.8514459 23.5580448,61.7691498 C24.9011877,58.684988 29.141314,57.7293536 33.1856151,59.4869973 C36.5012418,60.9310352 38.61424,63.7520431 38.4538765,66.4701717 C40.377043,67.0128886 42.3362655,67.2898753 44.3050844,67.2898753 C56.2207155,67.2898753 65.9156166,57.5972271 65.9156166,45.6844812 C65.9156166,33.7717353 56.2207155,24.0790871 44.3050844,24.0790871 C41.2685043,24.0790871 38.2578298,24.7202749 35.4979502,25.9495343 C35.7999952,26.5927702 35.9608715,27.2857083 35.9608715,28.0001659 L35.9608715,34.7620701 C38.3397253,32.9366282 41.2460034,31.9212447 44.3050844,31.9212447 C51.8968388,31.9212447 58.0714037,38.0943747 58.0714037,45.6844812 C58.0714037,53.2745877 51.8968388,59.4477177 44.3050844,59.4477177 C36.71333,59.4477177 30.5387651,53.2745877 30.5387651,45.6844812 C30.5387651,43.8612524 30.9031241,42.0844681 31.596574,40.4248971 C31.5064418,40.4361657 31.4164337,40.4443724 31.3261029,40.4494779 L9.68399778,41.723438 L9.61493128,42.2701818 L3.92039238,45.6844872 L9.58987315,49.0838633 L9.62033734,49.3250237 L9.71037696,50.0378026 C10.0031973,52.3934376 10.5417738,54.7134973 11.3124368,56.9740247 L21.2205167,56.9740247 L21.2205167,60.9214106 L12.9385297,60.9214106 C17.2137705,69.7432528 25.0256116,76.4000197 34.5467361,79.1686241 C40.8563397,81.0060728 47.7491025,81.0049355 54.0703605,79.159911 C54.9555498,78.9012459 55.8348076,78.6062787 56.6860272,78.2824257 L58.2572017,77.6844919 L62.033423,84.2209298 L68.8250515,80.2998228 L65.0492388,73.7626332 L65.3783225,73.4935648 L66.3484296,72.700377 C68.1709869,71.2117069 69.8461792,69.5372696 71.3292302,67.7207007 L72.3912865,66.4223031 L78.9300207,70.1972527 L82.8519429,63.4072057 Z M35.9608715,87.9215765 L52.6492973,87.9215765 L52.6492973,83.5759084 C49.880611,84.1881966 47.0878824,84.5004977 44.3050844,84.5004977 C41.518263,84.5004977 38.7254743,84.1899044 35.9608715,83.5812049 L35.9608715,87.9215765 Z M30.5387651,27.0249993 L14.9307522,27.0249993 C12.8160962,30.3410626 11.2755475,33.9485649 10.3858832,37.7261264 L31.0964344,36.5082363 C31.6103639,36.4780694 32.0128006,36.0513228 32.0128006,35.5366316 L32.0128006,28.0001659 C32.0128006,27.4628558 31.5763163,27.026473 31.0387651,27.026473 L30.5387651,27.026473 L30.5387651,27.0249993 Z M31.3473551,21.4382275 C30.4310007,21.9304173 29.5400651,22.4779394 28.6767937,23.0790871 L31.0387651,23.0790871 C31.3949648,23.0790871 31.7460986,23.1263344 32.1277139,23.2176614 C32.1311327,23.215902 32.1345867,23.2141269 32.1380786,23.2123346 L31.3473551,21.4382275 Z M32.1419823,23.2210932 C32.2011032,23.2353832 32.2609634,23.250726 32.3216941,23.2671098 L32.2616655,23.4896204 L32.1419823,23.2210932 Z M44.3050844,35.8686306 C38.8928978,35.8686306 34.486836,40.2736685 34.486836,45.6844812 C34.486836,51.0952939 38.8928978,55.5003318 44.3050844,55.5003318 C49.7172709,55.5003318 54.1233328,51.0952939 54.1233328,45.6844812 C54.1233328,40.2736685 49.7172709,35.8686306 44.3050844,35.8686306 Z M36.6727231,19.2817338 C36.0875334,19.4492501 35.5146742,19.6337732 34.9535635,19.8358585 L35.74563,21.6145501 C36.1921849,21.4561737 36.6356132,21.3119053 37.0767919,21.1818762 L36.6727231,19.2817338 Z M42.3310489,20.2128127 L42.3310489,18.2882198 C41.7236263,18.3311897 41.126548,18.3922714 40.5389362,18.471902 L40.9410812,20.3646518 C41.4158311,20.3001155 41.8778358,20.249404 42.3310489,20.2128121 Z M47.6647375,20.3836095 L48.0711365,18.476804 C47.4834309,18.396 46.8866623,18.334299 46.2791199,18.2912617 L46.2791199,20.2391949 C46.7427641,20.2745643 47.2043249,20.3227051 47.6647375,20.3836095 Z M52.8550475,21.6321997 L53.6493042,19.8500437 C53.090273,19.6480121 52.5187116,19.4629317 51.9342408,19.2943932 L51.5289473,21.1997305 C51.9743716,21.3311166 52.4162097,21.4752542 52.8550475,21.6321997 Z M57.6704939,23.9351003 L58.8189673,22.3541232 C58.3159397,22.0418042 57.7952359,21.7421504 57.2558401,21.4539781 L56.4636714,23.2328994 C56.8669583,23.4526618 57.2686158,23.6865342 57.6704941,23.9351 Z M61.9075754,27.1831257 L63.362025,25.8733525 C62.9411661,25.4708699 62.4937685,25.0718889 62.0146719,24.6701107 L60.8709811,26.2440245 C61.2171852,26.5402964 61.5616215,26.8526376 61.9075754,27.1831257 Z M65.3695077,31.2464772 L67.0548865,30.2724961 C66.7101152,29.7629851 66.3584681,29.276636 65.9978858,28.8119431 L64.5449314,30.1202731 C64.8367107,30.4972121 65.1110717,30.8715689 65.369508,31.246477 Z M67.9075577,35.9409757 L69.7602646,35.3389371 C69.5313445,34.7741948 69.2875464,34.2252267 69.0282297,33.6915926 L67.3365504,34.6684688 C67.5407385,35.0918287 67.7309943,35.5155461 67.9075576,35.9409757 Z M69.4133966,41.0622037 L71.3531467,40.8585286 C71.2471988,40.2625059 71.1228137,39.6747675 70.9797912,39.0946155 L69.1235268,39.6979562 C69.2326931,40.1505648 69.3292945,40.605003 69.4133966,41.0622037 Z M71.7717678,44.7815314 L69.8338769,44.9852354 C69.8558838,45.3146618 69.8636875,45.4786852 69.8636875,45.6844812 C69.8636875,45.8900429 69.8557942,46.0557257 69.833883,46.3834932 L71.7738618,46.5872118 C71.8014156,46.1615917 71.8117585,45.9380714 71.8117585,45.6844812 C71.8117585,45.4326688 71.801352,45.2199091 71.7717678,44.7815314 Z M70.9840363,52.2757565 C71.1263374,51.6969525 71.2500524,51.1086276 71.3554303,50.5103957 L69.4134031,50.3067057 C69.3293149,50.763804 69.2327123,51.2182179 69.1235096,51.6710064 L70.9840363,52.2757565 Z M69.0389159,57.6824878 C69.2937287,57.1548528 69.5362685,56.6057686 69.768604,56.0327622 L67.9070424,55.4276757 C67.7288501,55.856365 67.5387686,56.2802267 67.3364784,56.7002495 L69.0389159,57.6824878 Z M65.996513,62.5555099 C66.3820989,62.0651905 66.7380707,61.5828434 67.067826,61.1017604 L65.3696971,60.1220262 C65.1112081,60.4970231 64.8367869,60.8714673 64.5449392,61.248495 L65.996513,62.5555099 Z M62.0040942,66.6822808 C62.4712462,66.2892318 62.9182643,65.8886521 63.3456927,65.4793109 L61.9089841,64.1855781 C61.5651537,64.5137999 61.2200614,64.8265647 60.8721934,65.1245806 L62.0040942,66.6822808 Z M57.2539154,69.9096019 C57.7817037,69.6258943 58.301283,69.3242966 58.812133,69.0052918 L57.6704721,67.4338051 C57.2681896,67.6825857 56.8666042,67.9164448 56.4637387,68.136009 L57.2539154,69.9096019 Z M51.937062,72.0898414 C52.5001019,71.9256348 53.0693697,71.7380597 53.6510525,71.526286 L52.8545919,69.7375938 C52.4155953,69.8939908 51.9738576,70.0380638 51.528778,70.1698637 L51.937062,72.0898414 Z M46.2791199,71.1290454 L46.2791199,73.112813 C46.8678175,73.0698373 47.4649549,73.0051664 48.0759408,72.9192617 L47.6645501,70.9851955 C47.2096444,71.0451816 46.7479892,71.0930486 46.27912,71.1290454 Z M90,53.0529459 L90,53.5514722 L82.3259603,53.5514722 C82.0235307,55.0138613 81.636376,56.4596986 81.1679642,57.8749367 L88.246689,61.9609482 L80.376398,75.5891246 L73.2928171,71.4997245 C72.2957825,72.6163693 71.2381558,73.6741589 70.128053,74.6642261 L74.2183207,81.7458311 L60.5870857,89.6142302 L56.5973682,82.7060367 L56.5973682,91.8689624 L32.0128006,91.8689624 L32.0128006,82.4866499 C18.1656627,77.8717275 8.08756868,65.9139231 5.92377235,51.4896037 L1.17398086,48.640391 C0.127136755,48.0120862 -0.5,46.9048643 -0.5,45.6844812 C-0.5,44.4654872 0.127369122,43.3577374 1.17274114,42.7282466 L5.95058795,39.8641838 C8.36384464,23.8940426 20.6552095,10.9330764 36.434907,7.67224827 L36.434907,-0.5 L52.1752618,-0.5 L52.1752618,7.67233237 C53.6324175,7.97370806 55.0787615,8.36110027 56.4997984,8.83020064 L60.5870808,1.7528872 L74.2183108,9.62128349 L70.1279593,16.7034061 C71.2444473,17.6997342 72.3023928,18.7570752 73.2929987,19.8673002 L80.3764002,15.77819 L88.2466819,29.4061535 L81.1679599,33.4925358 C81.636435,34.9079421 82.0235736,36.3536814 82.3259678,37.8160165 L90.5,37.8160165 L90.5,53.0529459 L90,53.0529459 Z M90,53.0529459 L89.5,53.0529459 L89.5,53.0514722 L90,53.0514722 L90,53.0529459 Z"></path>
                </g>
            </g>
        </g>
    </g>
</svg>