
<svg width="88px" height="87px" viewBox="0 0 88 87" version="1.1" xmlns="http://www.w3.org/2000/svg" xmlns:xlink="http://www.w3.org/1999/xlink">
    <!-- Generator: Sketch 48.1 (47250) - http://www.bohemiancoding.com/sketch -->
    <desc>Created with Sketch.</desc>
    <defs>
        <polygon id="path-1" points="0 90.7878788 112 90.7878788 112 0 0 0"></polygon>
        <path d="M69.1652004,88.0508309 L93.7986315,88.0508309 L93.7986315,66.1544477 L69.1652004,66.1544477 L69.1652004,88.0508309 Z M71.9022483,57.943304 L73.2707722,57.943304 L89.6930596,57.943304 L91.0615836,57.943304 L91.0615836,63.4173998 L71.9022483,63.4173998 L71.9022483,57.943304 Z M76.0078201,42.5282502 C77.5610948,43.6148583 79.4469208,44.2580645 81.4819159,44.2580645 C83.516911,44.2580645 85.402737,43.6148583 86.9560117,42.5282502 L86.9560117,55.2062561 L76.0078201,55.2062561 L76.0078201,42.5282502 Z M67.6324536,24.7374389 C71.1509286,23.7534702 73.8523949,20.8111437 74.48739,17.1612903 L81.5941349,25.1042033 C81.5571848,25.1042033 81.5202346,25.0987292 81.4819159,25.0987292 C77.6649316,25.0987292 74.3710655,27.3485826 72.8328446,30.5878788 L67.6324536,24.7374389 Z M49.0999022,33.9681329 C47.3262952,35.6048876 44.6043011,35.5515152 42.8977517,33.8449658 C42.0369501,32.9841642 41.5702835,31.8387097 41.5867058,30.6220919 C41.6031281,29.4054741 42.0971652,28.2723363 42.9798631,27.4347996 L55.4826979,15.5560117 C55.4963832,19.0375367 57.3808407,22.0783969 60.1767351,23.7438905 L49.0999022,33.9681329 Z M65.0596285,8.67644184 C68.8326491,8.67644184 71.9022483,11.7460411 71.9022483,15.5190616 C71.9022483,19.2893451 68.8353861,22.3575758 65.0651026,22.3616813 L65.0500489,22.3616813 C61.2811339,22.3548387 58.2170088,19.2879765 58.2170088,15.5190616 C58.2170088,11.7460411 61.286608,8.67644184 65.0596285,8.67644184 Z M88.3245357,34.6783969 C88.3245357,38.4514174 85.2549365,41.5210166 81.4819159,41.5210166 C77.7088954,41.5210166 74.6392962,38.4514174 74.6392962,34.6783969 C74.6392962,30.9053763 77.7088954,27.8357771 81.4819159,27.8357771 C85.2549365,27.8357771 88.3245357,30.9053763 88.3245357,34.6783969 Z M19.8983382,88.0508309 L19.8983382,77.1026393 L33.5835777,77.1026393 L33.5835777,74.3655914 L19.8983382,74.3655914 L19.8983382,66.1544477 L39.0576735,66.1544477 L39.0576735,74.3655914 L36.3206256,74.3655914 L36.3206256,77.1026393 L39.0576735,77.1026393 L39.0576735,88.0508309 L19.8983382,88.0508309 Z M22.6353861,63.4173998 L36.3206256,63.4173998 L36.3206256,60.6803519 L22.6353861,60.6803519 L22.6353861,63.4173998 Z M22.6353861,55.2062561 L32.2150538,55.2062561 C33.9968719,55.2062561 35.5022483,56.3544477 36.0688172,57.943304 L22.6353861,57.943304 L22.6353861,55.2062561 Z M96.5356794,88.0508309 L96.5356794,63.4173998 L93.7986315,63.4173998 L93.7986315,55.2062561 L89.6930596,55.2062561 L89.6930596,39.5872923 C90.5565982,38.1489736 91.0615836,36.4739003 91.0615836,34.6783969 C91.0615836,31.2803519 89.2770283,28.2969697 86.6029326,26.5958944 L74.2328446,12.772434 C73.0490714,8.82561095 69.3869013,5.93939394 65.0596285,5.93939394 C61.6985337,5.93939394 58.7411535,7.68426197 57.0304985,10.311828 L41.0940371,25.4504399 C39.6721408,26.801173 38.8742913,28.6254154 38.8482893,30.5865103 C38.8304985,32.0152493 39.2342131,33.3782991 39.9855327,34.5524927 L32.6160313,41.9219941 L34.5511241,43.857087 L41.8782014,36.5300098 C43.1290323,37.42913 44.5892473,37.9012708 46.0617791,37.8999022 C47.8121212,37.8999022 49.5665689,37.2621701 50.9556207,35.9798631 L62.9931574,24.8674487 C63.4050831,24.9591398 63.8265885,25.0220919 64.2576735,25.0576735 L71.9515152,33.712219 C71.9186706,34.031085 71.9022483,34.3526882 71.9022483,34.6783969 C71.9022483,36.4739003 72.4086022,38.1489736 73.2707722,39.5872923 L73.2707722,55.2062561 L69.1652004,55.2062561 L69.1652004,63.4173998 L66.4281525,63.4173998 L66.4281525,88.0508309 L41.7947214,88.0508309 L41.7947214,63.4173998 L39.0576735,63.4173998 L39.0576735,60.6803519 L41.7947214,60.6803519 L41.7947214,57.943304 L38.9194526,57.943304 C38.283089,54.8244379 35.5200391,52.4692082 32.2150538,52.4692082 L19.8983382,52.4692082 L19.8983382,57.943304 L17.1612903,57.943304 L17.1612903,60.6803519 L19.8983382,60.6803519 L19.8983382,63.4173998 L17.1612903,63.4173998 L17.1612903,88.0508309 L14.4242424,88.0508309 L14.4242424,90.7878788 L17.1612903,90.7878788 L41.7947214,90.7878788 L66.4281525,90.7878788 L96.5356794,90.7878788 L99.2727273,90.7878788 L99.2727273,88.0508309 L96.5356794,88.0508309 Z" id="path-3"></path>
    </defs>
    <g id="Page-1" stroke="none" stroke-width="1" fill="none" fill-rule="evenodd">
        <g id="04" transform="translate(-383.000000, -3240.000000)">
            <g id="Page-1" transform="translate(370.000000, 3236.000000)">
                <polygon id="Fill-1" fill="#4AB9EA" points="27.1515152 48.3636364 29.6969697 48.3636364 29.6969697 45.8181818 27.1515152 45.8181818"></polygon>
                <polygon id="Fill-2" fill="#4AB9EA" points="23.7575758 44.1212121 26.3030303 44.1212121 26.3030303 41.5757576 23.7575758 41.5757576"></polygon>
                <polygon id="Fill-3" fill="#4AB9EA" points="36.4848485 50.9090909 39.030303 50.9090909 39.030303 48.3636364 36.4848485 48.3636364"></polygon>
                <polygon id="Fill-4" fill="#4AB9EA" points="41.5757576 48.3636364 44.1212121 48.3636364 44.1212121 45.8181818 41.5757576 45.8181818"></polygon>
                <g id="Group-9">
                    <path d="M82.8504399,82.382456 C83.8232893,82.1292791 84.6979472,81.6309653 85.3822092,80.9345577 L83.1679374,79.6549878 L84.5364614,77.2847043 L86.7356794,78.5546945 C86.8643206,78.0892253 86.9560117,77.6090445 86.9560117,77.1026906 C86.9560117,76.5963368 86.8643206,76.1159848 86.7370479,75.6493182 L84.5378299,76.9191373 L83.169306,74.5490249 L85.3822092,73.2706525 C84.6979472,72.5742449 83.8232893,72.0761022 82.8504399,71.8227542 L82.8504399,74.3656427 L80.113392,74.3656427 L80.113392,71.8227542 C79.1390029,72.0761022 78.2658847,72.5742449 77.5816227,73.2706525 L79.7958944,74.5503935 L78.4273705,76.9205059 L76.2281525,75.6505156 C76.0995112,76.1159848 76.0078201,76.5963368 76.0078201,77.1026906 C76.0078201,77.6090445 76.0995112,78.0892253 76.226784,78.556063 L78.426002,77.2860728 L79.7945259,79.6561852 L77.5816227,80.9345577 C78.2658847,81.6309653 79.1405425,82.1292791 80.113392,82.382456 L80.113392,79.8397385 L82.8504399,79.8397385 L82.8504399,82.382456 Z M81.4819159,68.8915469 C86.0103617,68.8915469 89.6930596,72.5742449 89.6930596,77.1026906 C89.6930596,81.6309653 86.0103617,85.3138343 81.4819159,85.3138343 C76.9534702,85.3138343 73.2707722,81.6309653 73.2707722,77.1026906 C73.2707722,72.5742449 76.9534702,68.8915469 81.4819159,68.8915469 Z" id="Fill-5" fill="#4AB9EA"></path>
                    <mask id="mask-2" fill="white">
                        <use xlink:href="#path-1"></use>
                    </mask>
                    <g id="Clip-8"></g>
                    <g id="Fill-7" mask="url(#mask-2)">
                        <use fill="#4AB9EA" fill-rule="evenodd" xlink:href="#path-3"></use>
                        <path stroke="#4AB9EA" stroke-width="1" d="M69.6652004,87.5508309 L93.2986315,87.5508309 L93.2986315,66.6544477 L69.6652004,66.6544477 L69.6652004,87.5508309 Z M72.4022483,58.443304 L72.4022483,62.9173998 L90.5615836,62.9173998 L90.5615836,58.443304 L72.4022483,58.443304 Z M76.5078201,43.4364839 L76.5078201,54.7062561 L86.4560117,54.7062561 L86.4560117,43.4364839 C84.9527034,44.2955241 83.249924,44.7580645 81.4819159,44.7580645 C79.7139079,44.7580645 78.0111284,44.2955241 76.5078201,43.4364839 Z M68.5150875,24.9778024 L72.7245968,29.7135004 C74.3383223,26.8712923 77.2343441,24.9622139 80.5126946,24.6453826 L74.7610934,18.2170572 C73.8921322,21.3367499 71.5552873,23.8641842 68.5150875,24.9778024 Z M81.4816151,25.5987292 C81.4810504,25.5986864 81.4813968,25.5987035 81.4819159,25.5987292 C81.4818157,25.5987292 81.4817154,25.5987292 81.4816151,25.5987292 Z M48.7607905,33.6007051 L48.7607716,33.6007225 L48.7607905,33.6007051 Z M48.7607905,33.6007051 L59.3619915,23.8154849 C56.9637994,22.1671131 55.378702,19.5669814 55.0473293,16.6593359 L43.3240161,27.7975099 C42.540006,28.5414079 42.1012794,29.5458022 42.0866602,30.6288404 C42.072069,31.7098087 42.485421,32.7255283 43.2513051,33.4914124 C44.7678223,35.0079296 47.1841089,35.0557292 48.7608093,33.6006877 L48.7607905,33.6007051 Z M65.0596285,9.17644184 C61.5627504,9.17644184 58.7170088,12.0221834 58.7170088,15.5190616 C58.7170088,19.0115865 61.5572268,21.8553391 65.0500489,21.8616813 L65.0645582,21.8616816 C68.5593319,21.8578761 71.4022483,19.0129955 71.4022483,15.5190616 C71.4022483,12.0221834 68.5565067,9.17644184 65.0596285,9.17644184 Z M87.8245357,34.6783969 C87.8245357,31.1815187 84.9787941,28.3357771 81.4819159,28.3357771 C77.9850378,28.3357771 75.1392962,31.1815187 75.1392962,34.6783969 C75.1392962,38.175275 77.9850378,41.0210166 81.4819159,41.0210166 C84.9787941,41.0210166 87.8245357,38.175275 87.8245357,34.6783969 Z M20.3983382,87.5508309 L38.5576735,87.5508309 L38.5576735,77.6026393 L35.8206256,77.6026393 L35.8206256,73.8655914 L38.5576735,73.8655914 L38.5576735,66.6544477 L20.3983382,66.6544477 L20.3983382,73.8655914 L34.0835777,73.8655914 L34.0835777,77.6026393 L20.3983382,77.6026393 L20.3983382,87.5508309 Z M23.1353861,62.9173998 L35.8206256,62.9173998 L35.8206256,61.1803519 L23.1353861,61.1803519 L23.1353861,62.9173998 Z M23.1353861,55.7062561 L23.1353861,57.443304 L35.2805151,57.443304 C34.6395924,56.3859448 33.4916208,55.7062561 32.2150538,55.7062561 L23.1353861,55.7062561 Z M97.0356794,87.5508309 L99.7727273,87.5508309 L99.7727273,91.2878788 L13.9242424,91.2878788 L13.9242424,87.5508309 L16.6612903,87.5508309 L16.6612903,62.9173998 L19.3983382,62.9173998 L19.3983382,61.1803519 L16.6612903,61.1803519 L16.6612903,57.443304 L19.3983382,57.443304 L19.3983382,51.9692082 L32.2150538,51.9692082 C35.5773382,51.9692082 38.4778558,54.2573657 39.3160125,57.443304 L42.2947214,57.443304 L42.2947214,61.1803519 L39.5576735,61.1803519 L39.5576735,62.9173998 L42.2947214,62.9173998 L42.2947214,87.5508309 L65.9281525,87.5508309 L65.9281525,62.9173998 L68.6652004,62.9173998 L68.6652004,54.7062561 L72.7707722,54.7062561 L72.7707722,39.7238406 C71.8803805,38.1920674 71.4022483,36.4671575 71.4022483,34.6783969 C71.4022483,34.4109321 71.412779,34.1458347 71.4338723,33.8824896 L64.0151197,25.5373826 C63.719376,25.5071677 63.4288077,25.4645234 63.1433143,25.4093096 L51.2947758,36.347251 C49.8472265,37.68356 47.9852734,38.3999022 46.0622438,38.399902 C44.6155105,38.4012466 43.1885981,37.976829 41.9394416,37.1758763 L34.5511241,44.5641938 L31.9089245,41.9219941 L39.3551737,34.475745 C38.6797331,33.2897928 38.3312009,31.9557289 38.3483333,30.5798814 C38.3761197,28.4842013 39.2299561,26.5315881 40.7496747,25.0879285 L56.6440741,9.98927273 C58.5002593,7.17400264 61.6355781,5.43939394 65.0596285,5.43939394 C69.4966122,5.43939394 73.3764473,8.34867018 74.6787647,12.5209481 L86.9301034,26.2117072 C89.7912025,28.0592067 91.5615836,31.2206178 91.5615836,34.6783969 C91.5615836,36.4687918 91.0838069,38.1938142 90.1930596,39.7240175 L90.1930596,54.7062561 L94.2986315,54.7062561 L94.2986315,62.9173998 L97.0356794,62.9173998 L97.0356794,87.5508309 Z"></path>
                    </g>
                </g>
            </g>
        </g>
    </g>
</svg>