
<svg width="30px" height="30px" viewBox="173 544 30 30" version="1.1" xmlns="http://www.w3.org/2000/svg" xmlns:xlink="http://www.w3.org/1999/xlink">
    <!-- Generator: Sketch 39.1 (31720) - http://www.bohemiancoding.com/sketch -->
    <desc>Created with Sketch.</desc>
    <defs></defs>
    <path d="M188,544 C183.87498,544 180.343764,545.468736 177.406248,548.406248 C174.468735,551.343764 173,554.87498 173,559 C173,563.12502 174.468735,566.656236 177.406248,569.593752 C180.343764,572.531265 183.87498,574 188,574 C192.12502,574 195.656236,572.531265 198.593752,569.593752 C201.531264,566.656236 203,563.12502 203,559 C203,554.87498 201.531264,551.343764 198.593752,548.406248 C195.656236,545.468736 192.12502,544 188,544 Z M188,572 C184.416648,572 181.35418,570.729179 178.8125,568.1875 C176.270821,565.64582 175,562.583352 175,559 C175,555.416648 176.270821,552.35418 178.8125,549.8125 C181.35418,547.27082 184.416648,546 188,546 C191.583352,546 194.64582,547.27082 197.1875,549.8125 C199.72918,552.35418 201,555.416648 201,559 C201,562.583352 199.72918,565.64582 197.1875,568.1875 C194.64582,570.729179 191.583352,572 188,572 Z M193.5625,552.0625 L188.0625,557.5625 L183.125,552.0625 C182.624996,551.562496 182.145836,551.55208 181.6875,552.031248 C181.229164,552.51042 181.229164,552.979164 181.6875,553.4375 L186.625,558.9375 L181.0625,564.5625 C180.604164,565.020836 180.604164,565.48958 181.0625,565.968752 C181.520836,566.44792 181.979164,566.437504 182.4375,565.9375 L187.9375,560.4375 L192.875,565.9375 C193.375004,566.437504 193.854164,566.44792 194.3125,565.968752 C194.770836,565.48958 194.770836,565.020836 194.3125,564.5625 L189.375,559.0625 L194.9375,553.4375 C195.437504,552.979164 195.44792,552.51042 194.968752,552.031248 C194.48958,551.55208 194.020836,551.562496 193.5625,552.0625 Z" id="Page-1" stroke="none" fill="#FFFFFF" fill-rule="evenodd"></path>
</svg>