
<svg width="82px" height="17px" viewBox="740 337 82 17" version="1.1" xmlns="http://www.w3.org/2000/svg" xmlns:xlink="http://www.w3.org/1999/xlink">
    <!-- Generator: Sketch 39.1 (31720) - http://www.bohemiancoding.com/sketch -->
    <desc>Created with Sketch.</desc>
    <defs></defs>
    <path d="M742.859984,353.952933 L740,353.952933 L740,337 L742.859984,337 L742.859984,353.952933 Z M745.719968,353.940893 L744.267278,353.940893 L744.267278,337 L745.719968,337 L745.719968,353.940893 Z M749.987245,353.940893 L748.579951,353.940893 L748.579951,337 L749.987245,337 L749.987245,353.940893 Z M757.114509,353.940893 L755.707214,353.940893 L755.707214,337 L757.114509,337 L757.114509,353.940893 Z M764.241772,353.940893 L761.427181,353.940893 L761.427181,337 L764.241772,337 L764.241772,353.940893 Z M769.961739,353.940893 L768.554444,353.940893 L768.554444,337 L769.961739,337 L769.961739,353.940893 Z M772.821723,353.940893 L771.414428,353.940893 L771.414428,337 L772.821723,337 L772.821723,353.940893 Z M775.681707,353.940893 L774.274412,353.940893 L774.274412,337 L775.681707,337 L775.681707,353.940893 Z M782.808959,353.940893 L779.948975,353.940893 L779.948975,337 L782.808959,337 L782.808959,353.940893 Z M789.936222,353.940893 L787.076238,353.940893 L787.076238,337 L789.936222,337 L789.936222,353.940893 Z M795.656189,353.940893 L792.796205,353.940893 L792.796205,337 L795.656189,337 L795.656189,353.940893 Z M801.376157,353.940893 L798.516173,353.940893 L798.516173,337 L801.376157,337 L801.376157,353.940893 Z M805.643435,353.940893 L802.783452,353.940893 L802.783452,337 L805.643435,337 L805.643435,353.940893 Z M814.223387,353.940893 L809.956108,353.940893 L809.956108,337 L814.223387,337 L814.223387,353.940893 Z M817.083371,353.940893 L815.630682,353.940893 L815.630682,337 L817.083371,337 L817.083371,353.940893 Z M821.350649,353.952933 L818.490666,353.952933 L818.490666,337 L821.350649,337 L821.350649,353.952933 Z" id="Page-1" stroke="none" fill="#565656" fill-rule="evenodd"></path>
</svg>